/* XPM */
static char *_194188ce8c4452c8e5fb2102d3b083epmIEUOer1LZ2DemJ[] = {
/* columns rows colors chars-per-pixel */
"64 64 82 1 ",
"  c #3C261F",
". c #0E1B2C",
"X c #1A1E2E",
"o c #0F1E31",
"O c #101F34",
"+ c #1B1F30",
"@ c #102136",
"# c #1C2234",
"$ c #112238",
"% c #1A2639",
"& c #1C283D",
"* c #3F2720",
"= c #41251F",
"- c #432620",
"; c #462822",
": c #482A24",
"> c #1E2C44",
", c #242E45",
"< c #252F48",
"1 c #26314A",
"2 c #28334E",
"3 c #2B3654",
"4 c #2D3857",
"5 c #303955",
"6 c #323D5C",
"7 c #343F61",
"8 c #2E446B",
"9 c #364265",
"0 c #384465",
"q c #3A4668",
"w c #3D496D",
"e c #314973",
"r c #3F4B71",
"t c #3F4B72",
"y c #404C71",
"u c #404C72",
"i c #414E74",
"p c #404D77",
"a c #424E79",
"s c #434F7B",
"d c #435079",
"f c #43507B",
"g c #44507B",
"h c #485A88",
"j c #485B88",
"k c #485B8A",
"l c #495B8B",
"z c #4A5C8B",
"x c #495C8D",
"c c #4A5D8C",
"v c #4A5D8E",
"b c #4B5F8F",
"n c #4C5F8F",
"m c #565F8B",
"M c #4C5F91",
"N c #4C5F92",
"B c #56608B",
"V c #57608B",
"C c #57608D",
"Z c #58618D",
"A c #58618F",
"S c #4C6090",
"D c #4D6093",
"F c #4E6195",
"G c #4E6294",
"H c #4F6295",
"J c #506396",
"K c #506397",
"L c #5A6392",
"P c #5B6596",
"I c #5C6697",
"U c #5E689A",
"Y c #5F689B",
"T c #5F699C",
"R c #60699C",
"E c #616BA0",
"W c #626CA1",
"Q c #646EA3",
"! c #6670A9",
"~ c #6B76B2",
"^ c #6C77B4",
"/ c #6E79B5",
/* pixels */
"============--==========================*- --**=-- =- ---======-",
" ===========-===========================--=--=-=*===- -======-=*",
"= ==========-===========================-*-* ---;===---=--**-=--",
"============-=======================:===-*--=-*======-----=--*-=",
"========   -= =========.............X......-=====;====*-=*----*=",
"=====-= ---=--=========....X...X...........;=;= ===;=;---=-==-=-",
"=====-----=-===o.......VdZZ050000000000w0q0.....o.o=;; ----*----",
"===-- =---=====........VAZZ000060000000000q....X.oo==;;*-==--=--",
"=====-==-==....mVVVVV0752,,,,,,,%1<<&5&5&55000wwu0qoo.X=------=-",
"=====--=--=....mVVVVV0045,,,,,,,<&<<2&2&55500ww00qqo.o.==-=-*=--",
"--=-=-==-o.mmmm22,,&%,,,,,,%%,,%&2<&2112&5&511&5&66qwwq..------=",
"-==---===o.lmmm25,,,,,,,,&,%%,,%#&12&5&&2&5&2&5&165qwqu.o-------",
"-=--=--..mm32,,,,,,,&%%%%%%#%%%%&%%%%%%%#&&%&&5&&511165qwoX=----",
"=-=---=X.mm25,,,,&,,,%%#%%%%%#%$%%%%%%%%&&&#%5&&&&11166uw.@=----",
"---=-==..mm,,,,+#%#%%%%%%$%%%%%%%%%%%%%%#&%&&&&&&&&2211ww.o=---;",
"==--=-=..mm,,,,+%%$%%%%%#%%%%%%#%%%&%%&%&&&%%&&#&&&&111wwoo;=---",
"-==;=..Am53,,+$%%%%%%%%88jjjjjhccckccccSb88&&&&&&&&&&2266ywoo;=;",
"--===..Cm35,,##$#%%@%%%88jjjkklzckckccjcbe8&&&&&&&&&&2255ywoo;;=",
"=--==..AA53%%%%%%88hhhhhhklcczzzcccbSccSSSSSbSSet&&&&&&66yy.@-=;",
"-====..Am35%%%%%%87lhhhhhllccznlcccbbSbSSSSSSSSew&&&&&&66yyXo-;=",
"-==-=..7wLL33%%e8klxljlxnkkcxxxxccnSSSSSSSSSJJSGGee&&96yw22oo:=;",
"----=.X77LL33%%78hxkjjjxxxnxxNxNnnSSSSSSSSSGJKJGGee&%77wr22oo= ;",
"=---=;-O.qwPIII46kxxNxNNxnxnDnNNDnDDSGGGGGGGKKGee77iiyy22oo;;=:;",
"=----==o.w7PIII46kxxxxxxnxnxnDNDnDnDGSSGGGGGKKGee96wuuy22OO--=;=",
"-=--*--.o4646qqYIYIYYEYwwDNNNNNHDHHHHHHKG87rrrdrrri&&>&22Oo :=:;",
"----;--O.4564wqRYYYYYTTwwxNNDDNNDHHHFHHKGq6rrtrrdir>>&&22Oo: : ;",
"*---;-*..666646wwwwwwweEEEEEWWWtwQQtttttrre3522&&>>&&dr00oo:;;:;",
"-------O.666664wwwwwwwwEEEEEWWWewQQtwtttrrr2222>>&&>&tr70oo: : ;",
";;*;*;-Oo117746wwwwtt96777622223222332323323224&>>&>>0000OO=;;=-",
";*;;*;-@o126667ewwwtw66977722222232423232332433>&>&>&0070OO;;;::",
"**;*;----oo777769tttw696777132222!!tt3323223244&>>>>&,&OO  :=;;;",
";;*;*;---oo776676tttt969777323232!!tt3222333234&>>>&,&>O$::-:;;;",
"-;----;-=O@777773tptl777777333334tt9932333333>>>>>>>>99@@-;--;;-",
"--------=O@777777ptph777777333334tt8932333333$>>>>>>>99$$ -;;--:",
";-------=@@377777sppp77777733333433>>33333333>>>>>>>>9qo#;;-;-:-",
"-----;--=@@447777spsp77777433333333>>33333333>>>>>>>>qq@O;;;;;;:",
"--------=@@>>777777hs7777e773333333dd33344344>>>>>>>>78oO;;;;;;;",
"--------=@@>3777777as77777743333333dd33434434>>>>>>>>77>O;;;;;;;",
"--;------==@$777777ssshte7743333333ff44343444>>>>>>>>w7@O:;;;;;;",
"----=;---==@$7p7777sh7h777743333333fd34444444>>>>>>>>8qoO;;;;;;;",
"-;:===:=-;-@@e77777hsss77h744444444~~334444>>>>>>>>>>t7OO:;;;;;;",
"--=::===;-;@$77ep77sssh777743344433~^734444>>>2>>>><<7t$O:;:;;:-",
";--==::=;--@$347777sssa7777e7444434q7/^3444>>>>>><<^^7uOO;;;::-:",
"-;==:==:-;-@$33777phsss7h77t7444433q7^^7444>>>1>>>3//77$%;;:--::",
"=:====:=;-;@@>37p7777sst77777444444449e/^44>>>>>>//77$$:;;:;:::;",
":=::=:=:---@@>>7777t7hs77h7774434443767^^442>1>2>^/tw$$:;:;;::;:",
";;:==:=:---##@$47e77tss77t7777444444444e7///^////qe$$++;:;;;;;;:",
"=;=:==:=---##@$347777sh77e7e7444444344477///^////t7$$++;;:;:;:;:",
";;=;;=;;=;;++++<>437ehaaa77pe444444444444>>>>>>><>>$$##::;;::;::",
"=;;=;==;=;;+++@>>4377apph7777444344444444><>>3>>>><$+++:;:;:;::;",
"=;;=;;;;;;=;:#+@O><4333hh77t7734434444444<>>>>>><$$%#::::;:;;:;:",
";=;;=;===;;==#+@O>>4444aht777434384444444>>>>1><>$$++:::;:;::;:;",
";==;=;=;;---;##+#OOOO>>>>34344443333444>>>>><$O$$%###::::;:;;:::",
"=;;;=;;;--;;:+###OO$$>>>>34344443344474>>>>3<$$OO&,##:::::;::;:;",
";;;=;;;;;--;--:++%+%O$OOOOO,>>>>>>>>>>>$$$$$O######::::::;:;;:;:",
";==;;=;=-:;;;:;++%+++OOoOO$<>>>>>>>>>>>$$$$$####&##::::::::;:;:;",
"=;;--;-;;;;;;;;--+++++++X++OO$OO$$O$O$O+++#######;;:::::;:;:;;::",
";=;;;;;-;-;;;-;;-+++++X+X++o$OO+$$$O$O$++++#++###;:;:::::;::::::",
";-;;;;--;;;;-;-------+++XX++++XXO++++++++++++::;::;:::::::;:::::",
"-;-;;-;;;;;-;;;;;----+++XX++++XX$o+++++++++++:;:;:::::::::::::::",
"----;;;;;;-;;;;;;;----:-*-;+XXXXXX+++++*;;;;:;;:::;:::::::::::::",
";;-;;-;;;;;;;-;;;;;;;-::-;-+++XXXX+++++-::;;;:;;;::;::::::::::::",
";--:;-;;-;;;;;;;;;-:;;;;;;;;;;;;--:-;;;;:;:;::;::;;:::::::::::::",
";;:--;-;;;;-;-;;;;;:;;;;;;;;;;;;;;:::;;;;:;:::::;:;:::::::::::::"
};
