/* XPM */
static char *oie_vMHN3TuY10Ke1667924957[] = {
/* columns rows colors chars-per-pixel */
"64 64 84 1 ",
"  c #0C0D0E",
". c #0D0F10",
"X c #0F1111",
"o c #141516",
"O c #1D1617",
"+ c #161817",
"@ c #151718",
"# c #1C1718",
"$ c #16191A",
"% c #1B1B1C",
"& c #231517",
"* c #2A1417",
"= c #241718",
"- c #2D1719",
"; c #231D1D",
": c #2B1B1B",
"> c #321719",
", c #341A1B",
"< c #391E1E",
"1 c #1D201F",
"2 c #25201F",
"3 c #29201F",
"4 c #3A201F",
"5 c #1D1F20",
"6 c #241F20",
"7 c #3A1F20",
"8 c #1E2122",
"9 c #232425",
"0 c #2A2221",
"q c #272827",
"w c #242728",
"e c #262829",
"r c #2B2C2D",
"t c #342423",
"y c #3C2222",
"u c #352826",
"i c #3C2927",
"p c #342C2A",
"a c #3C2A28",
"s c #2E2F30",
"d c #2F3030",
"f c #333435",
"g c #373837",
"h c #363738",
"j c #373838",
"k c #3B3B3C",
"l c #422625",
"z c #442926",
"x c #482B27",
"c c #442C2A",
"v c #4A2E2B",
"b c #44312B",
"n c #4D312D",
"m c #51332E",
"M c #453C3A",
"N c #543631",
"B c #563832",
"V c #5C3C35",
"C c #5F3F38",
"Z c #603F36",
"A c #613F38",
"S c #3F403F",
"D c #5F4037",
"F c #604037",
"G c #644239",
"H c #69463C",
"J c #6A483D",
"K c #3F3F40",
"L c #3F4040",
"P c #434444",
"I c #484748",
"U c #474848",
"Y c #4C4C4C",
"T c #4F504F",
"R c #4F4F50",
"E c #535353",
"W c #5B5B5B",
"Q c #636362",
"! c #686767",
"~ c #676768",
"^ c #676868",
"/ c #6C6C6C",
"( c #737373",
") c #7A7979",
/* pixels */
"@@o o@@@+%+++$%@$$@$@%@@@@@@@@@@$$@@$@@$%@@$$$$$$@$$++$++Xoo+$@.",
"%$.  %%@$%%%%$+%$$$$%$%%%%+%%%%$%%%$$%1$%%%$$$%%$%%$+%$$o..$%#+.",
"gf9o8fkIUkjPUd%9fMILhjPYYUSggdferhhhhhhdreew%8ffefSUYUh+oo%dhhf%",
"YUg%dUW((WE/(P;rYQ((WW())(QEYYUkSYTTTTTLjjjr%ePPkU!))(R+o#eIRRIe",
"PPf$rUE!QLUWWj%rPEQQEEWWWWYPPPSkLLPLLLLLhjjr%9kPkPW!!QP%@%wkPPLe",
"jgr%fUEERDkUYf%ehPUYRIKhjgjgffgghhkkhhjkgghr59ghjkUTEYg%o@9fjjfw",
"ww9@ekPPLLjPSe%8eersssewwewwwww98w8ee88eeew9%9fhjjPPPPr@o+%9e99+",
"%%%%egjhfffgfe1%%#+$%%%%%%%%%%%;18%18%%8%=%%+9fggggggfe%#%%%%+@X",
"ergkfeww88wwwuuii7=:uaaaaaii3:4nbaaauai0:tit:;9e99wee81$9rdKd88.",
"dkPYj5$%88%8;inmNx,7xNnnmnnvz,xHGBNNNnvy,lvy<=;%%%%%5%$$qgLYL8@.",
"jUPPf%;iraanNVFFZv,<cNVGFDBnl,vHJDDDDNncxnnl<<iaiiaiai0%wgDRU8@.",
"kEUks%0bnnBGGHHHHm<<vNAHHHVml,xGHHGHGBBNnnnl,yvnmmnNnnu%wgLYP8@ ",
"kEPkr59cNDGGJGHJHm<7cNDHHFVnl>xGHJGBNCDGGBnl,yvNVFFGFDc%wjPTU8o ",
"PEYks%0cBGJGJJHHHm<<vNGHHHVnl>xGJJGBNGHHJVNl,7xBGJHJHGb%wgSYPwo ",
"E/QYk59bBDJHHJHHGN<7vBFJHHBnl>xGHHGGGGHHJVnl,<cBDHHJHHc%wgkSg8@.",
"W)/EM%9aBDHGHHHJHm<7vNVHHHVnx>xGHJHJHHHHHVni,7vBGHHJHGb%wgjkg8+.",
"Q)/Ej59xNAHHHHHHHm<yvNAHHHZml>xGJJHHHHHHGVNl,7vBGHHHHHb%wgkUP9@ ",
"W(QYj80cNAHHHHHHGm,<vmAHHGVxl>xGHJHHHHHHHVny,7vNDHHHHGb%wgPYUwo ",
"PWYLf50cBAHHHGHANx,<vmAHHHVml>xGHHHHHHHHHVnl>7vBGHHHHGb%9gPRP9+ ",
"PWTPs%0vBGHHHHGVmz,ymVHHHGZmx>xGHHHHHHHHHVNi,7xBGHHHHHb%9gLYIw+ ",
"E(QTj%9vNGHHHHHVml>lVHHHHHHZm>xGHHHHHHHHHVnl,<vBGHHHHGb%9gPRP9@ ",
"E(WYh5:xNAHHHHHVml>lAHHHHHHHm>xVHHHHHHHHHVNi,<xBGHHHHGb%9gPRPw@ ",
"PEYSd%9cNHHHHHHVnl>lAHGHHHHGm>lmVHAJHHHHGVni,<xBAHHHHGb%9hPYP9@ ",
"kEUkr%:cNAHHHHAVml>lZHHHHHHHm>4mNAHJHHHHGVml,ymVGHHHHHb%9hLUP8o ",
"SYPkr%9cBGHHHHAVml,lFHHHHHHHm>4vNAHHHHHHHVml,lVGHJHHJGb%9hkkg5@ ",
"gULkr%3cBAHHHHHZnl>lFHHHHHHHm>4vVHHHHHHHHVnl>lVHHHHHJFb%whkjf%@ ",
"skkkd%3vmAHHHHHVml,lFHHHHHHHm>4mNHHHHHHHHVnl,lAGHHHHHGb1wgjhf8$ ",
"rgkjd%3cBGHHHHHVml,lFHHHHHHHm>4vNAHHHHHHJVn4,lAHHHHHJGb%wgkPj5@ ",
"rjkjr%3cBGHHHHHVml,lFHHHHHHHm>4mBHHHHHHHHVnl>lZHHHHHHHb%wjPYP9o ",
"fPLjr%3vNAHHHHHVnl,lFHHHHHHGm>4mBAHJHHHHHVml>xZHHHHHJFc%wjLTPw@ ",
"kYUks%9cBAHHHJHZnl>lFHHHHHHGm>4xBAAHHHHHHVml>xZHHHHHHGb%wgLYP8o ",
"STUjr%;cNAHHHHHNlllxGHHHHHHHm4llmAHHHHHHHZmx>lZHHHHHHHb#9gPTPwo ",
"kTUjr%3cNAHHHHHm<yxBGHHHHHHHVvl,xAHHHHHHHVml>zZHHHHHJGb%qgPYP9o ",
"STUkr%3vNAHHHHAx,7vVFHHHHHFVntt:<NVHHHHHHVml>zAHHHHHJGb#9gPYUwo ",
"kTUkr%3cNAHHHHHm,ynBHHHHHGVnu%%%,cBAHHHHHZml,lAHHHHHJGb%9gSYU9o ",
"kRPks%3cNGHHHHHx,yvBHHHHVBcuMYTYIaaBVGHHHAZv<lZHHHHHJFb%qgSYP8o ",
"LTPkr12cNGHHHHGm,yvVGHHGVn02U())Q92cmAGHHHAN<lZGHHHHHHb%wgPYP9o ",
"kEUjr%3cNAHHHHHx,yvBGHGBc02$P!/!E9#3imVGHHHm>lZHHHHHHGb1wjKYU9o ",
"kYPkr#3xNAHHHHGm,7vNGAVb08%%gYRED5+%;anVHHHm,lVHHHHHHAx#9gPYP8o ",
"gIPPg%3xNZHHHHHv<yvNVNiuPTd%rPPPh51dgpunZAAN,yNVGHHHHHb;9gPYUwo ",
"pkPTK56cBAHHHHAv,yvnnc0rW(P5egggs88LUr;inBGn<<xBAHHHHGc%wgPYPw@ ",
"sjPTk56cBAHHGABz,yncupYEWEg$5www8$8LPLkp0nBv,7xBAHHHABa$wgkPk8o ",
"dkIYj50xNAHHGNvy,lxc;rQ(Efw%+%%+%$8djUUr%tvl,7vBGHHGVNu%whjkg8@ ",
"jUUPf50cNAGHHNml>yxl5eEWj2;:**&===;8ejPe%tnl,7cNAHHHAVc%9gkUk8@ ",
"kYPje%6cBAHHGVny,yna;8LUf%:-:<,>>,,;9fjw%unl>7vBGHHHHGc%wjLRP9o ",
"jPfw5$3vBAHHHVny,lVn65kPPkr&,ly>*&6jSjgw%unl>7xNAHHGAVa$9hPRUw@ ",
"dje%$$0cmAHHHVny,xAB65skUUf0ucl,=6ePUkg9#uvl>7vNAHHGVvt$whLRP9@ ",
"rje%@%0cBAHHGBvy,vGB7=9egPEQI0;O0kPLLrw=*yvl>7vBAHHHVvu%wjPRP8@ ",
"rjr8%%3cNGGHHVvy,vGNy>;%rkW(Ew8%eUUjd8#:7lnl,7cBGHHHVvt$9hKYL9@.",
"jUkfe%0cBAHHGVny,vGAvl,=;ejYWQEfgkje9:,vVBNl>7vBFHHHVnu59hkKj8@ ",
"kYPjr%0cNAHHHVvl>zCABvy,:5ehE/Wjgfr6#:yBAVNy,7vNAHHGVvu$9hkkf5@ ",
"kEPkr%0cNAHHHVny,ymVAVBxt*:9eds8959*-lvnNNnl>7vBHHHGVvt%9hkhd5X ",
"kYLge%3cNCGAAVml,7vBAZNvy,:%%#%;=;;,7xvnvvnl-7xNZAGGBvt%9hkhd8@.",
"fkd8%%2cmBBVBmvy>7vnNNnnvxcccccclcccvvnnvnnl,<vnmNNNNvt$9hkhf8@.",
"rfw@$$2ilcccclxt-7ilzacccccccccccccccccllcct>7alxalccl0%8fffs%@.",
"%8%@oo%#%666%;%###656655%;%6;%9=%;2%%;656%5#+#%;;;66%;%%$%55%@o ",
"9w5@%frwessr89w85885885888888888wwwwwwwww988w889888888855@$5995o",
"kPf%k^!EE~/EIIIKffhhhhffLULfffKUUUUUIUUUIKkKUPhgffhfffffr%5shPL9",
"PPf$jWQRE//WRYYKffdfffsfLUkdfdkUYYYYYYYYYIKKYLhfffffkPkfw$9hMIPe",
"kkr%%edjIEEIkkks55555555888558rkSkkLLkLkkKkkKfw855%9kUj5$%8hkkke",
"fdw$@@%rdkKddss8$@@55@$$5@$$$$8rrrrrfdddsssrse55@@@$sks$@$5rssr5",
"%8%$$@%%58555$%%$@@@@@5@@@$5$$5$5555%85%%5555$$$$$$$59%$$@%555%o",
"@@@ooo$@$$$$$$$$$$$$$$5$$$$@@$$$@$@$%$$$$%$$$$$$$$$5$$@$@oo$$@@.",
"oXX  o@@@@oX@@$@ooooo@@@XX@@@@$@@@@@$@@@$$$$$$@@$@oooo@@X  o+@o "
};
