/* XPM */
static char *oie_bNDMTP0za5xg1667924571[] = {
/* columns rows colors chars-per-pixel */
"64 64 213 2 ",
"   c #0E0200",
".  c #140401",
"X  c #1A0401",
"o  c #150903",
"O  c #1B0A04",
"+  c #1D0C0A",
"@  c #1F1109",
"#  c #220602",
"$  c #230B04",
"%  c #2B0D04",
"&  c #220E09",
"*  c #2B0F0A",
"=  c #221006",
"-  c #2C1206",
";  c #24130A",
":  c #2B140B",
">  c #2B190D",
",  c #29190B",
"<  c #32170E",
"1  c #321C0C",
"2  c #3A1B0D",
"3  c #301003",
"4  c #251511",
"5  c #2D1611",
"6  c #2D1B14",
"7  c #2E1B19",
"8  c #271912",
"9  c #331C13",
"0  c #3A1E13",
"q  c #341E19",
"w  c #301611",
"e  c #3F210E",
"r  c #2F2019",
"t  c #352114",
"y  c #3A2215",
"u  c #36221C",
"i  c #3B241B",
"p  c #3C291B",
"a  c #3E2816",
"s  c #372520",
"d  c #3E2621",
"f  c #3E2D24",
"g  c #40230F",
"h  c #422515",
"j  c #442A15",
"k  c #41261D",
"l  c #442A1D",
"z  c #492C19",
"x  c #4C331F",
"c  c #47301E",
"v  c #53361C",
"b  c #442B24",
"n  c #4B2D24",
"m  c #4C2F28",
"M  c #442B25",
"N  c #443224",
"B  c #4C3325",
"V  c #44332A",
"C  c #4B332A",
"Z  c #4E3A2B",
"A  c #533226",
"S  c #533A25",
"D  c #593D24",
"F  c #53342A",
"G  c #58372B",
"H  c #533C2D",
"J  c #5B3B2D",
"K  c #4D3B32",
"L  c #4D3530",
"P  c #553C32",
"I  c #5B3D33",
"U  c #563B36",
"Y  c #623E2F",
"T  c #623E33",
"R  c #603F38",
"E  c #61401E",
"W  c #54412E",
"Q  c #5A412D",
"!  c #554332",
"~  c #5C4333",
"^  c #5E4A35",
"/  c #5D423A",
"(  c #5C4B3B",
")  c #534239",
"_  c #63442A",
"`  c #684927",
"'  c #6D522E",
"]  c #71502C",
"[  c #634135",
"{  c #6D4436",
"}  c #654A33",
"|  c #6D4A34",
" . c #63443B",
".. c #6D463A",
"X. c #654B3B",
"o. c #6D493C",
"O. c #704636",
"+. c #714A35",
"@. c #71463A",
"#. c #72493B",
"$. c #7B4E3F",
"%. c #695236",
"&. c #64513D",
"*. c #6C543C",
"=. c #675133",
"-. c #735632",
";. c #7C5C35",
":. c #7E503E",
">. c #755A3D",
",. c #785B3A",
"<. c #7D613E",
"1. c #5C4D43",
"2. c #654B42",
"3. c #6C4B41",
"4. c #634540",
"5. c #744D41",
"6. c #7B4E41",
"7. c #655442",
"8. c #6A5543",
"9. c #6C5A45",
"0. c #6D5B4B",
"q. c #615248",
"w. c #745144",
"e. c #7D5142",
"r. c #735D45",
"t. c #795F48",
"y. c #6F5D50",
"u. c #7C6244",
"i. c #76614C",
"p. c #7A634A",
"a. c #736153",
"s. c #7D6652",
"d. c #7D6954",
"f. c #804F3F",
"g. c #825E35",
"h. c #8F6C36",
"j. c #83633B",
"k. c #89693D",
"l. c #916D33",
"z. c #916F3C",
"x. c #94723C",
"c. c #99753B",
"v. c #9D793E",
"b. c #AC7F37",
"n. c #A47D3F",
"m. c #AA7E3A",
"M. c #804F40",
"N. c #805244",
"B. c #826546",
"V. c #866943",
"C. c #8B6D44",
"Z. c #81654A",
"A. c #846B4B",
"S. c #8B6E4A",
"D. c #896740",
"F. c #906F41",
"G. c #8E7044",
"H. c #8D714C",
"J. c #87704E",
"K. c #937243",
"L. c #9A7643",
"P. c #9B7945",
"I. c #93744B",
"U. c #97794C",
"Y. c #9C7B4B",
"T. c #826C54",
"R. c #876E5A",
"E. c #867156",
"W. c #8C7354",
"Q. c #85725B",
"!. c #8C755D",
"~. c #8C795E",
"^. c #947553",
"/. c #947855",
"(. c #9B7C54",
"). c #93775A",
"_. c #927A5C",
"`. c #A27D43",
"'. c #A27E4A",
"]. c #A87E41",
"[. c #A27F56",
"{. c #8E7963",
"}. c #8B7561",
"|. c #927A62",
" X c #987D61",
".X c #AD813B",
"XX c #AF8035",
"oX c #B28136",
"OX c #B2833C",
"+X c #9E8156",
"@X c #9B815E",
"#X c #A68144",
"$X c #AC8343",
"%X c #A5824B",
"&X c #AB854B",
"*X c #AD884F",
"=X c #B18543",
"-X c #B18749",
";X c #A48353",
":X c #AA8653",
">X c #AC8953",
",X c #A48459",
"<X c #AA875B",
"1X c #AD885B",
"2X c #A7885B",
"3X c #B18B51",
"4X c #9C866C",
"5X c #9B8365",
"6X c #9C8874",
"7X c #A68A64",
"8X c #A98C67",
"9X c #A48D72",
"0X c #AB9071",
/* pixels */
"#.#.#.#.#.$.@.$.@.@.#.#.@.#.#.@.@.#.#.O.#.#.#.@.#.+.@.#.#.#.#.+.#.#.#.O.#.#.#.#.@.#.#.$.O.@.O.#.#.@.$.O.@.#.#.O.#.#.#.#.+.#.#...",
"#.#.#.#.#.#.@.@.#.@.@.#.#.O.#.#.#.#.@.#.#.@.#.+.#.@.#.@...#.#.#.#.@.#.@.#.O.O.#.#.@.O.#.#.@.@.@.#.#.@.O.@.$.#.#.#.#.#.#.@.#.+.#.",
"$.#.#.#.O.#.#.#.#.#.#.@.#.#.+.@.#...@.@.+.#.#.#...#.#.#.#.#.| #.#.#.#.#.#.#.#.#.O.@.@.@.@.#.#.@.$.@.#.#.@.@.#.$.O.@.#.@.| #...#.",
"#.#.#.#.$.#.#.#.#.#.#.+.| ..#.#.#.#.@.@.#.....#.#.#.| ....#.#...#.O.O.#.#.O.#.#.$.@.#.@.#.O.$.O.O.#.#.@.@.@.@.@.#.#.O.#.#.#...#.",
"#.#.#.$.#.+.#.#.@.o.#.@.#.#...#.$.@.$.@.#.O.$.T #.+.#.#.+...| #.#.@.O.#.#.$.O.#.f.@.@.@.f.T $.M.@.@.T f.$.T @.@.@.#.#.#.#.| #.#.",
"#.#.#.#.#.#.#.#.#.#.#.@.#.#.#.#.R 6.T $.O.@.@.$...#.#.#.O...#...O.+.O.O.O.#.#.O.R 3.$.@.$.$.R T #.@.f.R M.T T @.@.@.O.#...#.o.o.",
"#.#.#.#.#.#.#.#.#.#.5.@.#.#.#.#.$.R @.@.@.#.@.T { @.#.#...O.#.#.+...O.+.+.#.@.@.@.R 6.6.T T M.$.$.T M.$.6.T $.6.#.O.@.O.@...#...",
"#.#.#.#.#.#.#.#.#.5.@.@.@.@.#.#.6.T $.#.@.#.6.R { O.#.#.........| +.@.| ..#.@.@.@.@.@.M.T M.T @.R $.R 6.@.R @.6.@.@.#.@.@.@.o.#.",
"#.#.#.#.#.#.#.#.5.5.@.@...O.@.#.T M.6.6.@.@.5.5.o.....3.3.X.X.o.o.#.......o.o.o.3.o...o.#.@.@.@.#.5.....#...@.#.#.@.@.O.#.@.#.@.",
"#.#.*.#.*.#.#.#.@.@.5.#.@.O.@.@.f.T @.@.3.@.@.@.3.3.3.2.3.3.3.3.3.3.8.o.o.3.5.3.o.3.{ ..#.@.T @.#.#.#.o.#.....@.@.@.#.O.@.@.@.@.",
"| #.#.+.#.#.#.#...3.@.#.#.O.@.#.R $.R 3.5.4.G U U I P P U U G P P U P I J U U G [ X...[ #.#.@.@...#.| o...........@.@.@.@.@.@...",
"#.*.%.#.#.#.#.o.@.....@.#.O.#.#.5.@.6.3.3.R 0 w 5 7 5 5 9 q > , > : 5 9 w * w < m  .3.o.R 5.@.T { o.....| ..o.o.@.@.O.@.@.@.@.@.",
"#.| #.#.#.#.| o.o.{ { o.+...#.#.5.3.3.3.3.U - X X O X X O O O O X . O + O X X $ M X.3.3.X.3.3.3.X.o.o.{ ......@.@.@.O.@.@.@...@.",
"#.+.#.#.#.#.| 5.5.o.o.5...[ X.3.3.4.4.2.2.L ; X O O O O O o o o O O O O $ X O $ d / 2.2. .2.3.3.[  .3.3...o.o.@.T { @.@.@.@.@.@.",
"#.#.*.+.#...#.o.o.o.o.o.J n n n m M M m V q O O o O o o o o o o o o O O O O O O 8 f V C V M M m n C  .3.o...@.$.@.O...@.@.@.@.@.",
"+.+.#.#.#...#.o.{ 3.3...n * % $ & X + O & O . o O O . . o O O o o o . X X X X X O O & & & $ # # # 9 / 3.o...@.T @.@.@.@.@.O.@...",
"#.#.#.#.O.@.#.#.3.3.3.3.M # X X . . . . . X X X . . . . . o o o . . X . . .   o . . X O . . X X X w U 2.2.3.@...@.@.@...@.$.R $.",
"+.#.+.#.#.#.@.5.5.3.4.U M & X . . + o o . O , , ; ; ; ; o . . ; 8 - , , - = @ , = X o . . o X . O 5 L I I 3.3...O.@.@.@.3.T $.T ",
"#.#.#.#.@.@.5.5.3.m k q * X X . . o o . . , W ^ ^ &.7.( > . O ) 0.8.*.*.&.X.=.^ p O . . X . X O X + q q k I 3.X.........@.@.T T ",
"#.#.#.#.@.3.3.3.R k $ X X X X o . X X X . t u.A.E.5X6X}.p O ; 0.6X4X5X@X@X/.W.d.Q = . . O X . . . . X X : H X.o.....o...@.@.@.M.",
"@.#.@...@.5.5.3.4.k $ X X O X . . X X X X t ,.S.W.5X9X{.p . ; a.9X7X7X2X+XU.J.u.D = X . o o . . . X . X - P 2.3.3.5.@.4.@.@.3.@.",
"O.#.@.5.3.3.R U P q O . ; t t 0 y k h h a v u.S.A.Z.T.r.9 . = / s.u.I.%X%Xc.x.z.' j j a a a t t 0 > O . = f Z G R 4.4.@.3.@.....",
"{ ..3.5.6.4.k * 9 + . O l *.>.r.B.S.S.S.B.S.H.H.,.l 0 0 $ . X : 0 0 ' x.x.x.c.%XK.k.C.V.J.J.p.r.*.W , . . + ; 9 L 4.3.5.@.R 4.@.",
"..#.5.5.5.4.w # O . . $ S A.H.^.,X1X1X1X<X[.I.I.*.- . X X X . . . # E h.l.x.#X&X%X&X>X2X+X2X+XJ.A.=.1 . . . . & L 3.4.3.3.....@.",
"..| 5.o.o./ 9 X . O $ - E C.K.P.&X&X:X:X1X[.F.D.>.1 O X $ $ # $ # 3 ` h.l.c.#X#X#X$X*X&X#X%XU.z.k.' t O X . . ; K 2.[ 2.5.o.o...",
"#.#.X.F n M : . . t x x -.K.v.].$X].].-X1XL.Y G G A B C G I J D D _ j.L.x.n.#X.X.X.X.X#X#X#X#X#X#Xk.D x l O . o u V n R 3.3.....",
"5.3.I 0 $ & X . O W p.<.K.%X#X.X=X=X].-X[.g.2 # t *.T.R.}.|. X_././.(.;X'.#X$Xm.n.b..X.X.X$X#X#X;X;Xu.u.8.t o   . + * C  .....R ",
"w.5.[ 5 . . . . O ^ W.G.P.&X$XOXOXOX].].-Xg.3 X < w.}.|.7X9X0X8X7X8X8X<X%X&X$Xm.b..Xb..X.X.X.X.X&X%Xz.S.i.t o . . . X m ..o.o...",
"w.w.4.5 . .   . O ^ W.G.P.%X=XOXOXOXOX=X-Xz.e % y X.p.d.Q.{. X).).^.).I.K.P.$X#X.XOXXX.X.X.X.X.X#X%Xk.J.r.6 . o .   X n 2.3.3...",
"5.w. .5 . . . . O W J.G.P.#X-XOXoXoXOXOX].L.] Y Q x k M n B A n n B A x v g.$X$X$XOX.XXX.XXX.X=X&X#Xz.H.u.8   o . . X V 2.5.o...",
"3.3.1.w X . .   O ! H.G.P.#X$XOXoXoXOXOX3X].L.S.-.1 X X X X X X X X # # 3 ` $X$X=X=X.X.XXXXX.X.X$X%Xz.J.i.>   o . . X m 3.3.5.o.",
"3.5.R w . .     o W J.H.+X%X$X.XoXOXOXOX-X].L.F.-.: . X . X . . X X X X # ` %X&X$X$XOX.X.X=X=X#X&X%Xz.J.r.r     o . X V 3. .o...",
"3.w.4.w         o N %.%.C.%X`.n.$X=XOX=X-X$XL.L.j.z 2 t $ . X 5 0 y a h z ;.].-X$X$X$X=X$X=X$Xn.'.L.] } ! ,   o   o X C 2.o.o.o.",
"3.3.I w     o o o ; > > } U.K.v.&X=X=X=X$X&X].:XU.<.>.} < X O ! r.>.V.H.C.P.&X:X&X].&X&X&X$X'.c.x.<.h , , o   o     X V 3.X.o.o.",
"3.5. .4   . o o . . . X S H.U.Y.*X*X3X3X3X:X:X>X;XI.K.t.y X % X.^.H.(.>X*X:X:X&X*X:X3X:X:X;X[.K.I.-.- .     o o     O m 3.3...5.",
"3.5. .4   o   o . . o $ H A.^.^.(.;X,X:X<X:X;X;X;XL.K.;.g # * | F.z.P.$X&X:X*X'.&X<X,X;X(.,X(.S.J.*.> . o o o o o   O V 3.3.5.R ",
"5.w.4.4 . . o   o 6 N N S H Q [ } | | | ] ;.I.'.Y.G.x.<._ v D g.K.z.c.v.`.`.'.Y.D.+.| } } } } Q W S f f u @   o . . # m ..3.R 6.",
"5.w.4.w . . o   . V 0.7.b $ X & % % % & # z j.Y.I.z.G.G.D.D.V.H.F.z.z.x.z.F.F.I._ 3 % % $ $ $ O O 6 ( 0.1.4     . . X m 3.3.M.T ",
"5.5.R w O o     o K a.y.b . . . X X X X X 2 <.U./.H.H.H././.)./.I.I.U.K.I.I.^.I.J X . . X .   o . ; ( a.q.r     . . # m 4.5.6.@.",
"5.5.R q = O .   O V 1.1.b & $ , < 3 * * : j *.B.Z.u.u.u.p.Z.Z.N.Z.Z.Z.Z.N.B.B.t.G : * : - - ; @ $ 9 ! q.) @     X & * m 5.5.5.@.",
"5.5.@.M w 5 + . . ; r u f Z W Q  .....X.X.T z z k k z z k k M l l k l l l z l z S X.X.X.&.&.( W Z Z p t q O . O 4 5 9 J 5.5.5.5.",
"5.5.3.F k 0 ; .       O N 9.9.d.E.!.!.!._.8.: X X X O X X X X # X X X # X X X # B E.~.W.d.d.d.i.9.! , . . . . X 7 u l T 5.5.5.5.",
"5.5.3.G n y ; X o     o V 0.0.d.}.!.!.|.|.9.* . X X X X X X X X X X X X . X X X Z Q.~.~.Q.@XE.0.9.! ; .   . . O 7 M m  .3.5.5.5.",
"@.5.3.R F l > = ; .   . u ! ! ^ 9.8.8.8.9.[ y w q i y 0 y h k 0 q i i y y t 9 > x &.&.7.7.7.&.! ! f O . . O & 4 i F I  .5.@.6.@.",
"5.6.w.#.[ G i 9 6 +   . @ , = 8 t > : 8 5 i ! X.8.t.a.r.r.p.p.p.t.p.i.i.u.*.&.^ N , ; 5 > 8 8 ; @ , o o X 5 6 t C !  .3.3.@.@.5.",
"6.e.e.w.X.I B l d &   . o o   . . .     . 5 7.i.d.}.}.|.~.~._.~._._.|._.~.d.i.i.N o       . .     o o . O t p i C ~ 3.3.5.@.#.#.",
"6.6.w.w.o.J A n V 4 . o       o .     o   8 2.0.0.d.Q.}.W.E.T.E.E.T.Q.Q.Q.i.9.0.Z O . .     .   . . . . X u l l C ~ w.w.5.@.6.6.",
"$.6.e.w...Y G F C p ; ; o   o     o o .   @ f V N P ! ! ! H W P ! H ! K W Z V V r O . . . o o     o & ; 6 b B B F R 3.3.5.5.5.6.",
"$.$.5.6.#.T J J I B M q ; . O .   o o   o o o o o O O O + O + O O + O O O + O + . o     o + .   . @ 6 p b C G I J [ o.3.o.#.5.5.",
"$.$.$.$.#.| .... .G b t & X . .         o       o   o   . . . . . .     . .     . . .   . .     . O q d C I X.X.| ..o.3.#.5.#.$.",
"$.e.$.$.$.$.$.5.5. .F l < $ O O + o o o o o   o . .   o o o o   . . .   . . .   + + + + + + . X O * i V P 2.8.o.o.o.w.5.5.5.5.5.",
"6.6.6.$.$.$.$.6.w.#.[ F M 9 6 6 6 7 8 6 8 8 o o o o .   o o   . o       . . . . + 7 7 7 7 7 7 5 5 q F U [ 3.5.5.5.5.w.5.5.5.5.6.",
":.6.6.$.6.f.$.$.e.5.#.[ G n l k M p p d u 6 + . . . . . .     .       . . . . X 4 s d d M M d d M n I 2.3.5.5.5.5.5.5.5.5.6.5.6.",
"e.6.M.$.$.$.$.$.6.>.#...T A A n n l i p p q X . . . . . . . . .       . . . . X 4 i d d M n m n m H o.3.3.5.6.5.5.6.5.5.6.5.6.5.",
"$.f.M.$.f.$.f.$.$.$.$.$.@.Y G Y G A B n B i : + O & & + + + + + + + + 4 * & # * w M m n n F J J J R 5.5.5.5.6.5.5.5.6.5.5.5.5.6.",
"N.$.6.f.f.$.$.f.$.w.w.e.$.@.@.O...[ Y ~ ~ G h 9 q i s u s u s 7 s r s s k q q 0 n U G Y Y T 3.3...3.5.5.5.5.5.5.#.6.5.5.6.6.6.#.",
"e.M.6.:.f.$.f.$.N.$.e.e.6.6.6.e.:.#.......[ B l M m m M M M M M d M M b n l l n F R ......o.5.5.5.5.6.6.#.w.5.5.6.5.5.6.6.5.@.6.",
"e.e.e.f.M.M.f.6.6.6.6.6.6.N.N.N.N.$.>.#.#.| G A m F m m m F F F m m m n n A A A T ..#.6.$.5.5.6.@.5.5.#.#.$.5.$.6.6.6.#.#.6.6.6.",
"e.e.N.f.6.M.e.:.6.6.6.6.6.e.N.N.N.$.$.>.w.$.[ [ R R R T T R [ [ R [ [ R T T T T 5.6.6.e.6.e.e.6.6.@.6.#.$.$.$.$.5.6.6.$.6.6.@.6.",
"w.:.$.e.M.M.f.:.N.6.6.M.N.e.N.N.$.$.$.:.N.t.$.#.6.6.5.5.5.6.5.5.5.w.w.6.5.5.6.6.w.N.N.6.6.N.N.6.6.M.6.6.6.$.$.$.$.6.6.5.6.6.6.M.",
"N.e.e.:.:.f.f.:.$.e.N.M.N.N.N.6.:.:.w.e.e.e.6.w.e.e.w.e.w.6.6.$.5.6.5.6.6.e.e.6.6.N.N.N.6.M.6.$.$.@.M.M.6.$.$.$.6.M.6.$.6.6.M.6.",
":.:.:.N.f.f.:.f.f.e.N.N.N.6.N.N.e.e.f.N.6.6.6.e.N.N.e.e.6.6.$.$.$.#.6.6.6.6.w.6.6.M.e.6.6.$.$.$.$.$.$.6.N.$.$.$.6.6.M.6.6.6.6.f.",
":.e.N.:.f.:.f.:.:.:.M.6.6.M.6.6.e.e.w.e.6.6.e.e.e.e.e.e.$.:.:.:.$.$.N.N.M.6.N.6.$.6.M.6.$.$.6.M.6.6.$.M.6.$.M.6.M.$.f.6.$.$.$.$.",
"e.e.:.N.:.f.:.:.:.:.N.M.6.6.6.6.e.e.e.e.6.e.e.e.e.N.e.e.:.$.e.f.N.N.N.N.N.M.6.$.$.M.6.M.M.6.6.M.M.M.$.$.6.M.e.M.6.6.$.$.6.M.$.$."
};
