/* XPM */
static char *oie_8171718uVJP9MFH1667924271[] = {
/* columns rows colors chars-per-pixel */
"64 64 202 2 ",
"   c #2E211B",
".  c #33231D",
"X  c #38251F",
"o  c #352621",
"O  c #3A2721",
"+  c #362923",
"@  c #3C2A23",
"#  c #3D2E29",
"$  c #3E302A",
"%  c #442D26",
"&  c #482F27",
"*  c #452F28",
"=  c #492F28",
"-  c #473027",
";  c #4B3126",
":  c #45312A",
">  c #4C332A",
",  c #563627",
"<  c #52362C",
"1  c #56382E",
"2  c #5A3A2F",
"3  c #4D3A31",
"4  c #553C31",
"5  c #5D3B31",
"6  c #623E2E",
"7  c #683F2E",
"8  c #623E33",
"9  c #5C4136",
"0  c #5E4439",
"q  c #66402E",
"w  c #6A422E",
"e  c #73462E",
"r  c #7C4A2F",
"t  c #654134",
"y  c #6B4433",
"u  c #6D4935",
"i  c #61463B",
"p  c #6B4738",
"a  c #63493D",
"s  c #6B4C3C",
"d  c #714733",
"f  c #744934",
"g  c #7B4D35",
"h  c #734B39",
"j  c #7C4E38",
"k  c #7C5536",
"l  c #73503C",
"z  c #7A5639",
"x  c #7D543B",
"c  c #6B4D41",
"v  c #735243",
"b  c #834E2F",
"n  c #814F35",
"m  c #845236",
"M  c #8B5536",
"N  c #845238",
"B  c #8B5638",
"V  c #815B3A",
"C  c #8D5939",
"Z  c #945A35",
"A  c #9B5D37",
"S  c #905739",
"D  c #945A39",
"F  c #9B5D3A",
"G  c #A05F3B",
"H  c #85603C",
"J  c #8A653C",
"K  c #8A683F",
"L  c #94643B",
"P  c #9C633B",
"I  c #9B6B3B",
"U  c #A56337",
"Y  c #A4623B",
"T  c #AC653B",
"R  c #A66C3D",
"E  c #AD6A3D",
"W  c #B1673D",
"Q  c #B46A3D",
"!  c #BB6D3E",
"~  c #A7753E",
"^  c #BC703F",
"/  c #C16F3E",
"(  c #C3713F",
")  c #C9723F",
"_  c #8D6940",
"`  c #987343",
"'  c #AC6F40",
"]  c #BA6F40",
"[  c #AB7442",
"{  c #A87B46",
"}  c #B57341",
"|  c #B47B44",
" . c #BA7C44",
".. c #C47341",
"X. c #CC7541",
"o. c #C47B44",
"O. c #CE7B43",
"+. c #D17741",
"@. c #D47A43",
"#. c #D97D44",
"$. c #AF843F",
"%. c #AB8946",
"&. c #AA834D",
"*. c #B88648",
"=. c #BD8A4B",
"-. c #B79645",
";. c #BC9257",
":. c #CA8046",
">. c #C58649",
",. c #C78749",
"<. c #CA8C4B",
"1. c #D48347",
"2. c #DB8346",
"3. c #DC8649",
"4. c #D68C4C",
"5. c #DD8A4B",
"6. c #C5984C",
"7. c #D4914E",
"8. c #DD914E",
"9. c #C58F51",
"0. c #C69955",
"q. c #C79A56",
"w. c #C89D59",
"e. c #DE9551",
"r. c #D39954",
"t. c #D49A54",
"y. c #DE9B55",
"u. c #DE9F58",
"i. c #E08D4C",
"p. c #E0914F",
"a. c #E19551",
"s. c #E19B55",
"d. c #E29F58",
"f. c #CBB04D",
"g. c #CDA25C",
"h. c #CDAD5A",
"j. c #D7A55B",
"k. c #D2A55C",
"l. c #DFA45B",
"z. c #D5B559",
"x. c #E1A45B",
"c. c #E2AA5E",
"v. c #C49D63",
"b. c #C9A766",
"n. c #CDAA6C",
"m. c #DAAC62",
"M. c #D5AC69",
"N. c #D6B367",
"B. c #DCB364",
"V. c #CEAF76",
"C. c #D9B976",
"Z. c #E3AE62",
"A. c #E4B365",
"S. c #E6B867",
"D. c #E5B668",
"F. c #E6BB6A",
"G. c #E8BD6B",
"H. c #E4BB72",
"J. c #E1BC7B",
"K. c #DECA58",
"L. c #DAC469",
"P. c #DBC478",
"I. c #E5C66A",
"U. c #E9C26D",
"Y. c #E5D466",
"T. c #EAC574",
"R. c #E7C37B",
"E. c #E6C978",
"W. c #EBD778",
"Q. c #D7BB86",
"!. c #DEC888",
"~. c #DBC595",
"^. c #DFC897",
"/. c #E3C283",
"(. c #E9CB82",
"). c #E7CA8B",
"_. c #E9D88A",
"`. c #E1C692",
"'. c #E4CC93",
"]. c #EBD493",
"[. c #E9D49C",
"{. c #EADB9B",
"}. c #EDE188",
"|. c #DCCCA4",
" X c #E3CEA4",
".X c #E3CFAC",
"XX c #E5D3A3",
"oX c #E9D9A4",
"OX c #E4D3AB",
"+X c #EADCAC",
"@X c #E3D5B5",
"#X c #E6D9B4",
"$X c #E9DCB3",
"%X c #E5D7BA",
"&X c #E6D9BA",
"*X c #E9DDBD",
"=X c #ECE1A4",
"-X c #ECE1AC",
";X c #ECE1B4",
":X c #EDE2BB",
">X c #E9DFC2",
",X c #ECE2C3",
/* pixels */
"% % % = = & & & % % = ; = & & & > = = > = < = = = = = > < , , 6 6 , , , > > ; ; ; > ; ; : > > % % > & = = = * % = % % % & % % % ",
"; = % = = ; & & % % = ; = = & = = = > = = = ; = ; > = , , 2 7 7 7 6 , , > > ; ; ; > > > ; > ; > ; ; > ; = = * * = = & = & % % & ",
"> ; = = ; ; = = & & = = ; ; = = > = = > = = > = > = , 1 7 e r b r 7 6 , < < ; ; ; > > > > > > ; > = > > > > = > = = = = = = = = ",
"> ; = = ; > ; = & & = = > ; = = = = > = = > > > > , 2 8 e n Z Z b 7 , , , 1 > > > > > > > ; : > > > > > > > > > > > > > < < > > ",
"; = = > = > > = > = > = > ; > = = > > > > & > > > 1 2 7 r Z U U M 6 6 1 1 , < > 3 > > > > < > > > = > > 3 > > < 3 > > > = > < < ",
"= ; = = ; > > = > = > > > < ; > > ; > > > > 4 < < 1 2 7 b Z U G M d 8 5 2 2 1 1 < > > > < > < > > > > > > 3 3 > > > 3 > > > > 3 ",
"> = = = > > < < > > > > > > < > > > > 1 4 1 1 1 5 2 5 6 7 M A A n d 8 5 5 2 1 1 1 > < > > > > > > > ; > > > 3 < 3 > < > > > > < ",
"< > > < , < < > < = > < < < < < > 1 2 2 5 4 2 1 1 1 1 5 7 b n M g 7 6 5 5 2 1 1 1 1 < < > < > > > > > > = > > > < 3 3 > 3 3 > > ",
"= < < < < < < < < = > < 1 1 1 < 1 1 2 5 5 5 5 5 2 2 2 2 q y d d y 8 8 2 2 8 2 2 2 1 1 > > < > > > < > > > > > > > 3 < 3 > 3 > > ",
"< < < < < < > < < > < < 1 2 2 2 2 2 7 t t y t 8 q 9 q q t t y w 8 8 6 6 2 6 q 2 5 2 1 1 < < < < 3 < > > > > > > > < 1 3 < > > > ",
"1 1 1 < 1 < < < < < < 1 1 < < 2 6 8 y p h f f y q q q q q q q q 7 7 6 6 w 6 7 7 q 2 2 2 < < 1 < < < < < 1 < > > > > > > > > > > ",
"< 1 1 1 < < 1 2 2 2 1 1 2 2 2 5 8 y f k N C N g u w w y t t y w w w w w d w y 7 q q t 5 5 5 5 < < 2 1 > < < 3 < < < < > > > > > ",
"< 1 1 1 1 < 2 4 5 5 2 2 2 5 5 8 y g m D F A S n g d f p y p y p w d f g n n g d u w y 8 8 6 5 2 < 2 < < > 1 > < < < < < < > > < ",
"1 2 2 2 1 2 2 1 1 2 2 2 5 8 t y f M F Y W T F C k g g f f f f f f g n Z A Z M g g f p 7 6 8 5 5 2 < < < < < < < < < > < > 3 > > ",
"1 5 2 2 2 4 1 2 1 2 5 5 6 t y f g D Y Q Q Q T A C m g g g g g g g m S Y T T U Z N g f p 8 8 8 6 1 1 2 3 < > < > < < > < < > 1 > ",
"1 1 1 1 2 2 1 1 1 5 5 5 6 y d g M U Q ! ! ! Q Y F B M m m V N B S A G Q / / Q U S m g f d 8 2 2 2 2 1 1 < > < < < < < < < 3 > 1 ",
"< 1 < 1 2 1 1 1 5 5 8 2 w y g N F E ^ ( ) ( ! E Y P P F L L L I Y T / ) ) ) ) Q G S m j f 8 8 2 2 8 2 2 1 1 < < < > < 1 > > < 1 ",
"2 1 1 1 2 2 1 2 2 2 2 t y f N D Y W ( X.X.) ( ^ ^ ~ [ ' R [ [ | ^ ( ) ) #.#.) ) E F S n f y 6 2 q 2 6 2 1 , 1 < > > > > 1 1 1 > ",
"5 1 2 2 2 2 2 1 2 8 t y f x S G W ! X.@.#.@.....( o.( $. .*.=.,.,.,.#.#.#.#.#.) Q T D M g d y 7 6 6 5 2 1 1 1 1 < > > < < < > 1 ",
"2 2 2 2 6 2 2 2 2 8 y d j N F E / X.@.3.5.2.2.@.@.:.<.,.,.<.,.<.<.o.) #.#.#.#.) / W G B n g d y t 5 5 2 1 1 1 1 < > < < < > 1 > ",
"2 2 8 2 2 8 2 2 8 t y h N B Y Q ( @.5.8.8.8.5.2.3.4.7.7.7.7.4.2.1.1.2.2.#.) #.) X.Q T D B N g d y q 6 6 5 1 2 1 1 1 1 > > < < < ",
"2 2 6 2 2 2 8 6 8 t u j N F T ! ..@.5.y.l.y.e.8.8.e.y.t.e.4.3.i.3.3.2.2.#.#.#.#.X./ W G D B n g y y w 6 8 6 2 1 1 2 < 1 < < > 9 ",
"5 2 6 2 2 2 6 6 t y h N D Y Q ) O.5.8.l.c.x.x.y.e.s.y.e.8.5.2.2.3.3.5.3.#.#.#.#.+.) / Q G D B N f d w q 6 6 5 2 1 1 2 1 2 < < 2 ",
"5 5 2 2 8 2 5 6 t p j B F W ( ..1.5.y.x.A.A.x.x.s.a.p.8.5.3.2.#.5.3.i.i.i.i.#.#.@.@.+.) } Y S N k f y y 7 8 2 2 2 5 9 2 2 < < < ",
"2 2 1 2 2 8 8 t p h N D Y Q ..@.1.e.l.Z.A.Z.Z.d.a.p.i.i.i.) i.i.i.3.3.5.2.3.3.3.2.#.#.) ) ^ Y D m m f d y y 7 6 2 2 2 2 1 < > > ",
"2 2 1 5 5 5 6 8 h j C F E ..X.#.3.y.l.A.A.Z.d.s.a.i.i.i.i.i.i.i.i.5.5.5.4.3.5.i.i.i.2.) O...Q T F S m g f w w 8 q 2 5 2 1 < > 1 ",
"5 2 1 5 5 8 8 7 h N D Y Q ..@.@.2.e.l.Z.A.Z.x.d.a.i.i.#.i.8.p.p.e.5.5.5.5.8.y.y.a.i.i.#.#.@...] Q Y A M m f e 7 q 8 2 2 1 1 1 1 ",
"5 5 4 5 6 6 8 d f m F ' ] ..@.2.3.e.l.Z.A.A.A.Z.d.p.i.i.p.a.s.x.x.e.i.e.8.y.l.x.x.s.i.i.2.#.@.....! W F M g f w t 6 8 2 1 1 1 1 ",
"5 5 5 5 5 8 8 h g B G W ..+.#.2.4.s.Z.Z.A.A.D.D.Z.d.a.p.s.x.x.c.l.y.a.p.y.l.c.c.Z.x.d.a.i.i.#.@.+.X./ W G C g d q 6 6 8 4 2 2 1 ",
"8 5 5 5 8 8 8 d n S U Q ..@.2.5.e.x.m.D.D.D.S.G.S.Z.x.x.x.c.A.c.l.l.x.x.l.x.Z.A.A.A.Z.d.i.i.#.@.+.+.X.) W F M f w 6 7 6 2 5 1 1 ",
"8 8 5 8 i p 8 h N D T ! X.@.2.5.u.Z.Z.D.D.D.G.G.G.S.A.Z.S.S.G.G.S.Z.x.x.c.Z.S.S.S.S.A.c.s.p.i.#.@.@.+.) ! E D g y t w 8 5 5 2 2 ",
"5 5 0 8 8 8 h j B F T ! @.2.3.e.x.Z.Z.D.D.D.S.G.G.G.G.G.G.G.G.U.U.I.S.S.A.A.I.S.G.S.S.A.Z.d.i.5.#.+.X.) / E F m f w 8 8 5 5 2 1 ",
"5 9 8 8 8 p 7 j B F ' ..@.2.3.e.l.A.A.A.A.S.G.F.G.U.G.T.I.T.T.U.U.U.U.G.U.U.T.G.G.F.F.S.A.Z.x.i.2.@.+.) / W G N 7 7 8 8 2 2 1 1 ",
"8 5 5 5 8 p j j N D Y ..@.2.5.e.l.Z.D.D.S.S.G.F.G.G.U.U.I.T.U.U.S.U.U.T.E.(.(.T.G.F.D.S.S.A.x.a.i.#.@.+...Q F n n 7 7 8 8 8 5 2 ",
"5 5 5 5 8 t p h n B G ] o.#.3.e.u.c.D.D.S.F.H.R.R.(.T.U.U.F.F.F.U.U.T.(.].[.[.).J.F.A.A.A.Z.Z.x.a.5.#.@...W F N f 7 7 8 6 8 2 2 ",
"5 5 5 5 8 t p p g N F ' ..@.2.4.e.x.A.A.B.N.C.!.'.'.)./.C.F.B.A.S.U.W.].-X;X$X[./.J.D.A.A.A.Z.x.s.5.#.+...T S N g 7 7 7 6 5 5 2 ",
"5 5 8 8 t t t p h N S T ..X.#.3.e.s.Z.m.z.N.P.). XOX X'.!.C.H.H.H.(.].-X:X:X:X[./.H.A.D.A.A.A.x.s.3.#.X.] G B n f d 7 6 8 8 1 2 ",
"9 5 5 8 t 8 t p 7 N B G W ..@.2.1.7.t.k.B.L.E._.oX$X@X.XXX^.!././.].-X:X,X,X#X X/.H.A.A.A.A.Z.x.s.3.@...W D N g d 7 7 6 8 2 6 1 ",
"8 5 5 8 8 8 8 p 7 j N S Y ] / X.o.:.<.j.z.I.W.}.oX*X%X%X@X@XOX^.XX+X*X,X>X@X XQ.C.M.Z.A.A.Z.c.s.p.2.X.! Y S n g d 7 6 6 6 5 1 1 ",
"8 8 5 5 8 8 p 8 8 f v N D G T W Q ^ ,.7.c.U.W.}.=X;X>X>X,X,X&X@X#X*X>X>X@X|.Q.Q.b.g.k.m.Z.Z.x.e.3.+.] [ F m g 7 7 8 8 6 8 6 2 1 ",
"8 8 8 8 8 5 8 5 8 d h N B S D F U U } <.k.B.U.W.{.-X:X,X,X,X&X@X%X*X*X#XoX'.P.N.b.0.w.g.m.c.s.5.X...W D B n n 7 8 8 8 8 8 5 2 2 ",
"8 8 8 8 8 8 8 8 8 8 d f N B S B Z Z T  .9.g.N.U.!.|.;X,X,X,X&X@X%X*X*X+X{.(.L.B.m.w.w.g.r.s.4.O.] T S N j h h 8 8 8 8 8 8 8 5 5 ",
"8 8 8 8 8 5 8 0 8 p y d j N m N m M F R | =.q.M.P.~.|.#X%X@X#X@X$X*X$X+X].E.I.A.m.h.0.;.9.,.o.! Y D S n g 7 7 8 8 8 8 8 5 5 5 5 ",
"8 8 8 8 8 8 8 8 8 8 7 p f g n N m m M S R | ,.q.n.P.^.OX@X;X-X;X;X:X$X[.(.F.m.m.j.k.0.=.*.} Q Y D N n n 7 h 8 8 8 8 8 8 8 8 5 5 ",
"8 8 8 8 8 8 8 8 q 8 8 y y d g g k g k k L R *.6.h.P._.{.-X-X-X;X;X*X.X`.J.M.k.g.w.0.=.| R Y Y S N n g 7 h 8 8 8 5 5 5 8 5 8 5 8 ",
"8 8 p 8 8 8 8 5 8 8 8 t t y y p d u u u k I %.-.K.Y.W.}.{.{.oX$X+X.X|.Q.V.g.w.;.=. .~ Y F D M m n c j 7 8 8 8 8 5 5 5 5 5 8 5 5 ",
"8 8 8 8 8 8 8 8 8 8 8 y 8 8 t t t t 0 u h J $.$.f.K.Y.Y.E.P.!.^.`.Q.Q.V.v.9.*.{ ~ I Z m m m m g 7 c 7 7 8 5 5 1 5 5 5 5 5 5 5 5 ",
"8 8 p 8 8 8 8 0 8 8 8 8 8 8 5 5 9 i 0 s s k J %.-.f.z.z.h.h.n.n.n.n.v.;.*.[ ' C m g e d f g y y 7 8 p 7 8 5 1 1 5 5 5 1 5 1 5 1 ",
"8 8 8 8 t 8 8 8 8 8 8 8 8 5 5 5 0 c c c v v V V ` %.%.-.%.%.&.&.&.&.` I L M k r 7 8 6 6 d 7 7 8 7 8 8 8 8 2 2 2 2 1 2 2 2 2 2 2 ",
"p 8 p 8 t 8 8 t 8 8 8 8 5 2 2 5 0 i c c v v v l x V _ _ K _ H x z z k k p w 6 , , , > , 8 8 8 8 8 p 8 8 2 8 8 2 2 1 1 2 2 1 2 5 ",
"p 8 8 8 p t p t p t 8 8 1 1 = 8 i c c c v v s s p u p s s u i t 9 2 2 2 1 > & & & % & = > < 1 1 8 8 8 8 8 8 8 8 2 2 2 2 1 1 2 5 ",
"8 8 8 p t t 8 8 8 t 8 8 = = 1 8 i c c c c c s a i 9 9 5 2 9 2 1 > ; ; ; ; % % % % % % & * = = > 2 8 8 8 8 8 2 1 2 2 5 5 5 1 1 5 ",
"8 t t p y 8 8 8 8 8 8 1 = = 5 5 0 c c i c i 0 c 9 4 > > > > ; ; - @ @ @ @ @ % % % = : ; : : : = < 2 8 8 8 8 6 5 2 2 5 2 5 2 2 2 ",
"8 t t p y y y t 8 8 5 1 = = 3 5 0 0 0 i 0 0 c 0 9 < : % % @ @ X X . X X O O O * = > 3 > : > % % = < 2 8 8 8 5 8 5 5 8 8 5 2 1 2 ",
"t t p p 8 t 8 8 8 8 8 1 = = 3 5 0 0 0 a i a c 0 9 : # O O X . . . + + + @ @ # * : > > > > : = @ @ = 1 5 5 5 5 5 8 2 8 5 5 2 2 5 ",
"t t 8 8 8 t 8 8 8 8 5 5 3 = = 1 4 0 0 0 i c c 4 3 # o X X .     . . + # + o # : > 3 : 3 = = % O @ % < 2 5 5 5 5 8 8 8 8 5 5 5 5 ",
"8 8 8 8 8 8 8 5 8 8 8 5 = = = = 4 4 i a c 0 0 3 > @ X X         + + + + . + $ : : 3 : 3 = : # O O = = 2 5 5 5 5 5 5 8 5 5 5 5 5 ",
"8 p 8 8 8 i 8 8 8 8 8 5 < = = = 4 4 0 i 0 9 3 * # o X X .   X       . . . + # : : : : : = * @ o O = < 2 5 5 5 5 5 8 8 5 5 5 5 5 ",
"8 p p 8 a 8 8 8 8 8 5 5 1 = = = = 3 4 4 3 3 # + . o X X X O O X . . . . . + + $ # # * = : # o o O = < 5 5 5 5 5 5 5 8 5 5 5 5 5 ",
"8 8 8 p p 8 8 8 8 5 8 8 5 1 = # # * : = : # + + o o O % & & % % @ + X . . + + + # # * # # # o O = < 5 5 5 5 5 5 5 8 8 5 5 8 8 5 ",
"p 8 p 8 8 8 8 8 5 8 8 8 8 5 1 = * @ @ @ @ O @ O O @ = = < < > > ; - % @ + + X . X O # # O o O * = 1 5 5 5 5 5 5 8 5 5 5 8 8 5 5 ",
"8 p 8 8 8 8 8 8 8 8 p 8 8 5 5 = = * @ * % * * = = = > 1 4 5 2 2 4 1 < ; : @ @ . O O O O o # * = 1 5 5 5 5 5 5 5 5 8 5 5 5 8 8 5 ",
"p 8 p 8 8 8 8 8 8 0 8 8 8 8 5 5 > > > = > > > 3 1 4 5 5 5 5 5 8 8 5 2 1 > ; : $ O O O O # = = 5 5 5 1 5 5 5 5 5 5 5 5 5 8 5 2 2 ",
"8 p p 8 p 8 8 8 8 8 8 8 8 8 5 5 5 1 1 1 1 5 5 5 5 8 5 8 5 8 8 t 8 8 t 2 9 9 < ; = # # * = = 1 5 5 5 1 1 5 5 5 5 5 5 5 5 5 5 5 2 "
};
