/* XPM */
static char *oie_2QPZ1mEky7Vq1667923303[] = {
/* columns rows colors chars-per-pixel */
"64 64 46 1 ",
"  c #40251F",
". c #41251F",
"X c #412520",
"o c #402520",
"O c #412620",
"+ c #422520",
"@ c #422620",
"# c #42251F",
"$ c #42261F",
"% c #42271F",
"& c #422621",
"* c #422820",
"= c #412720",
"- c #422720",
"; c #432620",
": c #432720",
"> c #432621",
", c #432721",
"< c #442721",
"1 c #422721",
"2 c #442621",
"3 c #442722",
"4 c #432821",
"5 c #432820",
"6 c #452722",
"7 c #442822",
"8 c #452822",
"9 c #442720",
"0 c #452821",
"q c #442620",
"w c #442821",
"e c #462822",
"r c #452721",
"t c #472823",
"y c #462823",
"u c #472923",
"i c #482923",
"p c #462922",
"a c #452823",
"s c #402720",
"d c #3F2720",
"f c #432722",
"g c #482A24",
"h c #3C261F",
"j c #492A24",
"k c white",
/* pixels */
"   ........XXXooo..................XXXXXXOOOOOOOOOXXXXXX+XXXXXOO",
"   ......XXXXXXXX................XXXXXX@@OOOOOOOOOXXXX+++++XOOOO",
"  ......XXXXXXX........#.....XXXXXX@@@@@@OOOOOOOOO++++++@OOOOO@@",
"  ......XXXXXXX........#.....XXXXXX@@@@@@OOOOOOOOO++++++@OOOOO@@",
"......XXXXXXXX.......#####.XXXXXX@@@@@@@@OOOOOOO@@@+++@@@OOO@@@@",
".....XXX@OOOOO......#$$$%%OOOXXX@@@@@@@@@OOOOOO@@@&&&&&&@@@@@@@@",
".....XXX@OOOOO......#$$$%%OOOXXX@@@@@@@@@OOOOOO@@@&&&&&&@@@@@@@@",
"...XXX@@@@@OOO....###$$%***==X@@@@@@@@@@@@OOO@@@&&&&&&&&@@@@@@@@",
"..XXX@@@@@@OOO...###+++@--*--@@@@OOOOO@@@@@@@@@&&&&&&&@@@@@@@@;;",
"..XXX@@@@@@OOO...###+++@--*--@@@@OOOOO@@@@@@@@@&&&&&&&@@@@@@@@;;",
"XXX@@@@@@@@@OO.###++++++--***-@@OOOOOOO@@@@@@&&&&&&&&@@@@@@@;;;;",
"XX@@@@@@@@@@@@###+++@@@@@@---@@@@OO@@@@@@&&&&&&&&&&@@@@@;;;;;;::",
"XX@@@@@@@@@@@@###+++@@@@@@---@@@@OO@@@@@@&&&&&&&&&&@@@@@;;;;;;::",
"@@@@@@@@@@@@@@++++@@@@@@@@@@@@@@@@@@@@@&&&&&&>>>&&&@@@;;;;;;::::",
"@@@@@@@@@@@@+++++@@@@@@@@@@@@@@@@@@@@@&&&>>>>>>>&&&@@;;;::::::,,",
"@@@@@@@@@@@@+++++@@@@@@@@@@@@@@@@@@@@@&&&>>>>>>>&&&@@;;;::::::,,",
"@@@@@@@@@@@++++@@@@@@@@@@@@@@@@@@@@@&&&>>>>>>>>>>>>>>;::::::<<,,",
"@@@@@@@@@@@@++@@@@@@@@@@@@@@@@@@111111>>>>>>>>>>>>>;;:::<<<<<<,,",
"@@@@@@@@@@@@++@@@@@@@@@@@@@@@@@@111111>>>>>>>>>>>>>;;:::<<<<<<,,",
"@@@@@@@@@@@@@@@@@@@@@@@@@@@@@@111111,,>>>>>>>>>>>>>:::<<<<<<<<,,",
"@@@@@&@@@@@;;;@@@@@@@@@;@@@@@111111,>>>>>>>>>>>,,,,,,<<<<<<<,,,,",
"@@@@@&@@@@@;;;@@@@@@@@@;@@@@@111111,>>>>>>>>>>>,,,,,,<<<<<<<,,,,",
"@@@&&&&&@;;;;;@@@@@@@;;;;;@111111,,>>>>>>>>>>,,,,,,<<<<<<<<,,,,<",
"@@&&&,>>;;;;;;@@@@@@;;;,,,111,,,,,,>>>222222,,,<<<<<<<<<<<<<,,<<",
"@@&&&,>>;;;;;;@@@@@@;;;,,,111,,,,,,>>>222222,,,<<<<<<<<<<<<<,,<<",
"&&&,,,,,;;;;;;@@@@;;;,,,,,,,,,,,,,,>222222<<<<<<<<<<<<<<<<<<<<<3",
"11,44,::;@@@@@@@@;;;,,,,,,,,,,,,,>>222<<<<<<<<<<<<<<<<<<<<<33333",
"11,44,::;@@@@@@@@;;;,,,,,,,,,,,,,>>222<<<<<<<<<<<<<<<<<<<<<33333",
"444445::@@@@@@@;;;,,,,,,,,,,,,,,>222<<<<<<<<<<<<<<<<<<<<<3333336",
"44444555:55:::;;;,,,,,,,,,,,,<22222<<<<<<<<<<<<<<<<<<<<<37788888",
"44444555:55:::;;;,,,,,,,,,,,,<22222<<<<<<<<<<<<<<<<<<<<<37788888",
"444445555555::;,,,,,,,,,,,,<<<222<<<<<<<<<<<<<<<<<<<<<3378888888",
",,,,,::::::999,,,<,,,,,,,,<<<<<<<<<<666<<<<<<<<0<<<<<77786666688",
",,,,,::::::999,,,<,,,,,,,,<<<<<<<<<<666<<<<<<<<0<<<<<77786666688",
",,,,,:::;qqq<<<<<<<<,,,,<<<<<<<<<<<<66666<<<<00000w337886666666e",
";;;;;qqqqqq<<<<<<<,,,,,<<<<<<<<<<<<<<<<<<<<<000877777866666eeeee",
";;;;;qqqqqq<<<<<<<,,,,,<<<<<<<<<<<<<<<<<<<<<000877777866666eeeee",
";;;qqqqqq<<<<<<<<<,,,<<<<<<<<<666<<<<<<<<<000888777886666eeeeeee",
";;qqqq;;<<<<<<<<<<<<<<<www<<<6666<<<<<000000888866666666eeeeeeee",
";;qqqq;;<<<<<<<<<<<<<<<www<<<6666<<<<<000000888866666666eeeeeeee",
"99qqq;,,<<<<<<<<<<<<<wwwww<66666666r000000888886666666eeeeeeeeet",
"999qq,,,<<<<<<<<<<<<wwwwww666666666000000888888666666eeeeeeyyyyt",
"999qq,,,<<<<<<<<<<<<wwwwww666666666000000888888666666eeeeeeyyyyt",
"999<<<<<<<<<<<<<<<wwwwww886666666880000888888886666eeeeeeyyyyytt",
"99<<<<<<<<<<<<<rrwww888866666666888888888e88888866eeeeeeyttttttt",
"99<<<<<<<<<<<<<rrwww888866666666888888888e88888866eeeeeeyttttttt",
"<<<<<<<<<<<<<<r000888886666666ee888888888eeee888eeeeeeyytttttttu",
"<<<<<<<<<<<rrr000866666666666eee888888888eeeeeeeeeeeeyyyyttuuuuu",
"<<<<<<<<<<<rrr000866666666666eee888888888eeeeeeeeeeeeyyyyttuuuuu",
"<<<<<<<<<<<r000886666666666eeeee8888888888eeeeeeeeeyyyyyyuuuuuuu",
"<<<<<<<<<<<w00888666666666eeeeeeeeeeeee88eeeeeeeeettttttuuuuuuuu",
"<<<<<<<<<<<w00888666666666eeeeeeeeeeeee88eeeeeeeeettttttuuuuuuuu",
"<<<<<<<<<www888886666666eeeeeeeeeeeeeeeeeeeeeeeettttttuuuuuuuuui",
"<<<<<rrrwww888866666666eeeyyyeeeeeeeeepppeeetttttttttuiiiuuuuuuu",
"<<<<<rrrwww888866666666eeeyyyeeeeeeeeepppeeetttttttttuiiiuuuuuuu",
"<<<rrr00088888666633366eeeyaa8eeeeeepppppetttttttttuuiiiiiiuuuuu",
"<<rrrr000888888331ssd11<333ff788eeeepppeeettttttttuuuiiiiuuuuugg",
"<<rrrr000888888331ssd11<333ff788eeeepppeeettttttttuuuiiiiuuuuugg",
"rrrrrr000888888771ddhss,,,,11,88eeepppeeeettttttuuuuuiiiiuuugggg",
"rr0000008888888888,,1778888888eeeeepppeeettttttuuuuuuiiigggggggg",
"rr0000008888888888,,1778888888eeeeepppeeettttttuuuuuuiiigggggggg",
"000000888888888eeeeeeyyyyyeeeeeeeeeeppettttttiiiuuuuuigggggggggj",
"00000888888888eeeyyyyyyyeeeeepppeeetttttttttiiiiuuuuugggggggggjj",
"00000888888888eeeyyyyyyyeeeeepppeeetttttttttiiiiuuuuugggggggggjj"
};
