/* XPM */
static char *dfc6bfc5b6ab461dcb75d336c6efdcf7a4nXlY8EROxgyZvS[] = {
/* columns rows colors chars-per-pixel */
"64 64 50 1 ",
"  c #0D0E16",
". c #0C0E1D",
"X c #120F17",
"o c #120F1A",
"O c #0F1017",
"+ c #0E111D",
"@ c #131117",
"# c #14121B",
"$ c #19151E",
"% c #1B181F",
"& c #0F0F24",
"* c #0E1221",
"= c #0D1429",
"- c #141422",
"; c #1A1621",
": c #161925",
"> c #1C1A24",
", c #14162A",
"< c #191729",
"1 c #161A2A",
"2 c #1B1C2B",
"3 c #171C31",
"4 c #1B1E32",
"5 c #211D26",
"6 c #221E2A",
"7 c #1F2127",
"8 c #1F212C",
"9 c #1D2235",
"0 c #1E253D",
"q c #1F283D",
"w c #212027",
"e c #24212C",
"r c #28232C",
"t c #242333",
"y c #292532",
"u c #2A2935",
"i c #21263D",
"p c #28253A",
"a c #23283D",
"s c #292A3E",
"d c #1F2641",
"f c #1D2843",
"g c #212641",
"h c #242944",
"j c #292C45",
"k c #252C4A",
"l c #282B48",
"z c #312E46",
"x c #2B3048",
"c c #262E50",
/* pixels */
"igiagaggiggagiadqgddggggfgggfjjxkhxkxxxkkkkhkhkghhhgfgfgfghfgfdg",
"gaigigiagaagigdqgdgggfgfadggfjkhhhfxkfkkjkhkkxkgkggkhggghgdhfgdd",
"gagagagaagaadaadgggdadfggghgfjhjhkffkkkfkkkhkkfkgkkffddffdfddddd",
"agagiaiiiiigag00qdddddadhfgghhqhkhxkkkxxkkkkhhhggggfhdfdfddddddd",
"iia000t00qti00q00q000id0qqqggghhhhfkkkfxkhkkhhlhkgggggd0dddddddd",
"giiiqq0iqq00qii0000aq0qiqq0agaahfkkhkkkkklhhhlggggggd0dddddddddd",
"iigiqqq00q0qi0qqqaqa0dd0qqqgggghkkfkkkkkkkhhhggggggddd00dd4ddddd",
"iii00i0qi9qiii0q0i00ii00q0dggghgfhkkkcckkkkhgaadaagq0000dddddddd",
"iipg0i00q99q99999q99a9qtiiiiaaipigjsllllllgpdii0d0dddd3d4ddddd3d",
"iggpiiiit111::1118:1182922224244224244pjjg441323390dddddddd3dddd",
"iiggpppp8:O+++#OO+#++#-------#----#-&-pjgp,=&..&&p00ddddddddd3dd",
"iipgggppe2OOOOOOO#O@#OO+@@+###oo#-#@o$tzzi&&.o..&40ddfdddddddddd",
"iiggppgpe7@@OOOO@@#@@o@@+O#-$--;-;>>;>szzp&ooo#o<tppiddddddddddd",
"iipggg947>#@##$$#$%#$$-$$$>>566525552eyppp<<$$;o#;22633444dddddd",
"gpgggp1-##$$%%>>5555>>>>>>>errr6ee555e22<<45665##oooo&o&3dddddd3",
"gglpgg1*##$%>>5>55555552eeeeyrytr6eee522<4rr665####&ooo&,ddddddd",
"gggggi,&X$$$$555555555556trrtyyreree6666ryrur5%$#X$@%+%+*830ff00",
"gglgjp<oX$$$$5rrr5$5555566rttreterw66666uuurr%%$#$$$+%%%**=0qq0f",
"gggggi,&X$$$$5rrr5555555666eeee6w565666tyuurw%$@@$$$%%%:**=0d0f0",
"ggglgi<o$$$$555r555$;5556666666655556666yuur5%@@@@@$%%%:+*=000f0",
"fhhhgi;oX$$$$5>5$5$555;55666665555>556ttyyue$$@@@$$$$$%$+=3qfdd0",
"hhhhli:oX$$$$$$$$$;$$$;;<55665<5>5>>56yyeye7$$@@$@@$$$:#+=agq0dd",
"hhhhli1#o@#$$$$$;$$o$$;;;<55<5<5>5>>6yutee8>@@@$@$@$$$#$+1qqd0d0",
"hhhhli1##o######$$o$o$$$;-;;;<55>>>;>yut2>:#@@@$$@$@#$@>89agqdd0",
"ffhhga2<-###@###$X$Xoo###$&#$o<$;;;;5tt5;-##XX#@####ooo6qiaddq0d",
"hhhggi921--#+%##oo$Xoooo#oo#oooo#$;>566>;####o@@@o#o#&o6tiiggdd0",
"pgggi0041**-+++%o$ooooooooooo####$>566>;$####@@X#Xo#;-&4iaighddg",
"ggii004421--++++oooooo&ooooo####$55><5;;#@o#Xoo#ooo&-<<4aighfddd",
"iiii0444918==+++o$&ooooo<$$o<$;;;5555;;##XXo$ooo#oo-<<39gggghfgd",
"gigii0448818:::=$$$$-oo-<;;<555;5>;5;;;#oXXooo;o#$;;-<tppgghffgd",
"iigigii4998=11115<5;;#-;;5<6665;$$<#$$###X#$;;;;;<<<<<<<4ggghddd",
"0iiiigii99387118555$$##;;555655;$$$$$##oX#$$;;;;$5666<,o4gggdgdd",
"iiigagiiaqq891122>-#oo$;5;;5555%$$$###oX@$$$>$$;;2665>,*3aiqaddq",
"iiiagiiiqiia81::>-#$;;->;<>-$;$$$#$#######:$%:#;;>66e>$.1pia0ddd",
"diigiiqiiia9=+OO@##-;;><55>>;$$#$###o#####$-$$$;>66652-#1pi0addd",
"iiiii0qtiiqq:   OO-;;;5<<66>;$$$#@@#oo#o@@$#@#-5666652-,tiiaddg0",
"ii0aqaqqttte-   O#->;>>>565;#$##@@@o##XX@##$##;2666666-,tiaddddd",
"ii009qta9,-#Oo O#$->5;;>5<5;$$@$$@@@XooXo@#$$;5666666<--2iiagggg",
"iqa0qqqa2#OOo#$;;;>;;;>;;5>;$$$$@@ooX#XXo@@$;>55666t62-&2aaqaggf",
"iqqqqqtt>@@#$>>2>>>;;;;;55;#@$@@@$oo#XXX@@+#>>5et66r66-o1iqaqdda",
"9i0qqq98>#@@$5252>;;-;;5;;;###@$$@$@XXXXXX#$>>266e6e66&-2aiaggdg",
"ii0qq91:$$%%>556655>;;<$$;$$$#$$$$$$$@$XXXo#;>56e6t666$2tpagdgdg",
"ii0qq9=+#$%55555662>-$$$$$$#@$$$%%$$$$@#Xo#$>5666t6te2-4aaaghggg",
"iii0qq=+#$%55eee6665;<$$$$##@$$%%%%$$$$@#Xo$>6666ttte6<4aaggfggg",
"ii00q97+@#$566e66e6655<;$####$%$%%%$5$$XXXo$>266eete45&9sjgggggg",
"iiqqq98=#$%56eete66t6665>$#$$$%>$5%%%$$X@Xo#>566ette6<-4ssghhhgh",
"0iqqqq9=&#$566eeeerr6666;##$$%>$$%5%%5##oXo$>2666pt66&-9agghhhhg",
"giqqqq91o#5566eeee6r6666>$$-;;;;5$%55$$#XX#$>5666rr64-*9sjkfkhhh",
"iidd0q91*#%77eeee5ee265e2;;;,>;>$>>%%>:#XXX@%555rrr6<<&4plhkggkk",
"ggidfqq=+:#22>w2ee5e65ee5>;>:1,>:%7:>>>@$oo$5rr5rrr6<,,dllkcckgk",
"iggdfq03.+#:2>>ew5wwe2eee>>1222::7>7>:,$o$$@%56666r<<3<dllkckkck",
"ggidqq03*+*:%2>7w7w75e5e5>:29991::>>:>>;$5$$$re6rrr<<44gllkcckkk",
"gigddd998:*:#:777777wwww5>1:qa998::2<>;1<6<&-6rtr<6<<44hlkkcckkh",
"gdgdddf99:1**+#>777erew72>*88a9889::<-<1e66<-;;;<;-<434plkkccckk",
"dddfff0091:*+++777ryrw77>%119aqa9:::<<<4444<-o..ooo<<44glhkccckk",
"0dddff099891:*::777rww%7>7:1qsaiq9:224364944,&o&&&&<4ppllkkckkkl",
"dddfff00331313=+$#:$:%%%>229hllga84994444d44<&,,<<344ppllhkckckk",
"dddfffq09938817:--#:#%>:729ijzllhait994i4dpg4<<34494ppgglhkcckkk",
"ddddfddqq09991=71>137191294ihjllhiiq9900dppd4444444pglllllkkkkkh",
"dqdddddaq909938113131819999iijlgaqtq0990dgg4d4444440plpllhhllkkh",
"dd0d0dqd0000933333333343900dhhggdddd00ddgdddd4p4d0dglgllglklklhk",
"gqg0dq00q000003fd303d0409fhdghhhgddgghgggggdgddddgggglglllghhhhd",
"ddq000qd000000fd0000d000ddfhghlgggddkdgdgggggggdgggggggkllllkhhk",
"adg0dq000q0d000f0d000dddgfhhlgggggkddhddgggggdggggglkgkgkghkhkhd"
};
