/* XPM */
static char *opentrapdoor1667923088[] = {
/* columns rows colors chars-per-pixel */
"61 64 142 2 ",
"   c #00000D",
".  c #0A040F",
"X  c #0C0610",
"o  c #000916",
"O  c #0F0811",
"+  c #000D19",
"@  c #120711",
"#  c #140A12",
"$  c #1B0D14",
"%  c #00121F",
"&  c #0F161F",
"*  c #13141D",
"=  c #141E1C",
"-  c #210E15",
";  c #280F15",
":  c #251116",
">  c #2B1217",
",  c #221319",
"<  c #2D1519",
"1  c #331417",
"2  c #341518",
"3  c #38171A",
"4  c #34191B",
"5  c #3C1C1D",
"6  c #21221D",
"7  c #001520",
"8  c #001A26",
"9  c #021F2A",
"0  c #241F24",
"q  c #2E1E22",
"w  c #301F23",
"e  c #3F1F21",
"r  c #04222C",
"t  c #0E262E",
"y  c #14242C",
"u  c #19262D",
"i  c #1B282F",
"p  c #012631",
"a  c #0D2730",
"s  c #052933",
"d  c #0C2B34",
"f  c #112D35",
"g  c #1B2A31",
"h  c #142F38",
"j  c #0D313C",
"k  c #143037",
"l  c #193136",
"z  c #163139",
"x  c #1C343B",
"c  c #212420",
"v  c #2A2125",
"b  c #272329",
"n  c #2F2529",
"m  c #222D2E",
"M  c #2A2B2F",
"N  c #322124",
"B  c #3D2727",
"V  c #392629",
"C  c #332B2E",
"Z  c #3E2B2C",
"A  c #222E33",
"S  c #2D2D30",
"D  c #3B2F31",
"F  c #233034",
"G  c #2B3034",
"H  c #22363B",
"J  c #25383B",
"K  c #2A3A3D",
"L  c #3C3030",
"P  c #343E3F",
"I  c #411E1F",
"U  c #43201F",
"Y  c #411F20",
"T  c #442222",
"R  c #4A2626",
"E  c #4B2827",
"W  c #412D2E",
"Q  c #4D2928",
"!  c #522D2C",
"~  c #54302E",
"^  c #59322E",
"/  c #452F30",
"(  c #453232",
")  c #4C3532",
"_  c #5E3631",
"`  c #533A36",
"'  c #5D3A35",
"]  c #573D38",
"[  c #593E38",
"{  c #603730",
"}  c #643B34",
"|  c #6A3E36",
" . c #633E38",
".. c #36403F",
"X. c #6B4037",
"o. c #6E4239",
"O. c #71443A",
"+. c #1D3740",
"@. c #1E3941",
"#. c #233B42",
"$. c #2E3D41",
"%. c #333E41",
"&. c #294047",
"*. c #27434B",
"=. c #2C434A",
"-. c #364042",
";. c #3B4243",
":. c #32474E",
">. c #32484E",
",. c #3C484A",
"<. c #364C52",
"1. c #3C4E54",
"2. c #434645",
"3. c #474847",
"4. c #484847",
"5. c #434649",
"6. c #464A4B",
"7. c #4C4A4A",
"8. c #524F4E",
"9. c #52504F",
"0. c #4C4E51",
"q. c #554F50",
"w. c #405157",
"e. c #4E5254",
"r. c #555353",
"t. c #5A5555",
"y. c #5D5857",
"u. c #5B5758",
"i. c #555B5E",
"p. c #5B5A5A",
"a. c #655E5E",
"s. c #65605F",
"d. c #525C61",
"f. c #5C5F61",
"g. c #5D6263",
"h. c #5E6568",
"j. c #646364",
"k. c #6B6565",
"l. c #6A6B6D",
"z. c #736B6B",
"x. c #6E6F71",
"c. c #777171",
/* pixels */
"H H #.A c c m #.=.:.#.#.:.=.+.p h #.%.:.=.#.#.<.<.<.*.#.J H x z z x H #.H H x h k k d p s x x x x *.<.<.*.+.r = 6 i H H H ",
"6.6.4.%.g h P 0.j.j.u.0.f.g.*.j #.6.f.j.p.0.u.l.x.l.p.6.4.2.;.%.-.5.4.4.4.6.;.%.K K x d z -.;...,.g.x.x.d.#.p r y P 4.6.,.",
"7.7.7.%.h h %.t.k.k.t.q.s.s.&.f K 7.s.k.a.t.a.k.k.j.p.7.7.4.2.;.;.3.6.6.7.8.5.%.-...J d z -.5.;.5.a.z.z.p.#.p p f &.7.7.2.",
"%.;.;.K h h %.q.t.q.6.2.q.0.#.d H %.0.r.t.8.4.5.6.5.,.;.;...P ..;.;.;.;.P %.;.%.....H d d K ;.-.,.9.a.y.6.x s p d H ;.;.%.",
"J J H h s f %.4.7.4.;...2.;.x s d x $.%.%.%.K x x x x H x x H x x x x H H x H H H x k d f J ......3.4.7.;.k r p s h x H H ",
"a d s s s f J ;.......P -.K l s a d d f h f d d d s d s d d d d d d d s f a a d d d s r d H ..-.......;.K h s p s s d d g ",
"p s d f l x H H J H H H H x g g i i A A A A A i i i i i i i m A A i i i i i y y y u y y y l H H H H x H l s s d h l l s s ",
"p s x %.;.-.x d s d d d d h S W W / ) ] [ ] ) W W W W W W W ) ` ` / W W Z Z V 4 N B B N b y d d d d d d s s s x %.;.%.h d ",
"p f K 2.6.;.l s y i g F A G ( _ { } | O.O.O.| _ _ { _ _ { } | O.| } ^ { ^ ~ E U E ^ ^ E B M A A A A A i y s d H ;.7.6.H f ",
"p h ;.7.2.$.f t M / ` ] ] [  .X.| | o.O.O.O.o.| | | | | | | | O.o.o.X.X.} ~ ! Q ^ } | } }  .] ] [ [ ` ( C y d H ;.7.6.x d ",
"p h ;.7.2.K d f L ' X.O.O.O.O.O.O.O.O.O.O.O.O.O.O.O.O.O.O.O.O.O.O.o.o.X.} ' ^ ' } | O.O.O.O.O.O.O.O.o.| ( g d x ;.7.2.H f ",
"p h ;.7.2.J d g ( X.O.O.O.O.o.O.O.O.o.O.O.o.O.O.O.O.O.O.O.O.| O.O.o.| _ } } o.X.o.O.O.O.O.O.O.O.O.O.o.o.` l d H ;.7.3.x a ",
"p l 6.u.7.$.k f D { { { } { { { { { } | } { { { } } |  .} { _ { ' ^ ~ E ! ^ } { { { { } | { { { { { { { ( i d H ;.4.;.x f ",
"p #.d.k.u.;.z t v I T Y U T U U Y T ! ! ! Y Y Y Q _ _ _ ! Y Y Y U T I 5 U U U U I I E ! ! R I I U U U U N y d H P ;.%.h a ",
"p #.h.c.a.5.l t 0 5 5 5 3 3 3 5 e Y E ! R 5 1 2 Y ! ! ! R e 5 e 5 3 3 5 5 5 5 5 I I I R R I 5 5 5 I I I q y s H -.;.%.z a ",
"p #.h.c.s.5.x y n E E T 5 3 T E E E E ! Q R e e T ! ! ! ! E R R U 3 5 R E E E R Q E R I I T E E E E E E V u d H ;.4.;.l f ",
"p +.d.k.t.;.z a C ~ ~ ! T I T Q ! ! ~ ~ ~ ! T 5 Y ! ~ ~ ~ ~ ! ! R 3 B Q ~ ~ ~ ! ! E T Y T Q ! ^ ! ^ ~ ^ Z i d x ;.7.3.x f ",
"p z 0.r.6.$.h f C ~ ^ ! Q E T T R ! ~ ! ~ Q T 5 B ! ~ ~ ! ~ ! ! T 5 5 Q ~ ~ ~ ~ E T T E Q ! ~ ! ! ! ^ ! Z i d H ..7.6.x d ",
"p x 6.r.7.$.h t b B R E E R 5 4 e E Q Q E R 5 3 e T R R Q E Q R Y 4 5 R E Q Q Q T 4 4 T E Q E E Q Q E R n y d H ;.7.3.H f ",
"p +.d.k.t.;.l 9 & : 2 5 Y 5 < : 4 5 5 e 5 5 5 2 2 2 w e e e e e 4 > < 5 I 5 5 5 4 > < 5 I I I I 5 5 4 : * r d H ;.7.3.x f ",
"p +.f.k.p.,.l 9 + . $ > 1 1 > : > 1 1 3 3 2 2 2 > - > 1 2 2 2 2 > - : 2 2 2 2 1 > : > < 3 3 1 1 3 > - . . 8 d H ;.7.3.H y ",
"p +.6.u.7.-.h 9 +   . @ : 1 1 < : ; > 1 1 2 2 1 > : : 1 2 2 2 2 > : : 1 3 1 > > : > > 2 1 1 1 3 ; $ @     8 d H ;.6.6.x d ",
"p h ;.8.2.K f 9 +     . $ > 1 < : - ; > > 2 1 > : $ : > 2 1 < > : - : > 1 > : - : < 3 > > > > > - X     + 8 d H ;.4.;.x d ",
"p h ;.7.;.J h 9 +       . @ $ : : $ # # $ : > : # @ # : : : $ # # $ : : - # # $ - : > : - $ @ X X       o 8 d H ..;...l d ",
"p h %.7.;.K f 9 +         . . $ $ $ # X O $ $ $ O . O $ , $ # . X $ $ $ # . O $ $ $ $ $ # .             o 8 d J ....K f d ",
"p f %.;...K f 9 +           . . $ $ $ O O O # $ O   O $ $ $ O . . $ $ O X # $ $ $ O . . .               o 8 a H ....K f f ",
"s d J %.-.K f 9 +               X $ $ # X   X $ O . X # $ # X . . # O   . O $ $ O                       o 8 d H P ..P z a ",
"p d J P -.K f 9 +                 . X X .     O       . X . .   . . .     . . . .                       o 8 d H ;.4.;.l f ",
"p d K %.;.K f 9 +                                         .                                             o 8 d J ;.6.5.x a ",
"p h %.2.;.K f 9 %                                                                                       o 8 d H ;.7.6.H f ",
"r h ;.7.2.K d 9 +                                                                                       o 8 d J ;.7.5.x d ",
"p h ,.7.2.K f 9 +                                                                                       o 8 d J ..7.6.x y ",
"p z ;.7.2.J f r o                                                                                       o 8 s J ;.7.5.x f ",
"p z ;.7.2.K f 8 +                                                                                       o 8 d J ;.7.6.H a ",
"p z ;.8.2.J d r +                                                                                       o 8 d H ;.7.2.x f ",
"p z ;.7.2.K k 8 +                                                                                       + 8 d J ;.7.2.H a ",
"p l ;.7.2.K f r +                                                                                       + 8 d J %.7.5.H f ",
"p z ;.8.2.J d r +                                                                                       o 8 s J ;.7.5.x f ",
"p z ;.7.2.K d r +                                                                                       o 8 s J ;.7.5.H a ",
"p d %.5.3...l r %                                                                                       o 8 d J ;.7.2.H f ",
"p d J 2.7.2.l 9 +                                                                                       o 8 d H ;.7.5.x d ",
"p d H ;.7.2.x 9 +                                                                                       o 8 d J P 2.-.z d ",
"p d J 2.7.,.x 9 +                                                                                       o 8 d H P ( &.z f ",
"p h %.6.4.-.x 9 o                                                                                       o 8 d H %.4.;.l d ",
"p h ;.6.2.K f 9 +                                                                                       o 8 s J ;.4.5.x f ",
"p h %.;.$.h s 9 %                                                                                       o 8 d J ;.7.6.H y ",
"p f K K z s p 9 +                                                                                       o 8 d H ;.7.3.x d ",
"p d K J d p p 9 +                                                                                       o 8 d H ;.7.2.x f ",
"p d K K f s p 9 +                                                                                       o 8 d J ..7.2.x d ",
"p f $.%.J f s 9 +                                                                                       o 8 d J ..2.-.l f ",
"p h %.7.%.K j 9 +                                                                                       o 8 d H ......k d ",
"p x %.8.2.K f 9 +                                                                                       o 8 d J ....K k a ",
"p l 2.7.;.K h 8 +                                                                                       o % d H ....K f a ",
"p h %.;.P x s 9 +                                                                                       o r d J ....K k f ",
"p f K P h s s 9 +                                                                                       o % d J ....K k a ",
"p s h h a p p 9 % + + o + + + + + + % + + + + + + + + + o + + + + + + + + + + + + + + + + + + + o o + + % r s l H H l d a ",
"p p s s p p p p r r r 8 r 9 9 r 9 r 9 9 9 9 r 9 9 r 9 9 9 9 9 9 9 9 r 9 9 r 9 9 9 9 9 9 r 9 9 9 8 r r r r p p d d d d p d ",
"h h x z s d #.*.#.x &.&.#.x x l z k f k f k k k z x l z h h h x x x x x x x x x l z z l x z h h k k d k f k f s p d k z H ",
"K $.;.$.z +.1.g.e.6.i.g.e.6.5.;.%.K K K J K J K -.;.-.K J K %.5.2.5.5.5.5.5.5.,.;.K P ;.;.$.J J J K K J J K x d s l K -.;.",
"%.;.6.-.z z 1.f.r.r.k.z.p.7.7.3.;.J J J J J J K $.;.%.J H K %.4.7.7.7.7.7.7.7.7.2.;.;.4.,.%.J J J J K ;.-...x d d H ;.3.2.",
"....;.P z d +.#.-.5.r.t.0.2.;.%.H f d d d d d d h z h j d f H %.2.%.2.;.;.;.2.;.;.P ..;.$.l d d d d x ;.;.J d p d H ..;.-.",
"K J J l d p p p z K %.%.$.J J H j p p p p p p p p p p p p p f H K K H J J J J J J J K J l d p p p p k K &.z p p d l J J H ",
"f d f s p p p p s d h h f d d d s p p p p p p p p p p p p p s d d d d d d d d d j d d d d p p p p p s f f s p p p s d f a ",
"p p p p p p p p p p r p p p p p p p p p p p p p p p p p p p p p p p p p p p p p p p p p p p p p p p p p p p p p p p p s r "
};
