/* XPM */
static char *_9c3525a18c24883fc4dfadf40f41829hT9UbROzPbRy9tOC[] = {
/* columns rows colors chars-per-pixel */
"64 64 195 2 ",
"   c #060000",
".  c #0A0303",
"X  c #07070A",
"o  c #0C0609",
"O  c #0E090B",
"+  c #150202",
"@  c #190101",
"#  c #120D0D",
"$  c #190A0A",
"%  c #0E0B13",
"&  c #0D0E1B",
"*  c #120D14",
"=  c #110E18",
"-  c #0E111D",
";  c #151212",
":  c #1A1515",
">  c #13121C",
",  c #1A151D",
"<  c #171919",
"1  c #1C1B1B",
"2  c #350404",
"3  c #2F1313",
"4  c #201F1F",
"5  c #0F1220",
"6  c #141523",
"7  c #1B1721",
"8  c #161825",
"9  c #1C1B25",
"0  c #151629",
"q  c #161A2A",
"w  c #1A1C2B",
"e  c #161B31",
"r  c #1B1E32",
"t  c #211D25",
"y  c #221E2A",
"u  c #1E2323",
"i  c #1F212C",
"p  c #1D2135",
"a  c #1E243C",
"s  c #1E263D",
"d  c #1E243F",
"f  c #1E253F",
"g  c #1F283D",
"h  c #242323",
"j  c #262525",
"k  c #2A2525",
"l  c #282727",
"z  c #23212C",
"x  c #242A2B",
"c  c #282829",
"v  c #292929",
"b  c #2D2D2D",
"n  c gray18",
"m  c #2F2F2F",
"M  c #3A2626",
"N  c #322C2C",
"B  c #222335",
"V  c #20263D",
"C  c #21253E",
"Z  c #22273F",
"A  c #25253F",
"S  c #24283D",
"D  c #28293F",
"F  c #2C3132",
"G  c #2B3739",
"H  c #2B393B",
"J  c gray19",
"K  c #3B3535",
"L  c #343C3D",
"P  c #4D0101",
"I  c #540202",
"U  c #4C1819",
"Y  c #581E1E",
"T  c #660909",
"R  c #651D1D",
"E  c #6B1E1E",
"W  c #771818",
"Q  c #442425",
"!  c #4D2525",
"~  c #422828",
"^  c #522020",
"/  c #5A2222",
"(  c #662121",
")  c #7D2828",
"_  c #1D2340",
"`  c #1F2640",
"'  c #1F2642",
"]  c #1D2843",
"[  c #202740",
"{  c #222642",
"}  c #222842",
"|  c #222945",
" . c #232945",
".. c #242944",
"X. c #242B46",
"o. c #252C47",
"O. c #282C46",
"+. c #262D48",
"@. c #252C4B",
"#. c #262E50",
"$. c #3C4242",
"%. c #344648",
"&. c #3D5356",
"*. c #3E575A",
"=. c #4F4949",
"-. c #425D5F",
";. c #5B5656",
":. c #684E4F",
">. c #645F5F",
",. c #4A6467",
"<. c #5B6B6D",
"1. c #4E7074",
"2. c #567173",
"3. c #5B7A7E",
"4. c #6A6464",
"5. c #736465",
"6. c #970505",
"7. c #841717",
"8. c #861A1A",
"9. c #961414",
"0. c #951616",
"q. c #A60707",
"w. c #B70C0C",
"e. c #BC0D0D",
"r. c #A40F10",
"t. c #AD1111",
"y. c #8E2C2D",
"u. c #972727",
"i. c #AB2424",
"p. c #B82B2B",
"a. c #C40C0C",
"s. c #CC0A0A",
"d. c #D80404",
"f. c #D50B0B",
"g. c #E60506",
"h. c #F30202",
"j. c #FE0202",
"k. c #FC0708",
"l. c #F20B0B",
"z. c #FD0B0B",
"x. c #F71414",
"c. c #FC1414",
"v. c #FC1C1C",
"b. c #FF1F20",
"n. c #CD2D2D",
"m. c #C73839",
"M. c #E82B2B",
"N. c #FF2424",
"B. c #F72929",
"V. c #EB2F31",
"C. c #E73C3E",
"Z. c #FF3D3D",
"A. c #E13E40",
"S. c #9A686A",
"D. c #A87B7F",
"F. c #BB797C",
"G. c #CF4C4C",
"H. c #FA4040",
"J. c #F65E5E",
"K. c #FF5B5B",
"L. c #CD6A6D",
"P. c #E86E6E",
"I. c #FF6D6D",
"U. c #FD7C7C",
"Y. c #597C81",
"T. c #C77E81",
"R. c #62898D",
"E. c #658F93",
"W. c #6F9296",
"Q. c #71979B",
"!. c #729B9F",
"~. c #7B9EA2",
"^. c #77A7AC",
"/. c #7EA6AB",
"(. c #7BADB2",
"). c #90999A",
"_. c #BB8488",
"`. c #AC969A",
"'. c #88A4A8",
"]. c #91A4A9",
"[. c #8EBABF",
"{. c #9AB4B9",
"}. c #A3A0A0",
"|. c #A1BABF",
" X c #BEBBBB",
".X c #FD8383",
"XX c #FE9B9B",
"oX c #FFADAD",
"OX c #89BBC0",
"+X c #A4BFC4",
"@X c #8BC2C7",
"#X c #93C5CA",
"$X c #95CCD1",
"%X c #C6C4C4",
"&X c #D0CECE",
/* pixels */
"Z Z Z Z Z Z Z Z Z Z Z Z a Z V [ ` [ ` } ` ` ` } ` } } } } o...o...@.X.X.@.o.@.o.@.@.O.@...o. . . .o. . . .' ' '  .' ' ] { ' ' ' ",
"Z Z Z Z Z Z Z Z Z Z Z Z S ` g ` } [ } ` ` } } ` [ ` } } } ..o.o.X.o.X.X.o.o.o.@.@.@.@.o.@... . . . . .o. .' ] { { ]  .'  .' ' ' ",
"Z Z Z Z Z Z V S Z Z Z Z } ` ` S } ` [ ` ` [ } ` [ [ } } } }  ...X.} X.X.o.o.o.@.O.O.} @.O. .@. . . . . .' ' ' ` ' ' ' ' ' _ ' ' ",
"Z Z Z Z S } V S Z Z Z S S g a ` a ` ` a g a r > o .     .   . . . . . . . . . . o 6 p  .....}  . . . .[ { ' ' ` ' ' ' ' ' ' _ ` ",
"Z Z Z a V V g s V s V V a a g a a p p r p i 8 > . . . . .       .     . . . .   O * e Z Z Z a a [  .{ [ [ { ` ` ` ` ` ` ' ` ` ` ",
"a Z s Z a a B s s B s s a S g a p q > > - - % O .   . . .     .   .   .     .   . O = = & > > w a [ { { [ _ ` _ a ` ` _ ' ` ` _ ",
"Z a Z Z a V g g V s s V } V a p q = O .   . . . . . . . . . . + . . o o . + . . . . . . . . O > w r [ [ [ _ a _ _ ` a ` _ _ a ` ",
"Z Z Z a V a Z a V s s V Z p w 6 = o .     . . O * ; : : : : : : : : : : : : ; ; # # . . . . . o = 6 e p a a a a ` a ` _ _ _ a ` ",
"Z Z Z A Z C A B s p s s i 8 * O O . . . . . $ ; 4 4 j j l l l k v v l l k k j h 1 ; $ . . . . . . O > e p a _ a _ ` _ _ _ d d d ",
"Z Z A A Z Z A A p u 8 8 - O o . O . $ O # ; : 4 j v b b m m m J J N N F F N b v k 4 : # # # O o . . % > q p e ` ` ` ` _ _ ` d d ",
"Z A A A B { A B w > & X o . . . . ; : 4 4 4 j l v m b m m m J J J J F N F b b b v v l h 4 4 : ; o . . X & 5 e a ` _ _ _ _ f d d ",
"C C A A { A A B z < O . . . . o ; 1 h l b b F b b m m b m b b b b b b F b b J b m b b b b v h 1 # # .   X % q q r _ a _ _ f f d ",
"Z C A [ Z A A y , # .   . . ; : 4 j v b b F J b m b m b b m b J N F N F b N b J b m F b m b v j t : # . . . O - 6 p d d _ f f f ",
"a C A A { { y 6 % . . . . o : h v v b m N N b J b m b m m b m b b b b F b F m b m b m b b J m v k h : # .   . . - q d ` _ f f f ",
"A A A { [ [ 0 = o . .     # 1 j v m b m m m b b J b m b b m b m N N F N b b N m b m b m b b J m x k 1 # . .   . o w a a _ f f f ",
"Z A { { ..r 8 % o . . . . # h j m F b b m b J b b m b m m b m b F b b b N F b b m b m b J b b N J l 1 # . . . . o 8 p s ] f f f ",
"Z [ [ { { 7 = o . . . O ; : h v F b F v F F b b N F b F b N b m b m b m b m b m b m b b F b F F F x h 1 # O . . . * 6 6 ] [ a ` ",
"S } [ ....# o .   . o : 1 h j N N b J J b N b J b J b N m m m b m b m b m b m b m b m m N N J N N N k h 1 ; O . . . . O s a a ` ",
"[ } ....[ . . .   . O < h M ^ Y E E ( / ~ N v F b b b b b m m m m m b m b m b m b b b v Q Y R E E / ! M h : o .   .     Z [ ` ` ",
"} } [ .. .  .       O < 4 Y 7.t.a.a.e.0.R M v x b b J J m b b m m b m b m b m m b x l M R 0.e.a.a.t.8.U h < # .   . . . a a ` ` ",
"[ [ .. .... .     . $ 3 ! ) p.M.B.x.l.s.0.R Q M J J b b b l l j j j l v b b b J J M Q ( u.n.V.v.c.g.w.W U 3 $ .       . [ ` ` a ",
"..[ @.@....       + 2 T 0.p.P..XI.Z.c.h.d.r.7.Y M b b v j 4 1 : ; : 1 4 h v b b M R 7.i.G.P..XK.B.l.g.a.6.T 2 +     .   a ` ` ` ",
".... . ....       + P 6.f.H..XoXXXK.v.j.h.g.a.8.! b x j 1 ; O . . . O ; 4 h x b ! W e.M.J.XXoX.XZ.z.j.h.d.6.P @       .  .a ` a ",
"..........        @ I q.g.B.K.U.I.Z.c.j.j.j.f.8.! l u : # O           O # : u l ^ 0.d.x.Z.I.U.K.B.k.j.j.g.q.I @         V ` ` ` ",
" . . ......       + I 6.g.x.b.N.v.c.j.j.j.h.a.8.! k 1 # O O O O # # # O . $ < l ! 8.s.l.x.b.N.b.z.j.j.k.g.6.I @       . V a [ ` ",
"} }  . .Z .       + U y.m.M.x.k.j.j.j.h.d.e.0.( ~ k ; o : N =.>.>.;.=.N : O ; h ~ E 0.e.d.h.j.j.j.j.v.V.m.y.U +         Z ` ` a ",
"Z Z [ [ Z         $ K 5.D.L.C.x.j.j.h.d.r.W / ~ N 4 ; # v >.}. X%X X).4.k # ; 4 N ~ ^ W r.d.h.j.j.x.C.L.D.5.K #         { ` ` ` ",
"Z Z Z Z Z .       # L 3.'.`.L.A.M.V.M.p.) ~ v x b h # # v >.`.%X&X%X}.4.N # ; 4 F v v ~ ) p.M.M.B.G.L.`.].3.H ;         ' ` ` ` ",
"Z Z Z a C   .     O H 1.!.].`._.T.T.F.S.:.L x x b h ; $ : K ;.4.5.4.;.K : $ ; h F x v K :.S._.L.L._.`.].~.1.H #     . . ]  .' _ ",
"a Z C Z Z . . . . O i *.Y.Q.'.{.|.+X{.).<.$.b v v h : # O # ; : 1 : # # . # : j v v F $.<.).{.#X+X{.'.~.Y.*.i X . . . o  .] ' ` ",
"Z Z a C Z > = & X o : x %.1.E.^.@X$X#X'.2.$.v k l h 4 : # # # # # # # ; ; : 4 j l l N $.2./.@X$XOX(.E.1.%.x ; o o & 6 6 { ' ` ` ",
"Z C Z Z Z a p 7 & . . O < H ,.R.^.OX[.~.<.L j h h j h h 4 4 4 4 4 4 4 4 4 4 h j h j j O.<./.OXOX^.R.,.G 1 X . . % 7 r a ' [ ` ` ",
"Z Z Z Z V V V p 8 - X . . : H *.3.!./.W.,.F u 4 h j j x h v j j j j l l x j l j 4 u 4 F ,.W./.!.3.*.H ; o . o X 6 r V V S a ` ` ",
"V Z V Z } } V a p p > & . o % u %.1.R.3.&.x < 1 u h h v h j j j j j h h h j j h u 1 1 x &.3.R.1.%.u # o . o % % w B Z S Z s ` ` ",
"V C V Z V S V S Z a w , % X . o u %.-.*.H 1 ; ; 4 4 4 4 u 4 u u 4 4 4 u 4 u u 4 1 < ; 1 H *.-.%.u o . X O * = 5 w B V } } [ a ` ",
"C Z Z Z Z Z V g Z Z a i * X .   # < x u < # O # ; < < < < 1 < < 1 < < 1 < < < < ; # O O 1 u x 1 O . O ; , 7 6 0 r B ..V ` ` ` ` ",
"V V C Z g p B B B B B i > o o . . o . X . . . O # # # # O ; # # # ; # # # # # # # o . . . . # . o o * 7 y 9 6 0 B a Z ` } ` a ` ",
"V V V a g g S S B 7 6 > & % % % o . . .     . . O . X X O . O o O X X X O O X X . . . . .   . o % : 7 t y 9 6 6 w S Z Z a } ` } ",
"V Z V a g g B B q > & ; , , 6 = > X . .         . . . . . .   . .   . . . . . . .   . . . . . * , t y y y y 6 5 w B S g S ` } ` ",
"V B a a V S S B 7 > * > 6 7 t 9 < O . . .   .       . .       .               . .     . . o * , 9 z z z y w 6 = w S g S ` [ } ` ",
"V V a V g p p i 7 > ; , , 7 9 t , * . . . . .   .   . . . . . . . . . . O . . .   .   . o = 7 t y z z z y y 6 0 r B Z V Z ` [ a ",
"V V a V g a i > 6 7 , 7 7 y t t , o . . . . . . # # # ; ; # # ; # ; ; # # # $ # O O . . # * , t y z z z y y 6 0 B S Z [ Z } `  .",
"Z Z s s g s w & = 7 4 t t t z y , * . .     . ; : 4 4 9 h h h 4 4 4 u 4 h 4 4 4 : # . . . o # = 0 z B z y y 6 y D Z S [ [ [ } [ ",
"S Z Z a s p q - = , , t y z z y 7 , o . . . + ; 1 4 l v v m l N F m m m b b l k h 1 ; o . . . # , y y y r y 0 B D S } Z [ } } } ",
"d ` g p g p q - 6 & , t y z z y t 7 : * O . . o ; : 1 k b b N F m m J J J J b b k h 1 : # O . . $ = 7 9 y 0 0 r ...... . .` } } ",
"g a g g g p e - = , , t y z z z y y t t * o . . . $ : 1 h k k v v v v v b m m b b v l 4 # O .   . o * 7 y 0 5 r D S [ .. . .} } ",
"g g g g g g p q > , 4 t y y z B z z z y 7 ; # o . . O # : : : 1 1 1 4 h v J m m m b l 4 : O . . . o * 7 y > 6 B D D  . . . . .[ ",
"a V g g g g g q > = t y y y z z z z y y z 9 , * . . . O o . O . O . $ 1 l b b b v v k 4 : O . . . o $ 7 q 6 6 B D }  . . . . . .",
"} Z s a ] g g q - - 8 u 9 z z z y z y z y y t , * o . .   .   . o O # 1 1 h h 4 4 4 1 : # o . + o $ , y y 0 5 r { O.O.@.@.{ @.@.",
"` } [ ` a g p q - 5 > 9 w z z 9 z z y y y y y t , * # . . . . . # : 1 1 1 : ; # + O O . . . . o t 4 t y 0 0 0 r A O.@.@.@.@.@.{ ",
"[ Z [ ` ] g ] e - - - 8 w 9 9 z z z z t t 9 y z z 7 * % o . . . # : : < # O . .   . . . . o # : 3 y y y 0 r e [ O.@.@.#.@.@.@.@.",
"a [ [ ` g g a q 6 - > q 9 8 u 9 9 h 9 z i z z z t 7 > > = * o . . # # O O . . .     . . o : , 9 y y y 0 0 r r A @.@.@.#.#.@.@.{ ",
"[ { [ ` ` ` a p i 5 5 6 8 8 9 9 w z t u u z t z z 7 < q 8 > o   O . . . . . . o . . . o X 7 z z z y t 0 w r r { O.@.@.#.#.@.@.@.",
"[ Z ' ` ] ' a p p q q 5 > > < 9 u i z h z j z z u 7 8 q w , O   .   . . % % = = > > = * < > 8 7 0 0 0 0 y r B A O.@.@.#.#.@.@.@.",
"_ a [ ' ] ] ` a p i q 5 - 5 5 w u z c z v z u 9 9 q 8 q w , o . . . O % > 8 8 w w w 9 0 6 - & & * - - 0 e r r A O.@.@.@.#.@.@.O.",
"_ [ ` ` ] ] ` p p e i q 8 6 6 9 9 i u z h z u 9 9 9 w q w 6 O . o O & > 0 w w r r r B r q - - = 5 5 6 0 r B Z Z @.{ @.#.@.@.@.@.",
"` ` ` ] ] ] g a p e q q q q 8 - > > 8 8 < 9 < 9 u 9 w r r , O O * 8 6 q B r r p r r { r w 0 0 q 0 w w r B A A A O.O.@.@.#.@.@.@.",
"` ` ` ] ] ] g d p p p q p q 8 8 6 > < 6 6 < q 8 9 w p Z B 0 O * , p Z B Z r p p C r { p r w w e e r r r B A O.O.{ @.@.#.#.@.@.@.",
"` ` ` ` a ] ] d a g p p e i u q q q q q w q i w z p p p ..O.O.O...a Z V Z p p a [ [ { r r r w e r r B A A A O.A O.O.@.#.#.@.@.{ ",
"` ` ` _ _ ] ` g g p p a p e i q q w i e i w w i r p a Z S ..| { [ Z B s p p a _ { { { C C r r r r p p A A O.O.@.O.O.{ @.@.O.{ O.",
"a ` ` g a ` ` g a a a a a e e e e e p e e e r e p a a ` { @.| { _ _ _ _ a _ _ { { _ { _ r A _ r _ A A A A @.O.A O.@.O.@.@.{ @.{ ",
"` ` ` g _ ` g g g g g a a a a ` e a _ e a a a a a _  . .| { { { { { { | A [ { { { { { _ _ { _ { A _ [ A { O.{ @.A @.A @.{ @.@.{ ",
"` ` ` a _ a _ g g ] a a a a ` a a a a _ ` a a a ` ` ]  .| | { | { { | _ { { { [ _ { { _ { { _ { { { { { @.{ { @.@.O.@.{ @.{ { { ",
"` ` ` g a g g a g a a ] a a a _ ` a a ` a ` ` ` `  . . .{ | | | { { | | ' { _ [ { _ { { { { { { _ { { { { { @.{ { @.{ @.O.@.{ @."
};
