/* XPM */
static char *_b60125795c4481dc2f732c13f74a49aAL9QzSqgZb2FqEQP[] = {
/* columns rows colors chars-per-pixel */
"64 64 158 2 ",
"   c #040000",
".  c #0B0303",
"X  c #0E0909",
"o  c #110605",
"O  c #130807",
"+  c #130B0B",
"@  c #1C0D0B",
"#  c #120F10",
"$  c #161212",
"%  c #1B1414",
"&  c #161718",
"*  c #171818",
"=  c #1C1B1B",
"-  c #200F0D",
";  c #22110E",
":  c #261411",
">  c #2A1613",
",  c #2D1915",
"<  c #231C1C",
"1  c #311B16",
"2  c #351D19",
"3  c #381F1B",
"4  c #3C221D",
"5  c #1E1F20",
"6  c #272121",
"7  c #2A2424",
"8  c #202728",
"9  c #24292A",
"0  c #2D2929",
"q  c #3F2720",
"w  c #322C2C",
"e  c #262F31",
"r  c #2B2F30",
"t  c #273235",
"y  c #2E3435",
"u  c #2D3738",
"i  c #363030",
"p  c #3B3535",
"a  c #333B3C",
"s  c #3F3939",
"d  c #41251F",
"f  c #432621",
"g  c #462822",
"h  c #482A24",
"j  c #423D3D",
"k  c #2F4143",
"l  c #314041",
"z  c #3D4445",
"x  c #394748",
"c  c #3C5255",
"v  c #464242",
"b  c #4A4545",
"n  c #4D4A4A",
"m  c #524D4D",
"M  c #415A5D",
"N  c #565252",
"B  c #5B5656",
"V  c #5D5A5A",
"C  c #625E5E",
"Z  c #49676A",
"A  c #526366",
"S  c #526568",
"D  c #4E6C70",
"F  c #596E72",
"G  c #5C7275",
"H  c #557579",
"J  c #587B7F",
"K  c #666262",
"L  c #696565",
"P  c #6D6969",
"I  c #716D6D",
"U  c #62787B",
"Y  c #767272",
"T  c #7A7676",
"R  c #7C7B7B",
"E  c #817E7E",
"W  c #647E81",
"Q  c #5E8488",
"!  c #668285",
"~  c #6E8182",
"^  c #60868B",
"/  c #6A9499",
"(  c #6F989C",
")  c #719397",
"_  c #7F9093",
"`  c #76989C",
"'  c #729DA2",
"]  c #76A2A7",
"[  c #7CA8AC",
"{  c #7EAEB3",
"}  c #858383",
"|  c #898686",
" . c #8B8A8A",
".. c #918E8E",
"X. c #959393",
"o. c #999797",
"O. c #9B9B9B",
"+. c #A19E9E",
"@. c #8FA4A7",
"#. c #80A6AA",
"$. c #82AAAE",
"%. c #89B3B7",
"&. c #86B4B9",
"*. c #8CB6BB",
"=. c #94BABF",
"-. c #98BBBF",
";. c #A4A4A4",
":. c #A9A7A7",
">. c #A7A8A8",
",. c #ACABAB",
"<. c #B0AEAE",
"1. c #ABB0B1",
"2. c #A3B6B9",
"3. c #ADB6B8",
"4. c #B3B3B3",
"5. c #B6B5B5",
"6. c #B9B7B7",
"7. c #BABABA",
"8. c #BCBBBB",
"9. c #C0BEBE",
"0. c #8CBDC2",
"q. c #93C4C9",
"w. c #99C5CA",
"e. c #9ACBD0",
"r. c #A9C7CB",
"t. c #A8C9CD",
"y. c #B6C8CB",
"u. c #A2CFD4",
"i. c #B2D5D9",
"p. c #C2C1C1",
"a. c #C4C4C4",
"s. c #C9C7C7",
"d. c #CAC9C9",
"f. c #CCCACA",
"g. c #D0CFCF",
"h. c #CADCDE",
"j. c #D4D3D3",
"k. c #D6D5D5",
"l. c #D8D6D6",
"z. c #D7DADB",
"x. c #D8D8D8",
"c. c #DBDBDB",
"v. c #E0DFDF",
"b. c #DDE2E3",
"n. c #E4E3E3",
"m. c #E8E7E7",
"M. c #EBEAEA",
"N. c #ECECEC",
"B. c #EDECEC",
"V. c #EDEEEE",
"C. c #F0EFEF",
"Z. c gray95",
"A. c #F3F3F3",
"S. c #F6F6F6",
"D. c #F8F8F8",
"F. c #FAFAFA",
"G. c gray99",
"H. c #FDFEFE",
/* pixels */
"d f d f d d d d d d f 4 f 4 f f d d d d d d d d d d d d d d d d d d 4 f f f f 4 f q f q f 4 f 4 f q f q d d d d f d d d d d f d ",
"d 4 f 4 d d d d d f 4 q f f f 4 d d d d d d d d d d d d f 4 d d d f q f 4 f f f f f q f f f q f f f q f d d f d f f f d f f 4 f ",
"f 4 d d d d d f f f f f d d f f d d d d d d d d d d d d d f f q f f 4 f f f f f f 4 f f f q f d f f f d d f d d d f f f q 4 f f ",
"f d d d d d d 4 f 4 f q f f f 4 d d d d d d d d d d d d f f 4 4 q f f f f f f f f f q 4 q f q f f 4 f f f d d d f d d f f f f f ",
"d d d d d d q f d d d d d d d d d d d d d d 2 ; o . . . .   . .   . . . . . .   o ; 4 4 f 4 f f f f f f f q f q f f q 4 f f f f ",
"d d d f d f f q d q f d f f d d d 4 3 3 4 3 1 @ o .                         .   o @ > 4 4 4 4 4 4 q q f f 4 f f f f f f f f f f ",
"d d d 4 d 4 f f f f d q q f d d 4 1 > ; ; ; @ O .                                 O @ ; ; ; : 1 4 f f f f f f f f f f f f f 4 q ",
"d d d f f f f f f f f f d d d 4 1 - o . . . . + O + + $ $ $ $ $ $ $ $ $ $ $ $ X + X o . . . O ; 1 q f f f f f f 4 f f f f f f f ",
"d f q f 4 f f d d f f q f 4 2 > ; O .       + 6 j m B C C L C L K K K K L C B m j 6 O .       + % > 2 q q f f f q f f f f f f f ",
"d 4 f f f d f f q f f f d 2 : + o . .       < N R +.4.p.d.g.d.d.s.d.d.d.d.p.5.+.R m 6 .   .   . X @ : 2 q f f f f f f d f f f f ",
"f f 4 f f f f f d f d 4 2 : + . o % 7 0 i j B  .5.k.B.D.G.H.H.H.H.H.H.H.H.D.B.k.6. .V j w w 7 % o . O > 1 4 f f f f f f f f f f ",
"f q f f f f f f f d 3 > @ + . . = v L } X.;.4.d.n.C.G.H.H.H.H.H.H.H.H.H.H.H.D.Z.n.d.4.+...} P j < . . + @ , 2 f d f d f f d d f ",
"d 3 f f f f f f f 3 , @ o X X = j Y ;.s.c.B.Z.D.D.H.H.H.H.H.H.H.H.H.H.H.H.H.H.H.D.S.S.B.c.d.;.Y j % X . O @ , 4 4 f f f d f f f ",
"f f f f f f 4 3 1 : @ X . % i N R ,.j.M.H.H.H.H.H.H.H.H.H.H.H.H.H.H.H.H.H.H.H.H.H.H.H.H.D.B.j.:.R N w % . . @ : 2 4 f f f f f f ",
"4 f f f f f q 2 ; O .   o w C X.7.l.B.H.H.H.H.H.H.H.H.H.H.H.H.H.H.H.H.H.H.H.H.H.H.H.H.H.H.H.B.c.7.X.C w X . . O @ 2 q f f f f g ",
"f f f f f f 4 1 @ .     . p E 9.n.Z.H.H.H.H.H.H.H.H.H.H.H.H.H.H.H.H.H.H.H.H.H.H.H.H.H.H.H.H.H.Z.n.7.E j .   . . @ 1 f f f f f f ",
"f f 4 f f f 4 1 @ .     X v X.k.D.H.H.H.H.H.H.H.H.H.H.H.H.H.H.H.H.H.H.H.H.H.H.H.H.H.H.H.H.H.H.H.D.l.X.j o     . @ 2 d d g g d g ",
"f f f f f 4 2 > @ . . + 7 C ,.M.H.H.H.H.H.H.H.H.H.H.H.H.H.H.H.H.H.H.H.H.H.H.H.H.H.H.H.H.H.H.H.H.H.m.,.C 0 + . . @ > 4 4 d g d d ",
"f f d d f : @ @ . X < j L o.f.D.H.H.H.H.H.H.H.H.H.H.H.H.H.H.H.H.H.H.H.H.H.H.H.H.H.H.H.H.H.H.H.H.H.D.g.o.L j < . . + ; ; f g f f ",
"d f f f f . . . . + w P O.p.c.m.B.B.B.Z.S.D.H.H.H.H.H.H.H.H.H.H.H.H.H.H.H.H.H.H.H.H.H.D.A.Z.B.B.B.m.l.p.O.P w X . . . . f f g f ",
"f q f f d .       + s R <.6.,.O...X.+.,.s.c.B.D.H.H.H.H.H.H.H.H.H.H.H.H.H.H.H.H.H.D.B.c.p.:.o.X.o.+.<.7.1.E j +     . . f g f f ",
"f f f q f . .     X s R ;.o.I v w 0 s B | 4.j.M.D.H.H.H.H.H.H.D.H.H.H.H.H.H.H.H.D.B.k.4.| B s 0 w v P o.+.R s +     . . g f f g ",
"d f f f 4 . .     X w C R R L b w % + < n R :.j.C.H.H.S.M.c.f.p.9.p.d.l.M.Z.H.H.C.f.:.| P N j < + @ p L R C w +       . f g f f ",
"d f f f f   .   . . @ 0 j C | o.E j % . % s I ,.n.S.Z.c.7.X.I V N B I X.7.c.Z.D.n.:.P N P ....K 0 + $ w j 0 $ . .       g f f g ",
"f q f f f . . . . .   . $ v ..6.;.C > .   X v o.c.M.c.4.| N 6 X . O 7 N  .4.c.B.l...j 0 C ;.7.| j X .   X   . . .   .   f f f f ",
"f f f f 4 . .           . 6 B T P j $     . p ..k.n.4.T b 6 .       . < b T 5.b.k...p @ w L T B 0 .           .   .   . f f f g ",
"q f f f f .   . . . .   X $ < 6 = + .     + v o.c.g. .j % o o o + X X X % j  .g.l.o.v + O < < % X .   X X   . . . .   . f g g f ",
"f f f f 4 . . . . . & e a 9 $       . X < s P 4.c.d.T 0 + 7 n C K V n 7 @ 0 T d.b.4.I s < .       . % y a t * .   . .   f f g f ",
"f f g q g   .     X t A ! F a X     X 5 n R ,.k.B.d.Y 0 1 V +.p.g.9.+.C 6 0 I d.N.k.,.R n <       $ a F ! A 9 +     .   g f g g ",
"g f q g g   .     X a ! #.` S u 5 = 9 n R 1.c.Z.Z.s.Y 0 0 K ,.f.c.g.:.K 0 0 I d.A.Z.k.1.R n 9 = 5 u S ` [ ! a +     . . g f f g ",
"f g q q g   .     X u J ] [ ) W G F U  .3.z.S.H.H.s.Y 0 + w B I Y I B w @ 7 Y d.H.H.A.z.3._ U F F ! ) [ ] H u X     . . f h g g ",
"g q g g g . . . . X 8 c ! ' [ %.*.*.0.r.h.B.D.H.S.s.E w $ % < 7 7 6 < % $ w E d.A.H.F.B.h.t.=.*.*.%.[ ] Q M 9 . . . . X g f g f ",
"d h h d d - - @ . X * t c H ( &.q.e.u.i.h.n.m.M.v.y.X.L n b b b b b b b m L ..p.c.M.m.n.h.i.u.e.q.&.) H c e & X . @ - - g g g g ",
"d d d d d 3 2 , @ . . # 5 l D / { 0.w.t.y.y.a.s.p.7.,.+.o.o.X.X.X.X.X.o.X.O.,.8.a.s.s.y.y.r.w.0.{ / D l 5 # . . @ , 3 3 g g f g ",
"h d d h d d d 4 > @ . . . = k Z ^ ] *.=.2.1.1.5.5.7.8.8.7.8.8.8.9.8.8.8.8.8.8.7.4.4.4.1.2.-.%.] Q Z k = . . o @ : 3 d g f f g g ",
"h d d d h d d d 4 , : +   X * 9 c J ' $.@.O.O.,.4.7.8.8.8.8.9.7.9.7.8.8.8.8.7.7.4.,.;.+.@.$.' J c t * X . O ; 1 4 q g g g g g g ",
"d h d d d d h h d d 1 ; O . . + 8 c H ^ ~ R  .O.,.4.4.4.3.4.1.4.4.4.4.3.5.4.4.4.,.o. .W ~ ^ H c 8 X . . O : 2 f f g f g g g g g ",
"d d d h d h d d d g 4 1 > @ o . $ 8 k z z b V T o.;.:.:.;.;.;.;.;.;.;.;.;.;.,.>.o.R V v z x k 8 $   X @ : 2 4 g g g g g g g g g ",
"d d d h d d d d d h d d 4 1 @ o   X X $ X & r N R  . . . .|  . . . . . . . . . .R N 0 $ + # + X . . - , 4 f f g g g g g g g g g ",
"h d h d d h d d h d h d d 1 - . . .       . $ i n V C V V V V V V V V V V V V V n i % .     . . O : , 4 f f g f g g g g g g g g ",
"d h g d g d g d d h d d d 4 - o .   .     . . $ = 6 6 6 6 6 < 6 6 6 6 6 6 6 6 6 = $ . . . . . @ > 3 4 f g f g g g g g g g g g g ",
"h d d g g d d g h d d h d 3 - . .   . X % 6 < $ . . . . .   . .       .   . .   . . . . . O O > 3 f g f f g g g g g g g g g g g ",
"d d h d h d d h d h h d d 2 @ o     . 6 b K V i +                                     . + ; , 4 f g f g g g g g g g g g g g g g ",
"h d d h d d h d h d d h d 2 ; O .   . 0 C | } N 0 $ $ % % * % = = % * % % % % % + + . . ; , 4 4 f f f g g g g g g g g g h g g g ",
"d h d h h d h d d d h d d 4 1 > + X . = v K P K C C L Y T T T T Y Y I Y I I L B b 0 $ o O : , 4 d f g g g g g g h h h g g h g g ",
"g d h d d h h d h d d h d d 4 d , @ O o + 6 s K | ;.6.d.j.j.j.j.j.j.j.l.j.g.7.,.| B 7 .   . @ : 3 f g g g g g g f h h h h g g g ",
"d h h d h d d h d h d d d d h d 4 > - o   . = n T o.:.7.8.8.8.d.v.D.H.H.H.G.M.f.;.P 0 X .   . @ 2 f g g g g g g h h h g h g g h ",
"h d d h d d h d h d h h d h d d d 4 2 : + . + < w b m m N m N Y ,.m.H.H.H.G.B.j.;.P w .     . ; 2 f g g g g g g g g g h g g h g ",
"d d h d g g d d g d g g d g g d g g f 4 : + o X . X X X + + 7 b  .f.B.B.n.j.a.,. .B 7 . . X - > 3 f g g g h f h h h h h f h h f ",
"d h d h d g g g g g d g g g g g g g f f 4 : - + .       O w m T o.4.6.;. .T P C n w % X X - > 3 4 g g g h f h f h f h h h h h h ",
"d h d h g d d g d g g g g g g g g f f f f f , ; X     . < N R O.+.o.R V i < % % $ + o o - 2 4 f g g g g h h h g h h h f h h h h ",
"h d h d g d g g g d d g g g g d g f g g f g 4 1 ; $ . X = v L T P V v 0 +       . . + : 1 4 g g g g g h g h g h h f h h f h h f ",
"d d d h d h g d g d g g d g g g f g g f h f q q 3 , @ o o = 7 0 0 < = + . .   . . @ , 3 f g g g h g h g h h h g f h h f h h f h ",
"d h h d h d g d d g g h g g g d g g f g f h f g h 3 : o . . . . X + + @ O O O O @ , 4 f h g g g g g g h h h h g h h h h h h h h ",
"h d d d d d g g g g g d d g g g g f g g f h g g h 3 : o .     . o : , , , , , , 1 4 f f g h g h g g g g h h h h h h h h h h h h ",
"d h h h g g g g d g d h h g h d g g f f f f g g d 3 ; o . . . O > 4 d d f f f f f f f h h g h g g g g h h h h h h h h h f h h f ",
"g d g g g g g g g g g g g g g d f f q f q f g f d 3 ; o . O ; 1 4 4 g g g g g g g g g h g h g h h g h g h h h h h h f h h f h h ",
"g g d d g g d f g g g g g d g g f f q q q f f f f 3 ; o o ; 1 d f g g g g g g g g g h g h g h g g h g h h h h h h h h h h h h h ",
"d g d g g d g g g g g d g g g d f f 4 f q q q f d 3 ; o O > d d g g g g h h g d g g h g g h g h h g h h h h h h h f h h h h h h ",
"d g g g g g f g g g g g d g g g h f g f q g f g g h h h d d h h g g g g d d h h g h g h h g h g g h h h h h h h h h h h h h h h ",
"g d h g f g g g g g g g g g g g f h f f f g g f g f g g d h d d h h h d h h h d g g h g g g g h h g h g h h h h h h h h h h h h ",
"d h g g g g f g g g d g g g g g h f f h g f h g g g g g h h h h d d h h h d h h h g g h g g h h g h g h h h h h h h h h h h h h ",
"h d g g g f g d d g g g g g g g h h h h g g f h h f g g h d h d h h h h h h h h g h g h h g h h h g h g h h h h h h h h h h h h ",
"d g g d g g g g g g g g d g g g f h f h h g h f h g g g h d h h h d d h h d h h h g h g h h h h g h g h h h h h h h h h h h h h "
};
