/* XPM */
static char *_a929afa77d844f8838c954bccad4f1fu1XPDWqKAJxp5cMR[] = {
/* columns rows colors chars-per-pixel */
"64 64 174 2 ",
"   c #060000",
".  c #0A0303",
"X  c #0E0A0A",
"o  c #120605",
"O  c #190101",
"+  c #140807",
"@  c #120D0D",
"#  c #1C0D0B",
"$  c #1F100D",
"%  c #151212",
"&  c #1A1515",
"*  c #171919",
"=  c #1C1B1B",
"-  c #200F0D",
";  c #350404",
":  c #21110E",
">  c #251310",
",  c #2A1613",
"<  c #2D1815",
"1  c #201F1F",
"2  c #311B17",
"3  c #351D19",
"4  c #381F1A",
"5  c #3C221D",
"6  c #1C1F21",
"7  c #1E2323",
"8  c #242323",
"9  c #292626",
"0  c #282827",
"q  c #242A2B",
"w  c #2D2D2D",
"e  c #362525",
"r  c #3E2622",
"t  c #322C2C",
"y  c #3F2929",
"u  c #3C2F31",
"i  c #2C3132",
"p  c #2B3739",
"a  c #2B393B",
"s  c gray19",
"d  c #3B3535",
"f  c #343C3D",
"g  c #4D0101",
"h  c #540202",
"j  c #4C1819",
"k  c #581E1E",
"l  c #660909",
"z  c #651D1D",
"x  c #6B1E1E",
"c  c #771818",
"v  c #40241E",
"b  c #40251F",
"n  c #41251F",
"m  c #42251F",
"M  c #422520",
"N  c #432620",
"B  c #422621",
"V  c #432721",
"C  c #442721",
"Z  c #4D2525",
"A  c #462822",
"S  c #482A24",
"D  c #452728",
"F  c #422828",
"G  c #522020",
"H  c #5A2222",
"J  c #632121",
"K  c #6A2121",
"L  c #7D2828",
"P  c #3C4242",
"I  c #344648",
"U  c #3D5356",
"Y  c #3E575A",
"T  c #4F4949",
"R  c #425D5F",
"E  c #5B5656",
"W  c #684E4F",
"Q  c #645F5F",
"!  c #4A6467",
"~  c #5B6B6D",
"^  c #4E7074",
"/  c #567173",
"(  c #5B7A7E",
")  c #6A6464",
"_  c #736465",
"`  c #970202",
"'  c #970D0D",
"]  c #841717",
"[  c #861A1A",
"{  c #961414",
"}  c #951616",
"|  c #A80000",
" . c #A50A0B",
".. c #B70C0C",
"X. c #BC0D0D",
"o. c #A40F10",
"O. c #AD1111",
"+. c #8E2C2D",
"@. c #972727",
"#. c #AB2424",
"$. c #B82B2B",
"%. c #CF0505",
"&. c #C40C0C",
"*. c #CA0B0B",
"=. c #D80404",
"-. c #D50B0B",
";. c #E50505",
":. c #EA0303",
">. c #E20A0A",
",. c #F30202",
"<. c #FE0202",
"1. c #FC0708",
"2. c #F20B0B",
"3. c #FD0B0B",
"4. c #F71414",
"5. c #FC1414",
"6. c #FC1C1C",
"7. c #FF1F20",
"8. c #CD2D2D",
"9. c #C73839",
"0. c #E72222",
"q. c #E32C2C",
"w. c #EC2D2D",
"e. c #F72525",
"r. c #FF2424",
"t. c #F02A2B",
"y. c #FF2A2A",
"u. c #EB2F31",
"i. c #E73C3E",
"p. c #FF3D3D",
"a. c #E13E40",
"s. c #9A686A",
"d. c #A87B7F",
"f. c #BB797C",
"g. c #CF4C4C",
"h. c #F24040",
"j. c #FF4141",
"k. c #F65E5E",
"l. c #FF5B5B",
"z. c #CD6A6D",
"x. c #E86E6E",
"c. c #FF6D6D",
"v. c #FD7C7C",
"b. c #597C81",
"n. c #C77E81",
"m. c #62898D",
"M. c #658F93",
"N. c #6F9296",
"B. c #71979B",
"V. c #729B9F",
"C. c #7B9EA2",
"Z. c #77A7AC",
"A. c #7EA6AB",
"S. c #7BADB2",
"D. c #84989B",
"F. c #9C9999",
"G. c #BB8488",
"H. c #AC969A",
"J. c #88A4A8",
"K. c #91A4A9",
"L. c #8EBABF",
"P. c #9AB4B9",
"I. c #A3A0A0",
"U. c #BEBBBB",
"Y. c #FD8383",
"T. c #FE9B9B",
"R. c #FFADAD",
"E. c #89BBC0",
"W. c #A4BFC4",
"Q. c #8BC2C7",
"!. c #93C5CA",
"~. c #95CCD1",
"^. c #C6C4C4",
"/. c #D0CECE",
/* pixels */
"b b b b b m b m b m 5 M M M r b b b m b m b m b m b m b b b b b m b m m M M M r 5 M V b V b C M b m V r M M M r M M M M M M M r ",
"b b b b b b m b m C M M M r M M m b b m b m b m b m b m b b b m b m M r r M m m A M M r r V b r A 5 V b r M M M M M M m r m 5 m ",
"b b b b b b m m b M M M M m M m b m b b m b m m m b m b b m M M C m M m m C M M C b C b b b 5 V V m M b C m C b M r m m b r C M ",
"b b b b b b 5 m M M M M M r M M b b b b b m b m b m b m b b r b m C M C r b C M M b C b b C A b 5 b V V b C b C M C C r b C M C ",
"b b m b m b M M C m b r M M 5 b b b b b b b 4 : o .   .   . .   .   .     .   . o : 3 5 M 5 5 C V V V m V b b m b C r C C m r b ",
"m b b b b m m r r C b m M r b b b 5 4 4 4 3 , # o . . .       .   .   . .     . o # , 4 5 4 5 5 5 m V M r A r V b b b m m C C b ",
"b m b b b C m M b m b C M C b m 4 < : - : - # o . . .   .         . .         . . o # # # : > 2 5 b V V b V r V C C m C m C m C ",
"m b m C C m C b m C b r C 5 m 4 2 - o o . . . . . . X . . X X . X . . . X . + . . . . . . X o # < 5 5 V m A b A C b C b r m C m ",
"b b b b b A C b C m C m r 5 2 , - o .     . . X @ & % % & % & * & % & & & & & & @ X . .   . . o # , 2 5 b M b M M b b m C b C m ",
"b b M V b b M M r C C 5 5 2 : + . . . . . . X & = 8 9 9 0 9 9 9 0 9 9 9 0 9 8 8 = & X . . . . . . @ > 2 5 r A M C M C C b C m C ",
"V M b m V b b C b m 5 4 2 : + . . X @ @ @ @ & 1 9 0 w w s w s s i i w i w w w w 9 = & @ @ @ @ X . . + : < 5 5 b b C C b C m C m ",
"r A A b b C M C b 5 4 > # o . . X % & 6 1 8 9 0 w w w w s s w s t t i t w w w w 0 9 9 8 1 = & % + . . o # > < 5 M b b C m C m C ",
"5 b m m m C 5 5 5 3 : # . . o + @ = 8 0 q w w w w w t s w s w s w w w w w s w s s w w w w q 8 = % o X   o + , 5 5 5 m b C m A b ",
"m A b V C m 5 5 , # # . . . @ & 1 9 9 t t s s s w w w w w w w w i w t i w w w w w w s s w w 0 9 1 & @ X   o + $ < 5 b b m C S m ",
"m b V M b C b 2 # o .   . X & 8 0 q w w s w w w w w w s w s w s t w i w w w s s s w s w t w w w 9 8 * + .   . o : 5 b S S b b A ",
"V A b V C M 5 2 # .     . @ * q w w w w s w w s w s w w w w s t w w t w s w w w w w w w w w w w w 0 & X .     . # < b b b b M C ",
"b M m A b 5 5 , # o . . . @ = 0 s s w w w w w w w w s w s w w w w w w w s w s w w s w s w w w w w q = % X   . . # 2 5 5 M C C C ",
"b V b A m , , : o . . X @ * 8 q q i w i i w w s s w w w w w s w w s w s w w w w w w w w i w i i i q 8 & % o . . + # , < C C C C ",
"A V 5 b r o + + . . X % 8 = 9 w t t t i t w w w w w w s s w s w s w w w w w s w w s s t w t t t t w 0 8 = % X . . o o o A M C C ",
"b m V V b . .     . X * 8 e G z x K K H V w w i s w w w w w s w w s s w w s w s w w q w b k x x x J Z e 1 * X . . . . . M A C M ",
"C r m C A   .     . X * 8 j c O.&.&.X.} z e 0 q w w w w w w i w w s w s s w s t w q q r K } X.&.&.O.] k 1 & @ .   . .   A A b V ",
"m m C r b . .     . # , j +.$.q.e.4.2.%.} z M F w s w w w 0 9 9 9 8 0 0 w t q s w e D J @.8.w.r.4.;...c j < + .       . b V b A ",
"C m C m C   .     o ; l } 9.x.v.c.j.5.:.%.O.] J F s w q 8 1 * & & & = 1 0 q q w F z ] #.g.x.v.l.y.3.;.&.' l ; o     .   b A A A ",
"r C m C m         o g ` -.h.Y.R.T.l.6.<.,.;.X.[ Z q q 8 = & X . . . o % = 8 q 0 Z ] X.0.k.T.R.n.p.3.<.:.=.` g O       . A b A b ",
"m C r m V .       O h | ;.y.l.v.c.a.5.<.<.<.-.} Z 0 7 * @ .           X X * 7 0 G } -.5.j.c.v.l.y.3.<.<.:.| h O       . M b A A ",
"C m m C b .       o h  .>.4.6.r.r.5.<.<.<.:.*.[ Z q * @ X @ @ @ @ X X X X X * 9 Z [ &.2.5.r.r.6.3.<.<.1.;. .h X         M C C C ",
"r V A M V         + j +.9.w.4.1.<.<.<.,.=.X.} K V 8 % @ % t T E ) E T w % X & 8 M K { X.=.:.<.<.<.<.6.u.9.+.j +         V A C A ",
"M V V A V .       + t _ d.z.i.4.<.<.,.=. .c G y t 8 @ @ e Q F.U.^.U.F.) t @ @ 1 t y G c o.=.1.<.<.4.i.z.d._ y @         V V A M ",
"V V r A r .       @ a ( J.H.z.i.w.w.q.$.L F 0 w q 8 % @ e ) I.^./.^.I.Q e @ @ 8 q w 0 D L $.q.w.w.a.z.H.J.( f % .     . A V A A ",
"A V A A 5 . .     @ a ^ C.J.H.G.n.n.f.s.W d w q i 8 % o % d E ) _ ) E d & X % 8 w w w d W s.f.n.n.G.H.K.V.^ a X       . A V A V ",
"V V V V A X X . . X 7 U ( B.J.P.W.W.P.D.~ P w 9 9 8 = @ X @ & % & & & @ @ @ & 9 9 q i P ) D.P.W.P.P.J.V.b.U 8 X . X . o A A A V ",
"V V V V A > : # X X * q I ^ M.S.Q.~.!.J./ P w 9 0 8 1 & % @ @ @ X @ @ @ % & = 8 9 9 w P / Z.!.~.Q.S.M.^ I q % X X + > , V V A A ",
"C M C C m 5 4 2 # o X X * p ! m.Z.L.L.A./ f 8 8 8 8 8 7 1 7 7 = 6 1 = 8 1 8 8 8 9 8 8 f / C.L.E.Z.m.! p * X . o # < 5 5 C S A A ",
"M C C A m m b b < - + . X @ p R ( B.A.N.! i 1 1 8 8 9 9 0 8 0 9 9 9 q 8 9 8 q 8 8 1 1 i ! N.A.B.( Y p % X . @ : 2 4 b C A m A A ",
"A V A m C m m m 5 3 : # . . @ 7 I ^ m.( U 0 * * 7 9 9 8 9 8 9 8 8 8 9 9 9 8 9 8 7 = * q U ( m./ I 7 % . . # , 3 r M D M A A A A ",
"b b m m S m m m b 5 4 , # @ . @ 6 I R Y p = % * = 1 1 7 1 7 1 7 7 7 = 8 7 1 1 7 = % % = p Y R I 7 X   X # , 4 M M A M Z A A A m ",
"A S b m S m m m b m b 5 2 : + . X 7 7 7 * @ X @ % * * * * * * * * * * * * * * * * X X X * 7 q * X X + > 2 4 M M A M C S A A A A ",
"b b S m m m m S m S m m b 3 > + . . X X   X . X @ % % @ % X X % @ % @ @ @ @ @ % X X X   X . X X X + > 3 C m M D C Z S m A C A A ",
"m m b m m m m C C C m C m b 4 < : @           . X X   X X X X X X . X X X X X . X     .     . + # , 4 b m C A A C A C S C S A A ",
"A m m S S m C m C C C C m b b 5 < # o             .                       .     .   .   . . + : 2 5 b M A A A C S A S C S C m Z ",
"m m m m S m m A C C C C C C C b 5 $ . . . .                             .             . o # , 2 r S A A C b S m C S A A Z C A A ",
"m S m S m S A m C C C C C C C m 2 $ o   .     . . . . . . . . . . . X   . . . . . . . o # < 4 5 b m A C Z S A S C C A A C A A S ",
"m m S m b A A b C C C C C C C b 3 : . . .   . X @ @ @ % @ @ @ @ % @ % % @ @ @ @ X X . . # > 3 5 m C A A C C S C S C S A A A A A ",
"m S m m A A m A C C C C C C C b 3 $ o .   . X @ = = 1 8 8 8 8 8 1 7 1 7 1 8 1 1 & + X . o o - , 4 b C C S C C S C S C S A A A S ",
"m A A m m b A m C C C C C C C m 4 > # o . . X @ & 6 9 0 w w w w w w w w w w 0 0 8 & % X . . o # 2 3 m C C C S C S S A A D A A A ",
"C m A A A A A A C C C C C C C m 5 4 < : + . . X @ & = 9 0 w s s s s s s w t w w 0 8 = & @ X . . # - 2 4 C m C S A Z D A S A A A ",
"C C A m A m b A C C C C C C C S b C b 4 : + . . . @ & = 9 9 0 0 0 0 w 9 w w s w w 0 9 = & X . . . o - 3 b Z A A A A A A A S Z S ",
"C C A b A A b A C C C m S C C C C C M b 4 , - o . . @ @ % * & & = = = 8 w w s s w w 0 8 & X     . . # 3 D A A A A A A A S A S S ",
"C C C C C C C C C C C C C m S C m A A C b 5 2 : o . . . X . X X . X @ = 9 0 w w w 0 0 1 % @ . . . o : 4 C C A A A A A S A S S A ",
"C C C C C C C C C C C S S C S C C b A A A C 4 2 > # o .   . . . X @ % = = 8 8 1 1 = = % @ . . . + - 2 4 A C A A D A A S S A A S ",
"C C C C C C C C C C C C C A C S A D A V D m C r 4 2 # o . .   + + = = = = * @ @ X X o X . . o # , 4 b C S S S C A S A A A S S S ",
"C C C C C C C C C C C C A C C C V A A A b Z m S b 4 < # o . . o @ & * * @ + X . . . . . . + # < 4 C A A C S S S S A S S S A S A ",
"C C C C C C C C A M C S C C S C A V A A A V V V S b 4 4 , # . . X X @ X o X     .     . # > 2 4 D Z C C S C C S S A S A S A S S ",
"C C C C C C m S b A M C S C S C A A A V A A A S A A m C 4 - o . . . . . . o o X o o X # > 4 M M S C Z S A S S C S S A S A S S A ",
"C C C C C C C m A A S C C S C C A b A V V A V S A A A D 4 , o . .   . o : , , , , , > , 4 M S Z Z S S S S S S Z S A S A A S A S ",
"C C C C C C S C V A C C S C C C A A A V A V V A A A A A 4 , o . . . # > 4 5 b m 5 b b b C M S D C C S C A S S S S S S A S A S A ",
"V A m A V S m A A b V S V V S V A V r r V V A A V V V V b : + o o # , 3 5 M S A Z C A A A A A A S A D S S S S S A S S A S A S S ",
"A m A A A V A m A S A A V S V V V V r V r V 5 S A S V V 5 : + + # 2 5 M M S S A A A S A A A A A A A S C S S S S A S A S A S S S ",
"A m A m m S V A m V S V V S S V V m r r 5 r r b V V V 5 < : + + : 5 M S m S b S A A A A A S A A S S S S S S S S S S A S S S S S ",
"A V S V V A A V S A V S V V S V A A A V V V A A A A m A A M S A S Z V V S S b S A A A S A Z A S S A S S S S S S S S S S S S S Z ",
"m A A V A A A S A A V V S V V S A V V V V V V V A A A A m S A S m S S S S A S b C C S A S A A S A S A S S S S S S S S S S S S S ",
"A A m A A V V V V V S S V S m A A A A A S A S A A A A A A S S m S S m m S A S S C Z S S A S S A S A A S S S S S S S S S S S S S ",
"S V A m A A V S S V S V V S S A A A A A V D A A V S V A S m S S S m S S S S S m S S S C S S A S S A S A S S S S S S S S S S S S ",
"A V A S V S V V S V V V S m A A A A A A A S A A S V A A A S m m S S m S A S S S C S S S S S S A S S A S S S S D S S S S S S S S "
};
