/* XPM */
static char *_35c25e4de604eb8ccad6603d2ec89bdC0HZAL6tYqTMeasX[] = {
/* columns rows colors chars-per-pixel */
"64 64 166 2 ",
"   c #040101",
".  c #090203",
"X  c #0B060A",
"o  c #0D090B",
"O  c #120C0C",
"+  c #0E0B13",
"@  c #0E0E1A",
"#  c #120D13",
"$  c #120F18",
"%  c #0E111E",
"&  c #161113",
"*  c #1B1414",
"=  c #13131C",
"-  c #1A151D",
";  c #171818",
":  c #1B1A1D",
">  c #231C1C",
",  c #0F1220",
"<  c #141523",
"1  c #1B1722",
"2  c #161824",
"3  c #1C1B24",
"4  c #151529",
"5  c #161A2A",
"6  c #1A1C2C",
"7  c #161830",
"8  c #1B1E32",
"9  c #211E26",
"0  c #221F2A",
"q  c #1F202B",
"w  c #1D2135",
"e  c #1E253D",
"r  c #1F283D",
"t  c #262122",
"y  c #2A2424",
"u  c #24212C",
"i  c #28222B",
"p  c #24292A",
"a  c #2D2929",
"s  c #322C2C",
"d  c #232233",
"f  c #262F31",
"g  c #21263D",
"h  c #24283D",
"j  c #28293F",
"k  c #273235",
"l  c #2E3435",
"z  c #2D3738",
"x  c #363030",
"c  c #3B3535",
"v  c #333B3C",
"b  c #3F3939",
"n  c #423D3D",
"m  c #1F2641",
"M  c #1D2843",
"N  c #212641",
"B  c #222945",
"V  c #242944",
"C  c #242B45",
"Z  c #242B47",
"A  c #282D46",
"S  c #252B48",
"D  c #262D48",
"F  c #252C4B",
"G  c #303F41",
"H  c #262E50",
"J  c #2F4143",
"K  c #314041",
"L  c #3D4445",
"P  c #394748",
"I  c #3C5255",
"U  c #464242",
"Y  c #4A4545",
"T  c #4D4A4A",
"R  c #524D4D",
"E  c #415A5D",
"W  c #565252",
"Q  c #5B5656",
"!  c #5D5A5A",
"~  c #625E5E",
"^  c #49676A",
"/  c #526568",
"(  c #4E6C70",
")  c #596E72",
"_  c #5C7275",
"`  c #557579",
"'  c #587B7F",
"]  c #666161",
"[  c #666262",
"{  c #696565",
"}  c #6D6969",
"|  c #716D6D",
" . c #62787B",
".. c #767272",
"X. c #7A7676",
"o. c #7C7B7B",
"O. c #817E7E",
"+. c #647E81",
"@. c #5E8488",
"#. c #668285",
"$. c #6E8182",
"%. c #6A9499",
"&. c #6F989C",
"*. c #719397",
"=. c #7F9093",
"-. c #76989C",
";. c #729DA2",
":. c #76A2A7",
">. c #7CA8AC",
",. c #7EAEB3",
"<. c #858383",
"1. c #898686",
"2. c #8B8A8A",
"3. c #918E8E",
"4. c #959393",
"5. c #999797",
"6. c #9B9B9B",
"7. c #A19E9E",
"8. c #8FA4A7",
"9. c #80A6AA",
"0. c #82AAAE",
"q. c #89B3B7",
"w. c #86B4B9",
"e. c #8CB6BB",
"r. c #94BABF",
"t. c #98BBBF",
"y. c #A4A4A4",
"u. c #A9A7A7",
"i. c #A7A8A8",
"p. c #ACABAB",
"a. c #B0AEAE",
"s. c #A7B3B5",
"d. c #ADB6B8",
"f. c #B4B3B3",
"g. c #B9B7B7",
"h. c #BCBBBB",
"j. c #C0BEBE",
"k. c #96C5CA",
"l. c #9ACBD0",
"z. c #A9C7CB",
"x. c #A8C9CD",
"c. c #B6C8CB",
"v. c #A2CFD4",
"b. c #B2D5D9",
"n. c #C4C3C3",
"m. c #C9C7C7",
"M. c #CAC9C9",
"N. c #CCCACA",
"B. c #D0CFCF",
"V. c #CFD0D0",
"C. c #CADCDE",
"Z. c #D4D4D4",
"A. c #D8D6D6",
"S. c #D7DADB",
"D. c #DBDADA",
"F. c #E0DFDF",
"G. c #DDE2E3",
"H. c #E4E3E3",
"J. c #E8E7E7",
"K. c #ECECEC",
"L. c #F0EFEF",
"P. c #F2F2F2",
"I. c #F4F4F4",
"U. c #FAF9F9",
"Y. c #FDFDFD",
"T. c #FEFEFE",
/* pixels */
"g N g h N h N N g N N g N r N r N M N M m N N M h M N N N C S A C S C A A D D D D D D S D S S V B V B B B N M B m M m B B m m B ",
"N h g N h N g h N h h g h N m g N m N h N M N N m N N N C V S C C S S S S A D D A S S D D V S B B B B B M B B m B B B B m M m m ",
"N h N h N g h g h N h N N r h m m m m m h m m M m r N V N C S V C C S C A A D D V S S S S S V B B B B B M N m m m m m m m m m m ",
"g N h N h g N h g g N h g m r r r r m m m 8 = X . . . .   . .   . . .     .   o < g S V S V V V B B B B N m m m m m m m m m m m ",
"g g h r r e d r r g e g g r r w e w w w w 2 = .                               X $ 5 N g g g N B B B N N N m m m m m m m m m m m ",
"N g g r g e r r r g e e r g r w 6 < = = = @ X                                   + $ < < = 4 6 w N N N N m m e m e e m m m m m m ",
"g g g g e e r e r r r g g g w 6 % X X . . . o O O & & * & & & * & & & & & O O O o X . . . o = 8 w N N g e m 8 m m e m m e m m m ",
"g g g N e g e g e w r N w 8 4 @ X         O t b T Q ~ ~ ] ~ ~ ] ] ~ ] ] ~ ! T b y o     . . X = 5 w g g e m m m m m e m e m m m ",
"g g g N N N N w d r w r q % o X . .     X t R o.6.g.n.N.N.N.N.N.N.N.N.N.n.f.7.O.R y .       . . + = 8 e M M m 8 7 m 7 M m m m m ",
"g g g g g w g j w 2 < < + X   o * y s x n ! 2.g.Z.K.Y.Y.Y.Y.Y.Y.Y.Y.Y.Y.U.K.Z.g.2.! n x s y : O   + < 8 7 8 M m m m m m m m m m ",
"g g j g g j j d q = + X .   . : U { o.5.7.f.N.H.P.U.Y.Y.Y.Y.Y.Y.Y.Y.Y.Y.Y.Y.P.H.N.g.7.4.<.{ n > .   + @ 5 w M m m m m m m m m 7 ",
"g g N j N j g d q & X . X X > n ..y.N.D.K.I.U.U.Y.Y.Y.Y.Y.Y.Y.Y.Y.Y.Y.Y.Y.Y.U.Y.U.P.K.D.N.y...n : X   X @ 7 8 m m m m m m m m m ",
"g g g j g g d 9 ; O . . * x W o.u.Z.K.U.Y.Y.Y.Y.Y.Y.Y.Y.Y.Y.Y.Y.Y.Y.Y.Y.Y.Y.Y.Y.Y.Y.Y.Y.K.Z.u.o.W x * X X @ < 7 7 e m m m 7 M m ",
"N g j N j g 4 # X     o a ~ 4.h.D.K.U.Y.Y.Y.Y.Y.Y.Y.Y.Y.Y.Y.Y.Y.Y.Y.Y.Y.Y.Y.Y.Y.Y.Y.Y.Y.U.K.S.h.4.~ a O     X @ 7 e m m m m m m ",
"N N N j N g < X .     X c O.h.H.Y.U.Y.Y.Y.Y.Y.Y.Y.Y.Y.Y.Y.Y.Y.Y.Y.Y.Y.Y.Y.Y.Y.Y.Y.Y.Y.Y.Y.Y.I.H.h.O.c O     . + , m m m m m m m ",
"d N N N V 8 < o       o U 4.Z.U.Y.Y.Y.Y.Y.Y.Y.Y.Y.Y.Y.Y.Y.Y.Y.Y.Y.Y.Y.Y.Y.Y.Y.Y.Y.Y.Y.Y.Y.Y.Y.U.D.3.n O     . X @ e m 7 m m m m ",
"N N N N d 7 $ o . . O a ~ p.J.Y.Y.Y.Y.Y.Y.Y.Y.Y.Y.Y.Y.Y.Y.Y.Y.Y.Y.Y.Y.Y.Y.Y.Y.Y.Y.Y.Y.Y.Y.Y.Y.Y.J.p.~ a O . . X + < 5 e m e m m ",
"j N V N 1 $ X X . > n { 5.B.U.Y.Y.Y.Y.Y.Y.Y.Y.Y.Y.Y.Y.Y.Y.Y.Y.Y.Y.Y.Y.Y.Y.Y.Y.Y.Y.Y.Y.Y.Y.Y.Y.Y.U.N.5.] n > o . X X + e r m m e ",
"N N V V . . . . X x } 6.j.A.J.K.K.K.L.I.U.U.Y.Y.Y.Y.Y.Y.Y.Y.Y.Y.Y.Y.Y.Y.Y.Y.Y.Y.Y.Y.Y.P.I.K.K.K.J.D.j.6.} x o     . . e r m m e ",
"V V N V .   .   O n O.p.g.p.7.4.5.7.p.m.D.K.Y.Y.Y.Y.Y.Y.Y.Y.Y.Y.Y.Y.Y.Y.Y.Y.Y.Y.Y.K.D.n.u.5.5.5.7.a.h.a.o.b O         g m e m m ",
"B B V V         O n X.y.5.| U s a c Q <.g.Z.K.U.Y.Y.Y.Y.Y.Y.Y.Y.Y.Y.Y.Y.Y.Y.Y.U.K.Z.g.<.W n a s U | 5.y.X.n O     . . r r N m e ",
"N V B S . .     O a ~ X.O.] Y s * O > R o.u.Z.K.Y.Y.I.J.A.N.j.j.n.N.D.H.P.Y.Y.P.N.u.<.} W n > O & c { X.~ s O     .   g m e m e ",
"V V B V .   .   . & y n ~ 1.5.o.U * X * b | p.H.U.P.D.h.4.| Q R Q | 5.h.D.P.U.H.u.} W } 3.3.] a O & a c a * . .   .   g N r m m ",
"B B B V . . . . . . . * Y 3.g.y.~ >     O U 4.D.P.D.f.1.W y O X O y W 1.f.D.L.D.3.n a ~ u.g.1.n O   . o X . . . . . . r g m m e ",
"N B V V   . . .         t Q X.} n &       c 4.Z.H.f.X.Y > . .     . > Y X.f.F.A.2.c * s [ X.Q a X             . .     g g r m r ",
"N N B V . . .   . . . X O ; > > O .     O Y 5.D.B.2.n * O O O O O o X * n 3.B.A.5.U O O > t * o     . . . . . . . . . m N m m m ",
"N N N h   . . . . * p v k ;       . X > c } f.F.N.X.y O > Y ~ ~ ! Y y O y O.N.D.g.} c ; .       X : l v p : .     . . N B m m m ",
"g g g g . .     o l / #._ v O     . > T o.u.A.K.m...a y ~ 7.j.N.n.7.~ t y ..N.J.Z.u.o.T >       O v ) #./ a O     . . N m m m r ",
"g g g g .       O v #.>.-./ l > : p T $.f.D.P.P.m...a y ] u.B.F.N.u.~ y a ..N.P.P.Z.g.o.T p : : z / -.0.+.K O       . B M M N m ",
"g g g g . .     o l ` :.>.*. ._ )  .2.d.S.P.Y.U.N.| y O a ~ | X.| ~ s * y ..m.U.Y.P.S.d.=.+._ _ +.*.>.:.` z o   . . . N B M N m ",
"g g g g . . .   o p E @.;.,.w.e.e.r.z.C.K.U.Y.U.m.O.x * * > y y y > * O x O.m.I.Y.U.K.C.z.r.e.e.e.>.;.@.E p . .   . X N N N m m ",
"N g g N = $ + X . ; k I ` -.q.k.l.v.b.C.G.J.J.G.n.4.] T n Y Y Y Y Y Y T ] 4.n.F.K.H.G.C.b.v.l.k.w.-.` I k ; . . o = % N m m m m ",
"g g g N d 6 < # . X o q K ( %.,.k.k.x.c.c.m.m.n.h.p.7.5.4.4.5.4.4.4.4.5.7.p.h.n.n.n.n.c.x.l.k.>.%.( J 2 O X . X $ 8 w g r m m m ",
"g g g h N g 8 < # X . X : J ^ @.:.w.t.s.a.a.f.g.g.h.h.h.h.h.h.h.j.j.h.g.h.h.h.g.f.f.s.s.t.q.:.@.^ J ; .   . X + < g g h N r m m ",
"g N g N g g r 6 5 = X   o ; f I ' &.0.8.6.y.i.f.h.h.h.j.h.h.h.h.j.j.g.j.h.h.g.f.u.y.6.8.0.;.+.I f ; o . X # # $ 3 d g g N m r m ",
"g g g g g g e e r 6 ; o .   o q I ` #.$.$.1.6.p.f.d.f.f.f.d.f.f.a.f.f.f.f.f.f.p.5.2.$.$.#.` I q o   . o $ - $ 4 8 g g h N r m N ",
"g g g r r d g h d 0 3 - o . . # q J P P Y ! X.6.i.y.y.i.y.y.y.y.y.y.y.y.y.i.i.5.X.! Y L P v p & . X + $ - 3 < 4 d g h g m h m m ",
"g g e e r r h d w 2 = @ + .   . o & O O * s W X.2.2.2.2.2.2.2.2.2.2.2.2.2.3.2.X.W s * O & # o . . O - 3 0 3 4 4 8 h g g N m M m ",
"r d g r r r f d 6 = @ & # X .             & x T ! ~ ! ! Q ! ! Q ! ! ! ! ! ~ ! R s * .       . X # ; 3 0 0 3 < % 6 g h r h m N N ",
"h g e r e r r d 5 & $ = $ O . .           X & : t t t t y t t y t t t t t t t : * X       . X # : q 0 u 0 3 < , 6 d e h m h M N ",
"e g e e e r q q < ; $ = & # . . . . O * y > * X                             .     .   . X X & 1 0 0 i 0 0 9 < < 8 h g g h N N M ",
"g g e r r r q , < - - - $ O . .   . t Y ] ! x O                                     . X o - 9 9 d 0 d 0 0 0 < 6 d g h N m M N N ",
"g g r r r e 4 % - - : 3 - O X .   X a ~ 1.O.W y * * * * * * > * * > ; ; * * * O X . . X = 1 1 9 0 d d 0 0 6 < 7 h h g N N N h m ",
"e h r r e w 4 % = - : 3 9 - & o X . > n ~ { ] ~ ~ ] ..O.o.X.X...| | ....| ] Q T s * X . o = 1 9 0 i d i d 6 4 d j h h N B B N N ",
"e r r r r w 5 % @ - 1 9 0 0 0 & # . X & t n ] 1.u.j.m.B.B.Z.Z.Z.A.Z.A.A.N.j.y.1.W y .   . O # 9 0 d d i 0 0 , 8 j h C N M B N N ",
"r r r e r w 8 , $ = - 9 0 0 0 0 ; O X . . > Y X.4.p.f.j.j.j.m.F.U.Y.Y.Y.Y.K.Z.y.{ s o     . # - 0 d d d u 4 4 8 j h N N B N V N ",
"r r r r r r w 5 < - - 9 0 0 u 0 3 1 & o . O > c n R W W T W ..u.H.Y.Y.Y.Y.P.N.y.} s .     . # - 0 d i d 8 4 % 8 A j C B B B N N ",
"N r r r r r w 5 $ ; 3 9 0 0 u u u 0 : & o . o . O . O O & > T 2.N.K.P.F.Z.j.p.2.Q t . . . X & 9 0 i i 0 1 4 4 d j C V S B V S C ",
"g g m m r r e 5 % % 3 3 q t u u u 0 6 3 & # X .       o s R ..6.g.g.y.2.X.} ~ T s > . X o & > 9 0 i i i 0 4 4 8 j S S S S S S S ",
"N N N e M r e 5 % = = 3 5 q 3 0 q t u 9 9 - # X     . > W O.6.6.4.o.Q c > * * & O . . o * > 9 9 i i i 0 0 4 4 7 j S F F F F S S ",
"m g N e M e r 5 % % = 5 5 3 u q u q q t 0 3 & & o . . > n { X.} ! Y a O         . . O O - 0 0 0 i i 0 0 4 7 7 g S S H H H F S S ",
"m N N m M r r 7 , % % 2 3 3 q 3 t 3 q 3 3 0 0 3 - o . o : a a y t ; O         . o $ - $ 1 0 i 0 0 i 0 4 7 8 7 j A F F H F F S S ",
"m N N m m m w w 5 2 2 , = 2 q q q > q q q t > q 1 + . . . . . X X X o . X X X X $ 1 1 4 1 0 0 i 0 0 1 1 7 d 8 V A F F H H F F F ",
"m g N m m m M w w 5 5 , % % = : q q p t p p q q : # .         + & % & = $ = # - 1 8 0 4 < < 4 1 1 1 4 4 8 7 7 N F F F F H F F F ",
"m N m N M m m e w q 5 , % % = q q u p p i p > q ; # . . . . o - 6 5 2 2 < 4 4 6 7 d 8 1 4 $ @ @ @ @ 4 4 7 8 d j A A F F H F F S ",
"m e m N M M e w w 5 q 5 2 2 = 5 3 3 u u t 3 q 3 - + . . X = 3 6 w 5 5 5 6 6 6 8 8 w 8 8 4 < @ < 4 @ , 7 d d g V V S F H H F F S ",
"m m m M M M r e 8 5 5 5 5 5 % 2 = = 2 2 : 2 2 1 = # X X $ u g j g w 6 8 d 8 8 w 7 d N 7 7 4 4 6 4 7 7 7 d d j S A S F H F F F F ",
"m m m M M M r e e w w 5 w 5 q 2 2 = ; < < : 2 2 - # X X 1 j A A j h h g g 8 8 g N d N d 7 7 7 7 7 d d 7 N j j j A S F F H F F F ",
"r m m M M m M e e r w w w 5 2 5 5 5 5 5 5 q 5 q 0 8 w e V A j S A r g w e m w g N N N N 8 7 d 8 d 7 N j j j j F S V F F F F S S ",
"m m m m m m e e e w r w w w 5 q 5 5 w 7 q 5 q q 8 8 w g N S V B h r r w w 8 8 e d N N 7 d d 7 8 8 d 7 N N j S j A S A F A S S S ",
"m m r m e m e M e e e e w 7 8 7 7 7 7 7 8 7 8 8 w g N m N B B N m m m m m m m g N N N N N 7 N 7 N 8 N N V V V S S j S S S j S S ",
"r m m r r e r e r e e e w e e e e 8 M 8 m m 8 8 m N B N B B B B N N N m N N N N N N N N N N N N N N N N V S V V S S S S S S V S ",
"m N r e e M r M e r e e e e e e e e e e M m e e m m B B B N N B N N m B m m N N N N N N N N N N N N V V V V j S S j S N S S V V ",
"m m m e e r e r r e e e M e e M e e m e e m r m N B N B B B B B B N B B B m N N N N N N N N N N N N V V V V V S S S S S V S N S "
};
