/* XPM */
static char *oie_5i9SwMBjfqiI1667924032[] = {
/* columns rows colors chars-per-pixel */
"64 64 214 2 ",
"   c #2F231F",
".  c #3F2916",
"X  c #34231D",
"o  c #3A261E",
"O  c #362621",
"+  c #3A2720",
"@  c #372923",
"#  c #3D2A23",
"$  c #452E15",
"%  c #442C1B",
"&  c #4B2F1D",
"*  c #4D321A",
"=  c #54351C",
"-  c #442D26",
";  c #482F27",
":  c #462F28",
">  c #492F28",
",  c #463027",
"<  c #4C3226",
"1  c #463129",
"2  c #4C332A",
"3  c #4F382F",
"4  c #553524",
"5  c #5B3823",
"6  c #52362C",
"7  c #55392E",
"8  c #5A3A2F",
"9  c #4E3A31",
"0  c #563A30",
"q  c #5C3C31",
"w  c #643E2C",
"e  c #623E33",
"r  c #5A4135",
"t  c #5D453A",
"y  c #6C4123",
"u  c #66402E",
"i  c #6C432E",
"p  c #73462A",
"a  c #73452C",
"s  c #7B4B2E",
"d  c #654133",
"f  c #6B4433",
"g  c #62463B",
"h  c #6B4639",
"j  c #63493D",
"k  c #6A4A3C",
"l  c #714733",
"z  c #754935",
"x  c #7B4C35",
"c  c #734B3A",
"v  c #7A4E3A",
"b  c #7C5437",
"n  c #77543D",
"m  c #7C513B",
"M  c #6A4D41",
"N  c #705042",
"B  c #775643",
"V  c #814C2A",
"C  c #85502D",
"Z  c #8C532D",
"A  c #99592E",
"S  c #824F34",
"D  c #845136",
"F  c #8B5535",
"G  c #845339",
"H  c #8B5538",
"J  c #845A3B",
"K  c #8C5939",
"L  c #925732",
"P  c #945A36",
"I  c #9C5C34",
"U  c #915739",
"Y  c #945A39",
"T  c #9A5E3A",
"R  c #A55F30",
"E  c #A05F3A",
"W  c #8A623A",
"Q  c #956137",
"!  c #9C613B",
"~  c #A36136",
"^  c #AA6437",
"/  c #A86836",
"(  c #A4633A",
")  c #AB663B",
"_  c #A5693D",
"`  c #AD6A3C",
"'  c #B2673D",
"]  c #B46B3C",
"[  c #BB6D3D",
"{  c #AC733C",
"}  c #B6713E",
"|  c #BC723F",
" . c #B97C3E",
".. c #C16F3F",
"X. c #C4723F",
"o. c #C8743F",
"O. c #926841",
"+. c #967240",
"@. c #AF6D40",
"#. c #B56F40",
"$. c #AD7A44",
"%. c #AB7B49",
"&. c #B47141",
"*. c #BB7541",
"=. c #B57944",
"-. c #BD7B43",
";. c #C47541",
":. c #CB7641",
">. c #C57B44",
",. c #CC7B43",
"<. c #D17741",
"1. c #D37B43",
"2. c #D97E44",
"3. c #B78E3D",
"4. c #A98542",
"5. c #BE854C",
"6. c #C58446",
"7. c #C4844A",
"8. c #CC854A",
"9. c #C58B4C",
"0. c #CD8B4D",
"q. c #D48144",
"w. c #DB8345",
"e. c #D58844",
"r. c #DC8B46",
"t. c #D38448",
"y. c #DD8649",
"u. c #D58B4C",
"i. c #DE8B4A",
"p. c #C89A49",
"a. c #DD914F",
"s. c #D69A4A",
"d. c #CE8E51",
"f. c #C79456",
"g. c #CC9B55",
"h. c #CD9956",
"j. c #DD9451",
"k. c #D69956",
"l. c #D49E57",
"z. c #DC9A56",
"x. c #E08D4C",
"c. c #E1924F",
"v. c #E19652",
"b. c #E19B55",
"n. c #E19F59",
"m. c #C9AB48",
"M. c #D0A74A",
"N. c #D3B54A",
"B. c #CEA05E",
"V. c #CFA95B",
"C. c #D5A65C",
"Z. c #D4A45E",
"A. c #DEA45C",
"S. c #DCAA5F",
"D. c #D9B65A",
"F. c #E2A45C",
"G. c #E3AA5F",
"H. c #D3A762",
"J. c #D6A962",
"K. c #DDAC62",
"L. c #D7AC6A",
"P. c #DDB364",
"I. c #D9B569",
"U. c #DBB875",
"Y. c #E3AD62",
"T. c #E4B365",
"R. c #E5B966",
"E. c #E8B967",
"W. c #E4B469",
"Q. c #E6BB69",
"!. c #E8BE6A",
"~. c #E4BE7A",
"^. c #DEC74F",
"/. c #DCC55F",
"(. c #E2C75A",
"). c #E2CA5D",
"_. c #E7D558",
"`. c #DFC56D",
"'. c #E4C265",
"]. c #E6CC63",
"[. c #E6C36D",
"{. c #E9C16C",
"}. c #E9CA68",
"|. c #EBD769",
" X c #E9C373",
".X c #E7C877",
"XX c #E5C27A",
"oX c #E8C67C",
"OX c #E9D076",
"+X c #EBDA7A",
"@X c #DBBF8A",
"#X c #DBC682",
"$X c #DDCC96",
"%X c #E5C983",
"&X c #E5C887",
"*X c #E8CA83",
"=X c #EBD78A",
"-X c #E6CD95",
";X c #E9D193",
":X c #E4D29F",
">X c #E9D49C",
",X c #ECDC9C",
"<X c #EEE08C",
"1X c #DFD0AB",
"2X c #E2CDA2",
"3X c #E9D7A5",
"4X c #E4D6B5",
"5X c #EADDB3",
"6X c #E6DABA",
"7X c #E9DDBA",
"8X c #EDE1A7",
"9X c #ECE1B8",
"0X c #E9DEC1",
"qX c #ECE2C3",
/* pixels */
"- - o o + - % + - - - - - - - - - - : : - - - o - - - - - - % - ; ; ; - - - - - - # - - - : : > - > > > - - # # - - ; ; - - - - ",
"- - o - - o - + - - - - - - - - - - ; > ; - # # + - - % + % % % ; - ; ; - - - - - - - - > - - : : : > > - - - - - - - - - - - - ",
"- - - - - - - - - - - > > - > - - - > > ; - - - - - - + o . . $ & ; - - > > - - - - - : > - - : : 2 2 2 2 - ; ; - - - - - - - - ",
"- - - - - - - - - - - > > - > > > > - - - > - ; ; - - - o . . * & ; ; - > > < < 2 > : : > : : : 2 2 2 6 2 < 2 ; ; - - - - - - - ",
"; ; > > ; - > > : > > > > > > > : > > ; 2 - , 2 > > > ; - $ $ * < 4 < < > 6 > 6 2 > 2 2 2 - 2 2 2 3 2 6 2 2 2 ; > > > > - ; > ; ",
"> ; < > ; > > > > > > > > > > > 2 2 2 2 2 2 2 2 2 6 6 6 & & = = 5 4 8 6 6 6 6 6 6 > > > ; 2 , 2 2 > 2 2 2 2 2 2 > > 2 > > > > > ",
"< < 6 2 > > > > 2 2 2 > 2 > > 6 2 2 2 2 2 2 2 3 6 6 6 6 4 4 w w w w w 8 8 0 0 6 6 3 4 2 2 2 < 2 2 2 2 < 2 2 2 4 6 2 > 2 > > < < ",
"6 < 6 < 6 6 6 6 2 2 2 2 6 2 6 > 3 7 2 2 6 6 3 0 6 0 0 8 e w w Z Z Z a e 8 6 0 0 0 6 6 2 4 6 < 4 6 6 6 6 2 6 6 6 2 2 3 > 6 6 2 > ",
"2 6 6 2 6 3 6 3 6 6 2 3 2 3 3 2 2 3 2 6 7 7 0 0 q 8 u i l x F I R Z s w q 8 8 0 0 6 6 6 4 2 6 6 7 7 6 6 6 7 6 6 6 2 2 > 2 2 2 2 ",
"2 6 2 3 3 3 0 3 9 0 0 0 0 0 3 2 0 0 7 7 0 0 q r r d f x H ! _ ) R Z x a w e 8 0 0 7 0 0 7 6 6 6 5 7 7 6 6 6 0 7 0 6 2 2 > 2 2 2 ",
"6 2 6 6 2 6 6 0 6 6 0 0 0 3 0 7 7 q 7 7 0 q r r d i z K ! &.=.*.^ L s a i e 8 8 6 0 0 6 7 7 7 8 u u i w 8 4 8 8 0 6 6 4 2 2 2 4 ",
"6 6 2 3 0 6 6 6 0 0 0 0 0 0 0 7 8 7 8 8 q r d d d l D T @.-.8.6.| I V a f w e 8 8 0 0 0 q 0 8 w y s V p u 5 4 8 7 6 6 6 6 6 2 2 ",
"6 6 6 6 6 0 6 0 6 7 0 8 0 8 0 0 q r w r d d d f l z H T #.>.8.>.| ~ Z s z f d e 8 8 8 8 q q f a Z A A C w w 8 6 6 0 0 0 7 6 6 6 ",
"0 7 0 0 0 0 0 0 0 7 0 8 8 0 q q r u d f f l f z z b K T @.>.>.>.] ~ F D x x z f e e e e q q a F R R A s l 8 8 0 0 0 0 0 8 7 6 2 ",
"8 7 7 0 0 6 0 0 0 8 8 8 0 q e e f f z z x b S D H K U T _ &.| [ ) I L H D G x z l e e e q e l S L L Z l e e 8 6 0 0 8 6 6 6 4 2 ",
"8 8 8 7 0 0 0 0 8 0 0 8 e w u i a x x D K L T T T T T ! _ ` ] ] ^ ( ! Y L F H D v z z e e e f x x l i u 0 8 8 0 0 6 6 0 0 6 6 6 ",
"8 8 8 8 8 0 0 0 0 q q 8 d u i l x b G T ( ) ) ^ _ _ ( _ ` &.X.[ [ [ ' E R E I F D x z f d e e e d u 8 0 0 0 0 7 6 6 6 7 8 8 6 6 ",
"q q q q q 8 8 8 q r 0 d d i l z D F T ) *.;.*.] ` { { &.*.:.o.o.o.<.<.;.] ) E I U F D x f d w w d 8 8 8 0 0 0 8 6 6 6 8 6 6 0 6 ",
"8 8 8 q q 8 0 q 8 8 8 i l l b F T ( ) ] ;.,.,.| | }  .>.,.1.2.2.o.2.2.<.;.[ ] ^ ( Y K D x f u d d d q 8 7 0 0 0 6 6 6 6 4 7 7 7 ",
"8 8 0 8 8 0 0 8 8 8 d f z z D P ( ' [ ;.,.q.e.,.>.,.:.1.q.2.2.2.2.2.2.2.<.:.o...) ( P K D z f i u u q 8 7 7 0 7 0 0 6 6 6 7 7 7 ",
"8 0 0 0 0 0 0 0 8 e f f z v H T ' | o.o.q.r.s.e.q.1.q.w.w.w.w.2.2.2.2.x.w.2.o.o.[ _ _ T H b z l f 8 8 8 0 0 0 0 8 7 7 7 0 7 7 7 ",
"8 8 8 8 8 q 8 e e e f c v G Y ( [ o.q.2.q.r.r.r.w.w.w.2.w.y.w.y.2.2.2.2.o.w.w.o.X.[ ) ^ T G x x f u 8 8 8 0 7 7 7 7 6 7 7 7 7 6 ",
"8 8 0 8 8 q 8 e e f h v G H T ) [ :.o.x.w.r.r.r.w.w.w.y.y.i.x.x.x.x.x.2.w.w.x.o.o.X.' ) ( L F z f d 8 8 8 0 0 q 0 8 0 0 0 0 7 4 ",
"8 8 0 0 q 8 8 8 e e l B H Y ( ' X.1.o.w.w.x.r.r.w.x.x.x.x.v.v.v.c.x.x.x.w.w.w.w.w.X.[ ` / Q J b z f u 8 8 8 0 8 8 0 0 0 0 q 0 6 ",
"q q 8 q 8 8 q e e h c G K T _ ] ;.:.q.w.x.2.x.x.x.x.x.c.v.n.F.F.b.b.c.x.x.w.w.o.w.:.X.] ` ! W J b z e e 8 8 e 8 0 0 0 0 q 0 0 0 ",
"e q e q 8 e q e M h N G K T ) *.,.1.w.w.2.x.x.x.x.x.b.F.F.Y.Y.Y.G.F.v.x.x.x.x.x.w.q.1.;.} _ ! P D x z f e e 8 8 8 7 6 8 0 0 0 0 ",
"q q 8 e e e e e N N G H Y ( ] ;.1.2.w.w.x.x.x.v.v.A.G.T.W.W.W.E.T.G.b.c.x.x.x.x.r.w.q.q. .] _ P H D S z l w w 8 8 8 6 6 0 6 0 0 ",
"e q 8 e e e c e c G H Y T ) [ ;.1.2.2.x.x.v.v.z.F.G.R.!.!.!.!.!.E.T.F.v.x.x.x.x.i.r.q.o.>.] ^ I L H S z l f e e 8 8 8 0 6 0 0 0 ",
"q 8 8 q e e e G x G K T ( @.;.,.2.y.i.v.n.z.z.G.G.T.!.{.{. X{.{.E.E.G.v.x.x.x.x.x.r.w.q.o.| ] ^ ! L F b x z f e 8 8 8 8 0 6 6 0 ",
"q q q e e e e c G G U T @.-.,.u.j.v.n.Y.Y.Y.A.A.P.!. X.X*XoX.X{.E.E.G.b.c.x.w.w.w.x.x.w.t.8.>.| ' ~ P F D x z f e e 8 8 0 0 0 6 ",
"q q q e e h N v G U T @.*.0.z.A.G.Y.T.T.Y.Y.F.G.T.{..X;X>X;XoX X!.E.G.F.v.c.x.x.x.c.c.c.z.j.a.t.,.| ' ~ I S S l w e e 8 0 8 0 6 ",
"e q q e h h c G H Y @.#.8.z.Y.Y.T.T.E.W.W.T.G.Y.T.{..X*X;X*XoX X{.{.E.G.F.c.c.c.b.F.F.F.G.G.F.A.j.t.>.[ E I D S x z e e 0 0 0 0 ",
"e e e c e e c G H T #.7.a.K.Y.W.T.T.T.T.Q.T.T.T.!.!.!. XoXoX.X X{.!.E.E.G.F.F.F.G.Y.T.T.T.Y.Y.Y.Y.b.i.,.*.@.T H v l i e 0 7 7 0 ",
"e e e e e e x G H ] *.8.k.Y.W.W.Y.T.T.T.!.!.{.!.!.!.!.!.{.{.{.{.{.!.{.E.E.E.E.E.R.!.E.!.Y.Y.W.Y.Y.Y.Y.z.d.-.@.Y D z z e w 8 8 7 ",
"e e e e e S D H Y ) ;.d.z.Y.W.W.W.T.T.!.{.{.!.!.!.!.!.!.!.{.!.{.!.!.!.{.!.{.E.{.!.!.!.!.T.T.Y.W.T.T.Y.F.j.8.#.T G z l e e 0 8 6 ",
"e e e e e e e D T ' >.a.z.K.T.W.T.T.T.R.!.!.{.{.!.Q.!.!.!.{.{.{.{.!.!.{.{.{.{.{.!.!.E.T.W.W.Y.T.T.Y.Y.n.j.t.#.E G S l e e e 8 8 ",
"e x e e e x S G I ' :.y.z.F.Y.Y.K.K.J.P.R.R.Q.W.E.W.Q.!. XoX%X*X*X X{.{.}.{.{.{.{.!.R.T.W.W.W.Y.Y.Y.Y.v.i.1.#.E U S S e e e 8 8 ",
"e e e c e e x H Y #.,.y.j.n.G.J.J.Z.D.D.D.P.P.P.Y.Y.W.~.%X;X3X:X-X*X X{.{.{.{.{.!.Q.T.T.L.W.Y.Y.Y.T.Y.n.u.1.#.E H D e e w 0 8 8 ",
"e e e e e x v G U @.,.y.i.j.z.k.g.V.D.).).).P.K.J.J.U.&X3X7X9X6X3X-X*X X{.{.{.{.Q.!.W.Y.Y.Y.Y.F.Y.Y.Y.v.y.:.#.E H x e e q 8 8 8 ",
"e e e e e e l S U ( #.:.1.8.8.6.f.M.D.].|.|.]./.P.U.@X2X6XqXqXqX7X3X&XoX!.E.E.E.I.P.P.K.Y.K.K.K.n.n.v.i.,.;.) Y D e e e q 8 8 8 ",
"e e e e e x x x S U ) [ ;.;...| -.9.M.T.}.|.|.].`.#X:X4X9XqX0X0X7X3X>X*X[.R.T.J.K.J.P.K.K.Y.K.F.n.j.2.<...' E G S e x e e e 8 q ",
"e e h e e e h x S G T #.;.[ ' ' } 5.0.Z.P.'.}.{.`.#X1X9X0X6X4X6X7X5X>X=XOX{.R.P.J.V.C.C.J.K.G.b.j.u.,...E U G x x e e e e e q q ",
"e h e e e e e e v G Y E ' ..[ ' ^ } X.9.u.l.A.Z.I.U.$X1X4X4X4X6X9X9X8X<X+XOX XQ.I.H.h.h.g.k.a.y.2.:...E U G x x z e e e e q q 8 ",
"e e e e h e e x l S G U E ' ' ' ] ]  .} -.6.0.p.V.`.#X:X2X1X8X9X9X9X,X=X.X{.I.I.L.B.f.9.>.>.,.:.:.#.E U G x x x e e e e 8 8 e q ",
"e f e e e e e l l z v S K I ! E ~ / ~ { `  .3.m.N./.OX+X<X,X8X9X9X3X;X~.W.Y.Z.g.f.9.7.*.| ] [ [ ' Y U G G x e x e q q q q e 8 8 ",
"e e e e e e e f e f e v z m D b s C Z Q { 3.p.N.N._._.|.+X=X,X>X>X-X@XL.l.g.9.5.=.*.} ' ) ) ) E U G v G x x e e e q q q 8 8 8 8 ",
"e e e e e e e e e h f f f d d i i i b b 4.3.m.N.^._._.(.].XX%X%X~.~.J.f.7.=.{ ` ( I I P T T Y H G G e v e x e e e q 8 q 8 8 e 8 ",
"e e q e 0 e e e e e d e q q d j j k n n B W 3.p.m.N.M.g.l.V.H.H.B.f.7.=._ ! U F D x x x D D H D x e x e e e e e e q q q 8 e 8 e ",
"e e 0 e e e e e e e e q 6 q g h j M M N B B O.O.+.4.$.$.$.%.%.%.%.! Q K H S z l e w e e l x x c e e x e g e q q e e q q q e q q ",
"e e e q e e e e e e q 6 6 q g M M M M M B B N M b W J J J J b b b x z f f f e q 8 8 8 0 e e e e e e e e e e q e e e g q q q q q ",
"e e e e h e h e e q > 6 9 0 g g M M M M M M j t g d k k g d 8 6 7 8 w 8 8 8 6 2 2 2 6 2 2 6 0 0 e w e e q q q q q q e q q q q q ",
"e e e e e e e e e q 8 7 0 q g g j j j j M M j t r q 8 7 0 2 < 2 2 2 2 6 6 2 : - - > > > > > : 9 8 e e e q 0 q q q q q q t q q q ",
"e e e e e e e e q q 3 0 r t t t t t j j j j t t 7 3 , - - # - - , , - , : - - - - - 1 2 : : : : > 6 0 8 0 0 q q q q t q q q q e ",
"e e h e e e e e q q > 9 0 t g g j t j j j M t t 3 , # o O # + + o - # # # # # # - : : 2 2 1 : : - > 7 0 0 q 0 0 q q q q q q e q ",
"e h e h e e e e e 0 : 9 9 r t t t t t j M t q 9 1 # @ X X X   X @ # # # # @ # # 1 1 1 2 : 1 : # - : 2 0 0 q 0 q q q q q e t q e ",
"h e e e e e h e q 6 : : : 0 0 t t t j j j q 0 : @ o o X X         @ # @ @ @ 1 1 1 2 1 1 0 : : : # : 6 6 0 0 0 q q q q e q q q q ",
"e e e e e e e q q 0 > : : > 3 0 0 t t q 9 9 : O X X X O O O O O O X X X X o # 1 > > 2 : : : # @ # : 1 0 0 0 0 q t q q q q t q q ",
"e e e e q q e q q q 6 : : # : > 3 3 9 9 1 : +     X X # # - - # @ X X   X X # # : > > 2 1 # @ @ @ : 6 0 q 0 q q q q q q q q q q ",
"g q e e e q e e e e q 6 > # # : - - - - # # @ O X + - - > 2 1 : # # X X X X X @ # - > > : # @ @ # > 6 0 q 0 q q q q q q e q e q ",
"e e e e e e e e e e e q 0 > : # - - + + @ @ # # - - 2 2 6 2 3 2 2 2 - # o X X X X + + + @ @ @ # : 0 0 q 0 q q q q 0 0 q q q q e ",
"e e e e e e e e e e e e q 0 > > - - - - # - : : 2 0 0 0 0 0 0 0 7 7 2 - - - # X X + + X X + # > 6 0 0 0 q q q q 0 0 q q e e e q ",
"e e e e e e e e e e e e q q 0 6 2 > - > 2 3 6 0 0 q q q q q q d e q 0 7 6 2 < - + + + + # > > > 0 0 8 8 q q e q q q q q q q q q ",
"e e e g e e e e e e e e e e e q 8 0 8 8 0 8 q q e q q q q q e e d d e e q 8 7 2 > - # > > 6 0 q 0 0 8 0 q e q q q q q q q q q q ",
"e e e e e e q e e e h e e e e e e q q q q q q q e e e e e e e e f f d e e e e 8 2 > > > 6 0 q q q 0 q q q g q q q q q q q q q q "
};
