/* XPM */
static char *oie_dH8enOKnZrdn1667924199[] = {
/* columns rows colors chars-per-pixel */
"64 64 216 2 ",
"   c #35231E",
".  c #38241F",
"X  c #352621",
"o  c #382721",
"O  c #372823",
"+  c #3C2A24",
"@  c #3E2F28",
"#  c #482A19",
"$  c #56301A",
"%  c #693A1D",
"&  c #442D25",
"*  c #482F26",
"=  c #442F28",
"-  c #492F28",
";  c #473027",
":  c #493027",
">  c #453129",
",  c #4C332B",
"<  c #583726",
"1  c #52362D",
"2  c #56382E",
"3  c #5B3A2E",
"4  c #4F3830",
"5  c #523730",
"6  c #553A31",
"7  c #5D3C31",
"8  c #643B23",
"9  c #623E2D",
"0  c #633E33",
"q  c #5C4135",
"w  c #5D4439",
"e  c #6C4024",
"r  c #66402F",
"t  c #69422E",
"y  c #75462B",
"u  c #7A492C",
"i  c #664133",
"p  c #6B4432",
"a  c #6D4837",
"s  c #61463B",
"d  c #65493E",
"f  c #6A493C",
"g  c #714733",
"h  c #744934",
"j  c #7B4D35",
"k  c #734D3D",
"l  c #7B533B",
"z  c #7C5338",
"x  c #6C4D41",
"c  c #714F41",
"v  c #6F5043",
"b  c #735344",
"n  c #7B5644",
"m  c #7B5C46",
"M  c #854D29",
"N  c #8A512C",
"B  c #9A592D",
"V  c #814F36",
"C  c #845236",
"Z  c #8B5537",
"A  c #8B5638",
"S  c #875938",
"D  c #905737",
"F  c #945A35",
"G  c #9A5C36",
"H  c #935A39",
"J  c #9C5E3A",
"K  c #A05F38",
"L  c #8C603D",
"P  c #97623C",
"I  c #9D6139",
"U  c #AB6334",
"Y  c #A3623B",
"T  c #A36639",
"R  c #AB653B",
"E  c #AD6B3C",
"W  c #B1673A",
"Q  c #B36A3C",
"!  c #BB6D3D",
"~  c #AA733D",
"^  c #B3703D",
"/  c #BC713E",
"(  c #C16F3D",
")  c #C4723E",
"_  c #CB753E",
"`  c #C77D3D",
"'  c #CC7C3F",
"]  c #D2793F",
"[  c #845F41",
"{  c #87664A",
"}  c #966743",
"|  c #987647",
" . c #9A7853",
".. c #A77344",
"X. c #B47742",
"o. c #BB7C43",
"O. c #C57441",
"+. c #CB7540",
"@. c #C37B43",
"#. c #CC7B41",
"$. c #D17740",
"%. c #D47C42",
"&. c #DB7E44",
"*. c #AB8748",
"=. c #B98648",
"-. c #BD8A4C",
";. c #B6934C",
":. c #A88352",
">. c #BDA349",
",. c #B89C69",
"<. c #BFA57A",
"1. c #CD8145",
"2. c #C7864A",
"3. c #C18C4B",
"4. c #D38345",
"5. c #DC8346",
"6. c #DB8C44",
"7. c #D48748",
"8. c #DD8648",
"9. c #D58A4A",
"0. c #DD8B4B",
"q. c #C79A4D",
"w. c #DB9549",
"e. c #DB914E",
"r. c #C38F51",
"t. c #C89957",
"y. c #D69752",
"u. c #DC9451",
"i. c #DC9C54",
"p. c #D49E5A",
"a. c #E08B4C",
"s. c #E1914F",
"d. c #E19552",
"f. c #E19B56",
"g. c #E29E58",
"h. c #DDA24D",
"j. c #D5AF4C",
"k. c #CDB24B",
"l. c #CDA659",
"z. c #DCA353",
"x. c #D8A758",
"c. c #DDA45A",
"v. c #DDAA5C",
"b. c #D9B657",
"n. c #DBBB5A",
"m. c #E2A55C",
"M. c #E1AA5E",
"N. c #E1B156",
"B. c #CBA867",
"V. c #D5AA66",
"C. c #D8B666",
"Z. c #DDB46C",
"A. c #CBAB79",
"S. c #D2AD74",
"D. c #D7B678",
"F. c #E3AE62",
"G. c #E4B365",
"H. c #E4BA65",
"J. c #E5B669",
"K. c #E6B96B",
"L. c #E8BD6D",
"P. c #E6BD74",
"I. c #E5BE76",
"U. c #DEC754",
"Y. c #E3CB58",
"T. c #E7D45B",
"R. c #DBC466",
"E. c #DEC976",
"W. c #E3CD63",
"Q. c #E6C46B",
"!. c #E8C46E",
"~. c #E9D968",
"^. c #EAC371",
"/. c #E6C17B",
"(. c #E8C478",
"). c #E9D876",
"_. c #EDE377",
"`. c #CFB581",
"'. c #DABD85",
"]. c #D3BD91",
"[. c #DBC788",
"{. c #DDC593",
"}. c #DCC99F",
"|. c #DFD09C",
" X c #E5C382",
".X c #E9CC87",
"XX c #E3C48B",
"oX c #E6C98C",
"OX c #E8D58B",
"+X c #E2C793",
"@X c #E5CA92",
"#X c #E4CC9D",
"$X c #E9D194",
"%X c #E6D29C",
"&X c #EBD69C",
"*X c #ECE189",
"=X c #F0E788",
"-X c #EDE29B",
";X c #DBC8A6",
":X c #E2CDA3",
">X c #E5D2A4",
",X c #E6D5AB",
"<X c #E9D9A9",
"1X c #E1CFB7",
"2X c #E3D4B2",
"3X c #E6D9B5",
"4X c #E9DBB4",
"5X c #E3D4BA",
"6X c #E6DABB",
"7X c #E9DDBD",
"8X c #EDE2AD",
"9X c #EDE3B5",
"0X c #EBE1BD",
"qX c #E9DEC1",
"wX c #ECE3C4",
"eX c #EEE5C9",
/* pixels */
"& & + & & o & & & & & & & # & & ; ; : : ; : , , , , : , , , 1 1 2 2 2 2 , : : * - - , , , - - * & & * : : - * & & * & & & & & & ",
"& + . & & & & & & & & & & & & & , , , , , , , , , , , , 1 , , 1 1 2 2 3 2 1 5 , - - - , , - * & & * * : : : * & & & * & & & & & ",
"* * & * - * - - - - - & * - - , , 1 1 1 1 1 1 1 1 1 1 , , : * # < 9 9 9 7 3 7 6 2 1 , , - - * * * : : : : : : : * & & & * - * * ",
", - * * - - - - - 1 1 < < , 1 9 q 2 2 2 2 2 2 3 3 2 3 1 : # # # $ 8 y y t i 9 3 3 2 2 1 - - * - , , 1 : , , : , * & & & * - - * ",
": , - - , - - - : 1 1 2 1 3 9 M u y p r 3 < 2 3 3 3 9 9 < # # $ % M N M M t 9 < < 3 2 1 , - - , , , 1 , : , , : ; ; ; ; - 1 : < ",
", : , : , , , - 1 1 2 3 9 9 j F F B C h t 9 3 3 r p t t t 8 % y M B B B N u e 9 9 9 < 2 1 , , - 1 1 1 : 1 , , , , , > > : : : - ",
", , 1 1 1 , , , 1 1 2 3 r u D T ~ E I A j t p p p h h h j u Z B U U U U G M u t 9 8 3 < < 1 , 1 1 1 1 1 1 , 1 , , , , , : > : , ",
", , 1 4 5 4 4 4 5 2 3 r h S ~ ~ o.o.E G V j h h g h z C A J U Q ( ( ) ! R G C j 0 9 9 9 9 < 2 < 1 1 : 1 : 1 1 1 2 , , , , , : : ",
"5 , , 5 4 5 5 6 6 7 3 i j F E 2.2.2.^ Y D C j j z C D G K W ! ) ' ' ' _ / R H C j g p r 0 9 9 9 3 < 1 1 3 1 2 , 4 , , , , , : , ",
"5 4 4 , - 5 6 2 7 7 7 i u D E / @.` Q I A C C C A J K R Q ( _ ] ] ' ' ] ) Q Y H C V h g y 0 9 9 3 3 3 < 1 2 1 1 , , , , , , , , ",
"5 5 , 4 5 5 2 2 7 7 7 0 g z I E ! / R G Z C A H J R W ( _ _ ] ] ' ' ' ' _ / Q Y J H Z j h g 0 0 p r 3 3 3 1 1 1 1 , 1 4 1 , , < ",
"2 6 6 5 , 1 1 2 6 3 7 3 r g C G Y Y F D Z Z H I K W ( _ ] &.] ' ` ` ' ' ' #./ Q R K H A N V V u p p r q 3 3 1 3 2 2 1 , , , , , ",
"2 7 5 2 2 2 2 6 7 7 7 3 r g h C Z Z Z D H G K R X.! ( ] ] a.] ' ' ' ` 1.4.1.#.@.! Q K J H C V 0 g t t r r < 3 3 < 1 , , , , 1 , ",
"2 2 2 2 6 3 3 7 3 3 i r t h h z z C Z F J K W Q ! ( _ &.5.5.a.&.4.6.7.7.9.7.1.@.+.o.X.R K H C V h h g r r < 3 1 1 1 1 , 1 1 1 , ",
"2 2 7 2 6 2 3 2 7 3 i g h j z C C A H K Y Q ! ( ) ] ] &.8.8.0.e.y.y.y.y.w.y.9.7.#.#.O.Q ..K H D C h g t t r r < 3 1 , , , 1 , q ",
"0 7 7 7 7 3 3 7 i i a h h j C Z H H Y R Q X.( ] ] &.&.&.8.e.i.i.i.i.i.h.i.y.e.9.7.#.@.O.! W K K Z C h h g t t r 3 q q 1 1 1 1 > ",
"7 7 3 0 3 0 9 0 0 k h j V C A D J Y R ! / O.%.%.5.6.w.h.h.h.z.x.z.h.h.z.c.i.i.u.0.7.4.@.) ! ! R I D C C j h g t t 9 3 7 3 2 2 3 ",
"9 7 3 0 3 0 9 0 0 h j V C } K K W X.O.O.#.%.4.5.w.h.j.N.N.U.N.v.z.N.z.z.c.c.i.i.u.0.7.7.1.#.' ) Q E J A V j g t p p 0 9 7 7 7 2 ",
"7 7 3 3 0 9 0 0 0 V V A H K Q ! O.O.+.%.4.5.8.e.h.b.U.T.T.Y.J.G.F.v.v.v.M.v.c.i.i.e.6.9.9.9.7.1.' ! Q K F V j h g t p r 9 3 2 2 ",
"7 7 3 7 9 0 9 0 0 V A K W ! ( +.+.$.%.&.8.s.s.i.z.b.U.Y.T.Y.Q.Q.H.H.G.F.G.G.F.v.c.f.f.u.u.e.6.9.4.' ) ! U G Z V j g p t 0 7 3 2 ",
"7 7 7 3 0 9 g g V Z J W O.O.+.$.$.&.5.a.s.s.f.z.v.b.n.R.Q.~.^.^.!.L.J.G.G.G.F.v.m.m.f.i.g.i.i.i.w.7.7.@./ U F V j p p t 9 9 3 2 ",
"3 3 2 7 0 9 g u V J R X.O.+.$.&.&.8.a.s.f.m.m.M.v.F.H.H.Q.!.^.^.^.L.L.L.G.G.F.G.F.M.m.m.M.M.M.M.z.y.9.7.@.E J C j h g t 9 3 3 < ",
"7 3 7 7 0 0 g V Z K W O.+.$.&.8.a.a.s.f.z.c.M.G.G.J.L.L.^.^.^.^.^.^.L.L.J.G.G.G.G.J.G.F.F.G.G.F.c.i.y.9.#.^ Y D j j g t 9 < 3 2 ",
"9 3 3 0 0 0 g j Z K X.O.$.&.&.a.a.f.m.m.M.G.G.G.J.K.^.^.^.L.L.L.L.P.I.I.I.K.K.K.J.G.F.G.G.G.G.M.c.i.e.9.1.) Q J C j h t 8 9 < 2 ",
"7 3 0 3 0 p h j A K ..( +.&.&.8.d.g.m.M.G.J.J.J.J.J.K.L.L.L.J.K.L.(./..X/.(.P.L.G.G.G.G.G.G.G.M.i.u.0.5.%.+.X.K Z j p t r 3 3 < ",
"7 7 7 9 0 0 h V A H K W O.$.&.&.u.m.M.G.J.J.I.J.J.G.G.J.L.L.L.L.(..X$X@XoX/.^.J.L.G.G.G.F.F.M.m.g.0.8.5.&.$.O.K A h p r r r 3 2 ",
"7 3 0 9 a a h j C D K R X.+.&.&.0.i.c.M.G.J.J.J.G.G.J.K.L.L.L.^.(.$X%X$XoX/.P.G.G.G.G.G.F.M.m.f.u.0.5.&.%.+.X.K Z h t p t r q 3 ",
"7 0 3 0 0 0 a j C D J X.O.&.&.&.8.0.d.m.F.G.G.J.G.G.J.L.L.L.^..X$X,X,X>X@X/.L.J.J.G.G.G.F.M.f.d.a.8.&.%.+.X.R H C h t t r r 3 3 ",
"0 7 0 0 0 f g V C G Y O.+.$.&.&.&.a.s.g.F.F.G.G.G.H.J.L.L.(..X&X<X3X5X>XoX/.L.J.G.J.G.G.G.m.d.s.a.a.&.$.O.Q J A z h g t r 9 7 7 ",
"7 0 0 0 0 a h V C G Y O.$.&.&.&.&.5.a.f.F.F.F.F.G.G.K.P.(.&X<X9XwXwX3X:XoXI.L.J.J.G.G.G.F.g.d.a.a.&.%._ ! R G A j h t t r i 7 7 ",
"7 7 0 0 a h j V A K R O.$.&.&.&.&.a.a.d.g.F.F.J.J.P. XoX&X<X9XwXeXwX6X:XXXI.K.J.J.G.G.G.F.f.s.a.&.&.+.! R J D Z C y p t r 3 7 7 ",
"0 7 0 0 0 j j V D Y Q +.&.&.&.&.a.a.s.f.F.J.J.I. XoX>X<X8X0XwXeXeXeX7X,X+XI.P.J.J.G.G.F.m.f.d.8.&.+.O.R I J D Z j h p t r 7 7 7 ",
"0 0 0 0 0 h V C H K X.$.&.&.5.8.s.d.i.F.G.K.(.XX|.2X3X6XwXwXeXeXeXwXwX3X#X XI.K.G.G.G.F.g.f.d.a.&.+.X.K G D D Z V 0 0 0 0 9 0 0 ",
"0 0 0 0 g 0 V V J W ( &.&.a.a.s.i.F.F.J.L.(.oX%X2X7XwXeXwXeXwXwXeXeXwX7X,X@X XP.J.G.F.m.g.g.f.s.8.+.X.W J } [ D V y y 0 0 0 0 9 ",
"0 0 0 j h V V D K W O.$.&.a.d.g.F.F.G.G.J.I.@X,X0XwXeXqX7X7X0XwXeXeXeXwX4X,X@XI.K.G.G.G.G.m.g.d.a.&.+.X.W K D Z V g 0 0 0 0 3 3 ",
"0 0 0 g 0 j V D K X.+.&.&.a.u.c.c.V.v.Z.D.].;X1X6X0XwXqX5X6X0XwXeXeXeXeXqX4X>XXXI.J.J.G.J.G.m.g.d.&.$.+.( R K D V g y 0 0 3 7 3 ",
"0 0 0 p j j V D K ! +.$.5.6.y.z.p.l.l.C.E.{.;X1X5X5XwX6X6XqXwXwXeXeXeXeXwX4X,X+X XP.J.J.K.G.F.f.f.a.&.%.O...J [ Z 0 M 0 0 0 3 3 ",
"p p 0 g 0 V V [ J W +.$.%.1.2.t.l.C.R.E.[.|.1X1X1X5X5X0XwXwXeXeXeXeXeXeXwXqX,X#XXX(.K.J.K.G.G.m.f.s.0.%.O.Q J C V V 0 0 9 3 7 7 ",
"0 0 i g V V C Z } R ! ! / =.3.q.U.W.~._.*X-X9X5X6X5X6X0XwXeXeXeXwXeXwXwXqX7X5X:X{.D.P.G.G.G.F.F.f.d.a.&.O.R J A V 0 u 0 0 3 3 7 ",
"0 0 i a 0 j V C Z K R R ^ ^ -.j.n.W.~._.=X-X9XwXwXqXqXwXwXwXqX7X7X0XeXeXqX7X5X2X#X].D.S.F.G.F.F.g.d.8.#.O.R } C V j 0 0 0 0 3 3 ",
"i i i g p k V V Z D J U R Q =.q.>.C.R.~.*X-X8X0XwXwXwXwXwX5X6X5X7X7XwXeXqX7X6X6X,X}.'.S.V.V.V.i.d.8.$.O.X.K D C j 0 g 0 0 9 0 9 ",
"i a p k i g g k C A K R Q Q / / -.>.l.C.E.$X>X2X5X6X5XwX0X5X5X5X7XwXwXwXqX7XqX6X5X#X[.S.V.B.p.u.9.%.+.X.K H Z V V V u 9 9 0 7 9 ",
"0 i a p 0 p p j C Z J R ! ! ! / o.3.t.B.B.`.[.;X;X1X5X0XwX6X5X6X7XeXwXqXqX7X3X<X#XXXZ.V.p.t.2.2.#.O.O.R K D C j 0 u 0 0 0 0 7 0 ",
"0 0 0 0 0 0 0 g j C A I R R W Q X.o.-.t.,.B.A.].;X2X6XwXwX6X0X0X0XeXwX7X7X3X>X@XI.S.V.p.r.2.@.) X.X.R Y J C j u h 0 0 9 3 3 3 3 ",
"0 0 p 0 0 0 g k h h j z N I T ~ ^ o.;.q.l.n.R.[.%X8X9X0XwXwXqX0X0X0X7X6X2X>X{.D.S.l.t.3.@./ / ! W Y K [ A V g g 0 0 7 7 3 3 3 3 ",
"0 0 p 0 g 0 i 0 p p t g h z S P ~ o.j.b.T.T.~._.OX-X8X9X0XwX0X6X3X<X>X:X{.'.S.B.t.r.=.X.^ / / Q R } D D V V 0 g 0 0 0 7 0 7 7 0 ",
"0 i i k i i i p p i t p a k z L ~ >.k.U.T.T.Y.~.).$X%X<X3X7X5X2X#X{.`.A.S.B.t.3.o.X.^ Q Q Q E Y D D V V j 0 0 9 0 0 0 0 0 0 0 7 ",
"i i i i 0 p 0 0 i i q s f k z m P *.>.k.k.b.b.b.K.D.[.|.}.}.;X{.`.B.B.t.-.-.o...} I J J Y J G D D V j j j V 0 0 0 0 7 7 7 7 7 7 ",
"k 0 p p 0 0 0 0 0 7 7 s x x b n { :.:.*.*.;.2.r.t.V.V.A.A.<.<.,.,.;.=.*.^ ~ T P Z C j V Z C V V j V 0 j 0 0 0 0 0 0 7 2 7 7 7 7 ",
"0 0 0 0 0 0 0 0 5 5 7 0 d x b n m m m { { } } } ..X.*...:.:. .| | | } P P D C j g t i i i p p 0 0 0 0 0 a 0 0 0 0 0 0 2 2 2 2 5 ",
"k 0 0 0 0 0 0 7 5 5 7 0 x x c b b b b m m n C S z S S [ z l k l j k z h h t r r 3 3 7 7 7 7 6 6 7 0 0 0 f 0 0 0 0 0 0 3 3 2 2 2 ",
"0 0 0 0 0 0 0 7 5 5 5 0 d x x x x x v b b b x a p p i i r 3 q r 0 0 7 3 7 < < 1 1 < 2 2 6 1 5 , - 5 0 0 0 0 0 0 0 0 0 0 3 3 3 3 ",
"0 0 0 k 0 0 0 5 5 5 5 s d x x x x x x v b b f q q 1 2 2 4 1 1 1 1 : , , , , , , , , 1 1 4 4 4 , - - - 5 5 7 7 0 0 0 0 7 0 7 7 7 ",
"0 0 0 0 g 0 0 5 5 5 5 5 0 d x s w x x x v f i 6 , , ; , > > > ; * = * - : > , , , 1 5 , , , - = = - = 4 5 5 7 7 0 7 0 0 7 7 0 7 ",
"0 0 0 0 0 0 0 5 = 5 5 5 w s s s w x d d d w 6 4 > @ @ @ @ @ + + o @ @ @ @ @ > 4 4 4 4 , > , , = = = = - 5 6 7 7 7 7 0 7 7 0 7 0 ",
"0 0 0 0 0 0 0 5 - = 5 5 5 s s s x w w q q 4 > > @ + + O + + O O X o X X O @ @ > , , , > - > , = = = = = 5 5 7 7 7 7 7 7 7 7 0 7 ",
"0 0 0 0 0 0 7 5 - = = 5 5 5 w w w w w 4 > @ + O + + + o o O @ o o X       X + & @ > > > 4 4 , = = + + = 5 6 6 7 6 7 7 7 0 0 0 0 ",
"i 0 a 0 0 0 0 5 5 = o = = 5 5 5 6 6 4 4 @ @ O + + + + + & & & + o X . .   X o o + + @ @ > > > @ O O + = 5 5 6 w 7 7 7 7 7 7 7 7 ",
"i 0 0 p 0 i 0 7 5 = + o o = = = : > > = @ @ + & & & - * & & - & & & o o + + o X X X O + @ @ @ + X + = = 5 5 7 7 0 7 0 7 0 7 7 7 ",
"0 a a g i 0 0 0 5 5 - = + + @ @ + + & & > > & & & * - - 5 - - - - * * & & & o X         O O O + O @ = > 5 5 7 7 0 7 0 7 7 0 0 w ",
"0 0 k i 0 i i 0 0 2 1 - - - - - & & : : - - , , , , 5 6 5 3 3 3 2 < 1 - - - & o . .     o o X + @ = 4 > 5 5 7 7 s 0 0 7 7 w 0 7 ",
"0 0 p i 0 0 i i 0 0 7 1 - - - 5 1 1 , 1 1 1 6 6 5 6 7 7 7 0 0 7 0 7 7 1 - - & & & & . & + + @ @ = = > 5 5 5 7 w 7 s 0 7 0 7 7 7 ",
"i 0 i i 0 0 0 0 0 0 7 5 5 5 5 5 2 2 2 2 6 2 7 7 0 0 0 0 0 0 0 0 0 0 0 1 1 , - 1 , - - - - - - - - 5 5 5 7 7 7 7 7 7 7 w 7 7 0 7 ",
"0 i i i 0 0 7 7 7 7 0 0 0 7 7 0 7 0 7 7 7 7 0 0 0 0 i 0 0 0 0 0 0 7 3 0 3 2 7 2 5 5 5 5 , , 5 5 5 6 5 7 5 7 7 6 7 7 7 7 7 7 7 7 "
};
