/* XPM */
static char *oie_8172350ABEMl45f1667924656[] = {
/* columns rows colors chars-per-pixel */
"64 64 52 1 ",
"  c None",
". c #1A1616",
"X c #251F1E",
"o c #26201F",
"O c #272120",
"+ c #2A2423",
"@ c #2E2827",
"# c #2F2928",
"$ c #302726",
"% c #302827",
"& c #342C2B",
"* c #382F2E",
"= c #37312F",
"- c #39302F",
"; c #373130",
": c #3C3332",
"> c #423735",
", c #433836",
"< c #453B39",
"1 c #493E3C",
"2 c #47403F",
"3 c #4B403F",
"4 c #4D4341",
"5 c #4F4847",
"6 c #504644",
"7 c #524847",
"8 c #554C4A",
"9 c #584E4C",
"0 c #5A514F",
"q c #5C5452",
"w c #5F5857",
"e c #605655",
"r c #615857",
"t c #655C5A",
"y c #685F5D",
"u c #69605F",
"i c #6C6362",
"p c #706665",
"a c #726867",
"s c #756C6A",
"d c #786F6D",
"f c #7A706E",
"g c #7D7472",
"h c #807674",
"j c #827876",
"k c #857B79",
"l c #897F7E",
"z c #8A817F",
"x c #8D8482",
"c c #908684",
"v c #938987",
"b c #948A88",
/* pixels */
"   oXXXXOoXXXXX+oooXXoXooXXoooooooooooooOOOOOOOOOOOOOoooXXXXX   ",
"  ++@#%#++++++++++++++++++++++++O+++++O+O+O+OO+OO++O+OO+$%&#++  ",
"X+@&,57,@@@$%$$$$$$$$$$$$$$$$$$$$$$$$$$$+++++++++#####+#<55>&#@O",
"X+$>7yi9>*******--------------------***&######&##&**--->9iy5:#+o",
"X+$:3qyyr8,***:*----:-:-:---------:-::**&###%&&$**-**>8tyyw2:#OO",
"X+@&:<9ska4***:*----*---------------*-***&#&&**&*--*-4aks8<:#$OO",
"oo@%&-1ujdq<:***--*-****--*-----------*--*&%*-*>-*-:<qsjy1&##+OO",
"o+$&**,6eyur4*&&*&&&*&&*&-&-*&&-*-****--*****-*&**-5wuyq4-$##$OO",
"oO#*---:>8ui8::2<<<<<<<<,,,,,,>>::-:>--->*--&&>&:::8ui8,&#+%%+OO",
"o+#*---*-<59qqripppppppitwqqqqq94<<<<<><>>>>>>>>:::255:&#$$%@+OO",
"o+%*-----*-<qskxvbvvvvvckdsasssy94443111<<>>>>>>>>::;&&######+OO",
"X+#*-----&$>tgxlkjhhjjjjdiuuuuue7422111<1<>>>>>>>>:=@++@#####@OO",
"oO$*-----&#<pxki09988897566646411<<<<><<<><>>>>>>,>-#########+OO",
"o+$*-----&&1sbgq>>>>>>>>,>,:>>>>>>>>>><>>>>>><<>>>>:#@######@+OO",
"OO$*-----&&2dbg9>-->>>:>>>>:>>>>>>>>>>>>>>><131<>>>*&@+@@####+OO",
"OO$*-----&&4dbg8>>>>>>>>>>>,>>>>>>>>>>>>>>><363<>>>-#@@+@%###@OO",
"OO$**----**3dbh7>>,>>>>>>>>>>>>>>>>>>>>>,>>,111,>>>-##$$@%##@@Oo",
"O+$**----&*3dbh7>:>>>>>>>>>>>>>>>>>>>>,>>>>>,,,,>>>:&#%%%@##@+OO",
"o+#*-----**2ald7>:>>>>>,,1<,>>>>>>>,>>>>>>,>,>>,>>>*&###@###@+OO",
"oO$*-----&*2ygi6>>>>>>>,144<>>>>,>>>>>>>>>>>>>>>>>>-########@@OO",
"O+$*-----**<rsy6>>,>>>>,1641>>>>>>>>>,>>>>>>>>>>>,>-&#######@OOO",
"oO$*-----&&,rsy4>>>>>>>,<31,>>>>>>>>>>>>>>>>>>>>>,>-########@@OO",
"oO$*-----&&:wat4>>>>>>>>>><>>>>>>>>>>>>>>>,>>>>>>,>-&#######@+OO",
"O+#*----:&#:8tq3>>>>>>>>>>>>>>>>>>,>>>>>,,11<>>>>>>-&#######@@+O",
"o+#*:**--*#:176<>>>>>>>>>>>>>>>>>>>>>,>>,<66<,>>:,:;&#####@@@@OO",
"oO$&**---&#*<33<>>>>>>>>>>>>>>>>>>>>>>>>,<16<,>,<<<:&#####@@@OOO",
"OO$#&::**&&*,43<>>>>>>>>>>>>>>>>>,>>>>>>>,<<<>>>,1<:&#@###%@@+OO",
"OO+%#**--&&*<33,>>>>>>>>>>>>>>>>>>>>>>>>>,,>,>>>,14:&#@###@@++OO",
"OO+##***-*&&>31<>>>>>>>>>>>>>>>>>>>,>>>>>>>>>>>>,11,&###@@@@++OO",
"O++#&*:*-&&*>11<>>>>>>>>>>>>>>>>>>>>>>>,>>>,>,>>,12:&@@##@@++OOO",
"OO%&&&::-*&*>11,>>>>>>>>>>,>>>>>,>>>>,>>>,>>>>>><11>&@@###@@@+OO",
"OO#&--:&-**:<11,>>>>>>>>>>>>>>>>>>>>>>>>>>>>,>,>,11:#+@###@@@@OO",
"o+$---------,33>>>>>>>>>>>>,>>,>>>>>>>>>>>>>>,>>,33>#@@@@@##@+oo",
"oo$-------->,3,<>,>>>>>,>>>>>>>>,>>>>,>>>>>>>>,>,33>#+@@####@@o+",
"o+&&--------,33,>>>>>>>>,>>>>>>>>>>,,,,,>>>>>>>><33>#@@@####@++o",
"oo%&--&---*>>,,,>>>>>>>>>>>>>,>>>>>>,11<,>>>>>>><33>#+@@####@++o",
"oo&--&&&---->>,>>>,>,,,>>,>>>>>,>>>,1333>>>>>>>><33<@+@@####@++o",
"o@$&-&&&----->>>>>,,<3,>>>>>>>>>>>>><131>>>>,>>,3793=+@@####@++o",
"o+&&--------->>>>>,163<>>>>>>>>>>>>>,<11>>>>>>,<3ru9=+@@####@+oo",
"oo$--------->><>>>>133<,>>,>>>>>>>,,,,,,<,,,,<25esfr:++@####@+o+",
"oo$-------&->,<>>>>,33,>>>,,,,>>>>11111<1133339rszxu:++@####@+oo",
"o+$&-----&&&,33<>>>>>>>>,:>:>>>>>>>122112233330pgccu<o@@####@@o+",
"o+$=-----&%=3w03>>&-**--::::---->>>>:<::>>,,:24qufdw:@@@####@++o",
"o+$=-----&&:qur3>$$$%&&&%&##$&&&$$&$#==&&&=&@==<50q2=@@@####@++o",
"o+$------,38uu02-@@@$@%@##@@####$$#@@@@@@@@@@@@=:232:=&@@@##@++o",
"o+$&---&-3afu82:&@@@%%@@########$$######@@#@@@@==:<32<=@@@@@@++o",
"o+&*---:3ujje<&&@@####&@########$@%#####@@@#@@@#&-:353:=@@@@@+oo",
"oo$&-&:0ussu3*&#######@@########$$######@@##@@##%%*-224:=@+@@+o+",
"oo$---3plf0,-&&@######################@@########@@@&:333,&o&@@oo",
"o++*,9usfy2&$$@@#######################@@@######@@@%-:332:=%@ooo",
"o++-8dka91-$@@@@######################@@+@@######@@@&=:2332&@ooo",
"o+&2rfhr>%++@&@@##########%########@@@@@+@#@@@@##@@@@&-:233:&@@o",
"X$2wutq2=+@@@@@@##################@@@+@@#@+@@+@###@@#&#=:3332&oo",
"o%5it5:&++@@@@#################@##@++++@@@+++++###@@@@@#&-233-@o",
"o@,87:&@++@@@@@@@@@#@+@@@@@@@@@@@@+++@+@@@@+@++@@@@@@@@@$&:,2-oo",
"o+&==$@++++++@+++++++++++++++++++++++++++++++++++@o@++++%o%&%%@o",
"XXo@++++++++++++++++++++++++++++++++++++++++++++++++++++oo%$%ooo",
" .Xo+OOOo+oo+o+o++oOOOO++OO+OOO+O+OOOO+OOOO+OoOO+oooo+o+%ooooo. ",
"  .XooooooooooooXXXXXXXXXXXXXXXXooXXoXoXoXoooooXooooooooooooo.  ",
"   ..........................................................   ",
"                                                                ",
"                                                                ",
"                                                                ",
"                                                                "
};
